<?xml version="1.0" encoding="utf-8"?>
<!-- Generator: Adobe Illustrator 19.0.0, SVG Export Plug-In . SVG Version: 6.00 Build 0)  -->
<svg version="1.1" id="Layer_1" xmlns="http://www.w3.org/2000/svg" xmlns:xlink="http://www.w3.org/1999/xlink" x="0px" y="0px"
	 viewBox="56.2 49.7 317.7 317.7" style="enable-background:new 56.2 49.7 317.7 317.7;" xml:space="preserve">
<style type="text/css">
	.st0{fill:#FFFFFF;}
</style>
<g>
	<path class="st0" d="M215,49.7c-87.6,0-158.8,71.3-158.8,158.8S127.4,367.4,215,367.4s158.8-71.3,158.8-158.8S302.6,49.7,215,49.7z
		 M215,349.4c-22.9,0-43.7-22.9-56.8-57.7c17.9,3.8,37.1,5.7,56.8,5.7s38.9-2,56.8-5.7C258.7,326.4,237.9,349.4,215,349.4z
		 M215,279.4c-22.5,0-44-2.8-63.1-7.8c-5-19.1-7.8-40.6-7.8-63.1s2.8-44,7.8-63.1c19.1-5,40.6-7.8,63.1-7.8s44,2.8,63.1,7.8
		c5,19.1,7.8,40.6,7.8,63.1s-2.8,44-7.8,63.1C259,276.6,237.5,279.4,215,279.4z M131.8,265.3c-34.7-13.1-57.7-33.9-57.7-56.8
		s22.9-43.7,57.7-56.8c-3.8,17.9-5.7,37.1-5.7,56.8S128.1,247.4,131.8,265.3z M215,67.7c22.9,0,43.7,22.9,56.8,57.7
		c-17.9-3.8-37.1-5.7-56.8-5.7s-38.9,2-56.8,5.7C171.3,90.6,192.1,67.7,215,67.7z M298.2,151.7c34.7,13.1,57.7,33.9,57.7,56.8
		s-22.9,43.7-57.7,56.8c3.8-17.9,5.7-37.1,5.7-56.8S301.9,169.6,298.2,151.7z M346.5,158.1c-6.1-5-13.3-9.7-21.3-14
		c-9.8-5.2-20.7-9.7-32.4-13.3c-3.6-11.7-8.1-22.6-13.3-32.4c-4.3-8.1-9-15.2-14-21.3C302.6,91.3,332.2,121,346.5,158.1z M164.6,77
		c-5,6.1-9.7,13.3-14,21.3c-5.2,9.8-9.7,20.7-13.3,32.4c-11.7,3.6-22.6,8.1-32.4,13.3c-8.1,4.3-15.2,9-21.3,14
		C97.8,121,127.4,91.3,164.6,77z M83.5,258.9c6.1,5,13.3,9.7,21.3,14c9.8,5.2,20.7,9.7,32.4,13.3c3.6,11.7,8.1,22.6,13.3,32.4
		c4.3,8.1,9,15.2,14,21.3C127.4,325.7,97.8,296.1,83.5,258.9z M265.4,340c5-6.1,9.7-13.3,14-21.3c5.2-9.8,9.7-20.7,13.3-32.4
		c11.7-3.6,22.6-8.1,32.4-13.3c8.1-4.3,15.2-9,21.3-14C332.2,296.1,302.6,325.7,265.4,340z"/>
	<path class="st0" d="M168.4,239.3c-4.5,0-8.4-1.4-11.6-4.2c-3.3-2.8-4.9-6.9-4.8-12l0-1.7l0.5,0h12.3v1.5c0,1.6,0.4,2.9,1.2,4
		c0.8,0.9,1.6,1.4,2.7,1.4c1.3,0,2.2-0.4,3-1.4c0.8-1,1.2-2.5,1.2-4.3c0-2.4-0.4-4.1-1.2-5.1c-0.7-0.9-1.8-1.3-3.3-1.3H162v-10.8
		h6.5c1.7,0,2.4-0.7,2.8-1.3c0.7-1,1-2.5,1-4.5c0-1.7-0.3-3-1-4c-0.6-0.8-1.4-1.2-2.5-1.2c-0.9,0-1.6,0.4-2.3,1.1
		c-0.7,0.8-1.1,1.9-1.1,3.4v1.5h-12.3l-0.5,0l0-1.7c-0.1-4.5,1.4-8.2,4.5-11.1c3.1-2.8,6.9-4.3,11.4-4.3c5,0,9.1,1.4,12.2,4.2
		c3.1,2.8,4.7,6.9,4.7,11.9c0,2.6-0.7,5-2,7.3c-0.9,1.4-2,2.7-3.3,3.7c1.6,1,2.9,2.4,3.8,4c1.4,2.3,2.1,5.1,2.1,8.2
		c0,5.1-1.7,9.2-5,12.2C177.7,237.8,173.4,239.3,168.4,239.3z"/>
	<path class="st0" d="M219.3,206.6c-2.5-3.7-5.9-5.6-10.3-5.6c-2,0-3.8,0.3-5.4,1c-0.5,0.2-1,0.5-1.5,0.7c0.2-2.3,0.8-4.2,1.7-5.6
		c1.2-1.8,2.7-2.7,4.6-2.7c1.2,0,2.3,0.1,3.2,0.4c1,0.3,2.1,0.6,3.2,1.1l1.7,0.7l2.3-10.5l-1-0.5c-1.5-0.8-3-1.4-4.5-1.8
		c-1.5-0.4-3.2-0.6-5-0.6c-5.7,0-10.5,2.1-14.2,6.4c-3.6,4.2-5.5,9.8-5.5,16.8v10.6c0,6.7,1.6,12.1,4.8,16.1c3.2,4,7.5,6.1,12.7,6.1
		c4.9,0,8.9-1.9,12-5.6c3-3.6,4.6-8.2,4.6-13.7C222.8,214.7,221.6,210.2,219.3,206.6z M208.6,226.3c-1,2-2,2-2.3,2
		c-0.8,0-1.9-0.3-3-2.4c-1-1.9-1.5-4.8-1.5-8.6v-3.6c0.4-0.5,0.9-0.9,1.5-1.2c0.8-0.4,1.8-0.6,2.9-0.6c0.6,0,1.4,0.2,2.3,1.9
		c0.8,1.5,1.2,3.6,1.2,6.2C209.8,222.5,209.4,224.6,208.6,226.3z"/>
	<path class="st0" d="M253.5,189.3c-3-3.9-7.1-5.9-12.2-5.9c-5.1,0-9.2,2-12.2,5.9c-2.9,3.8-4.4,9.4-4.4,16.5v11.1
		c0,7.2,1.5,12.7,4.4,16.5c3,3.9,7.1,5.9,12.2,5.9c5,0,9.1-2,12.1-5.9c2.9-3.8,4.4-9.3,4.4-16.5v-11.1
		C257.9,198.7,256.4,193.2,253.5,189.3z M244.9,217.7c0,4-0.4,6.9-1.1,8.6c-0.8,1.9-3.9,1.9-4.8,0c-0.8-1.7-1.2-4.6-1.2-8.5V205
		c0-3.9,0.4-6.8,1.1-8.5c0.7-1.6,3.9-1.9,4.8,0c0.8,1.7,1.2,4.5,1.2,8.5V217.7z"/>
	<path class="st0" d="M279.2,186.8c-2-2.2-4.4-3.4-7.1-3.4c-2.8,0-5.3,1.1-7.2,3.4c-2,2.2-2.9,4.8-2.9,7.8c0,3,1,5.7,2.9,7.8
		c2,2.2,4.4,3.3,7.3,3.3c2.8,0,5.2-1.1,7.2-3.3c1.9-2.1,2.9-4.8,2.9-7.8C282.1,191.6,281.2,189,279.2,186.8z M273.5,196.9
		c-0.6,0.7-1.1,0.8-1.4,0.8c-0.6,0-1.1-0.2-1.6-0.8c-0.5-0.6-0.8-1.3-0.8-2.3c0-0.9,0.3-1.7,0.8-2.4c0.5-0.6,0.9-0.8,1.5-0.8
		c0.4,0,0.9,0.1,1.4,0.8c0.5,0.6,0.7,1.4,0.7,2.4C274.3,195.5,274,196.3,273.5,196.9z"/>
</g>
</svg>
