<?xml version="1.0" encoding="utf-8"?>
<!-- Generator: Adobe Illustrator 19.0.0, SVG Export Plug-In . SVG Version: 6.00 Build 0)  -->
<svg version="1.1" id="Layer_1" xmlns="http://www.w3.org/2000/svg" xmlns:xlink="http://www.w3.org/1999/xlink" x="0px" y="0px"
	 viewBox="418.9 49.7 417.7 325.6" style="enable-background:new 418.9 49.7 417.7 325.6;" xml:space="preserve">
<style type="text/css">
	.st0{fill:#FFFFFF;}
</style>
<path class="st0" d="M836.6,208.4c0-9.9-8.2-20.6-68.2-28.8l4.9-4.1c3.3-2.5,4.1-8.2,1.6-11.5c-2.5-3.3-8.2-4.1-11.5-1.6L742,178.8
	c-3.3,2.5-4.1,7.4-2.5,10.7l13.2,22.2c1.6,2.5,4.1,4.1,7.4,4.1c1.6,0,2.5,0,4.1-0.8c4.1-2.5,4.9-7.4,3.3-11.5l-5.8-8.2
	c37.8,4.9,51.8,10.7,56.7,13.2c-9.9,5.8-41.9,12.3-91.3,16.4v-37c0-21.4-17.3-37.8-37.8-37.8h-18.9c-7.4-55.9-24.7-100.3-51.8-100.3
	c-7.4,0-29.6,4.1-39.5,47.7c-1.6-4.1-6.6-5.8-10.7-4.1s-5.8,6.6-4.1,10.7l10.7,25.5l0.8,0.8c0,0.8,0.8,0.8,0.8,1.6l0.8,0.8
	c0.8,0,0.8,0.8,1.6,0.8c0,0,0,0,0.8,0s0.8,0,1.6,0h0.8l0,0l0,0h0.8c0.8,0,1.6,0,2.5-0.8h0.8l16.4-8.2c4.1-2.5,5.8-7.4,3.3-10.7
	c-2.5-4.1-7.4-5.8-10.7-3.3l-2.5,1.6c4.9-31.2,16.4-46,26.3-46c15.6,0,38.6,56.7,38.6,146.4c0,5.8,0,11.5,0,17.3
	c-12.3,0-25.5,0.8-38.6,0.8c-32.9,0-60-0.8-83.9-2.5v-38.6c0-12.3,9.9-21.4,21.4-21.4h81.4c4.9,0,8.2-3.3,8.2-8.2
	c0-4.9-3.3-8.2-8.2-8.2H557c-21.4,0-37.8,17.3-37.8,37.8v37.8c-50.2-4.1-76.5-11.5-83-16.4c4.9-2.5,18.9-9,61.7-14
	c4.1-0.8,7.4-4.9,7.4-9c-0.8-4.1-4.9-7.4-9-7.4c-68.2,8.2-77.3,19.7-77.3,29.6c0,19.7,49.3,29.6,102,33.7
	c3.3,18.1,18.9,32.1,37.8,32.1h82.2c4.9,0,8.2-3.3,8.2-8.2s-3.3-8.2-8.2-8.2H557c-9,0-17.3-5.8-20.6-14c31.2,1.6,60.8,2.5,82.2,2.5
	c7.4,0,21.4,0,37.8-0.8c-0.8,6.6-0.8,14-1.6,19.7l0,0l0,0c-6.6,57.6-23.8,92.1-36.2,92.1c-9.9,0-23-18.1-27.1-69.9
	c0-4.9-4.1-8.2-9-7.4c-4.9,0-8.2,4.1-7.4,9c5.8,74,29.6,84.7,43.6,84.7c27.1,0,44.4-44.4,51.8-100.3h18.1c18.9,0,34.5-14,37.8-32.1
	C781.5,237.2,836.6,227.3,836.6,208.4z M671.3,165.6h17.3c12.3,0,21.4,9.9,21.4,21.4v38.6c-11.5,0.8-23.8,1.6-37,1.6
	c0-5.8,0-10.7,0-16.4C673.8,196.1,673,180.4,671.3,165.6z M688.6,257.7h-17.3c0-4.1,0.8-8.2,0.8-12.3c11.5-0.8,23.8-0.8,36.2-1.6
	C705.9,251.1,698.5,257.7,688.6,257.7z"/>
</svg>
