<?xml version="1.0" encoding="utf-8"?>
<!-- Generator: Adobe Illustrator 19.0.0, SVG Export Plug-In . SVG Version: 6.00 Build 0)  -->
<svg version="1.1" id="Слой_1" xmlns="http://www.w3.org/2000/svg" xmlns:xlink="http://www.w3.org/1999/xlink" x="0px" y="0px"
	 viewBox="0 0 356.6 116.2" style="enable-background:new 0 0 356.6 116.2;" xml:space="preserve">
<style type="text/css">
	.st0{fill:#FFFFFF;}
	.st1{fill:url(#SVGID_1_);}
</style>
<g>
	<g>
		<path class="st0" d="M144.5,56.4h-6.2V37.5h9.1c5.4,0,8,2.5,8,6.4c0,4.1-2.4,6.6-7.8,6.6h-3.1V56.4z M144.5,46.1h2.6
			c1.4,0,2.5-0.6,2.5-2.2c0-1.8-2-2-3.3-2h-1.8V46.1z"/>
		<path class="st0" d="M178.3,46.9c0,6.4-4.3,10-9.9,10c-5.9,0-9.9-3.7-9.9-10.1c0-5.9,4-9.8,9.9-9.8
			C175.1,37,178.3,41.9,178.3,46.9z M164.7,46.9c0,2.4,0.7,5.4,3.7,5.4c2.7,0,3.7-2.3,3.7-5.4c0-2.6-1-5.2-3.8-5.2
			C165.5,41.6,164.7,44.5,164.7,46.9z"/>
		<path class="st0" d="M194.4,44.7c-0.2-2-1.4-3.1-3.4-3.1c-2.2,0-3.5,1.9-3.5,5.5c0,2.6,0.6,5.1,3.7,5.1c2,0,2.9-1.4,3.2-3.2h6
			c-0.5,4.9-4,7.8-9,7.8c-6.2,0-10-3.8-10-10c0-6.1,4.1-9.9,9.4-9.9c5.8,0,9,2.9,9.5,7.7H194.4z"/>
		<path class="st0" d="M216.3,44.7c-0.2-2-1.4-3.1-3.4-3.1c-2.2,0-3.5,1.9-3.5,5.5c0,2.6,0.6,5.1,3.7,5.1c2,0,2.9-1.4,3.2-3.2h6
			c-0.5,4.9-4,7.8-9,7.8c-6.2,0-10-3.8-10-10c0-6.1,4.1-9.9,9.4-9.9c5.8,0,9,2.9,9.5,7.7H216.3z"/>
		<path class="st0" d="M244.2,37.5v18.9h-5.9v-6l0.3-4.8l-6.8,10.8H226V37.5h5.9v6l-0.3,4.8l6.8-10.8H244.2z"/>
		<path class="st0" d="M267.1,37.5v18.9h-5.9v-6l0.3-4.8l-6.8,10.8h-5.8V37.5h5.9v6l-0.3,4.8l6.8-10.8H267.1z M255.5,32.1
			c0.2,1.5,1.6,1.6,2.8,1.6c1.6,0,2.4-0.5,2.6-1.6h2c-0.1,2.7-2.3,4-4.8,4c-2.8,0-4.5-1.1-4.7-4H255.5z"/>
		<path class="st0" d="M283.5,44.7c-0.2-2-1.4-3.1-3.4-3.1c-2.2,0-3.5,1.9-3.5,5.5c0,2.6,0.6,5.1,3.7,5.1c2,0,2.9-1.4,3.2-3.2h6
			c-0.5,4.9-4,7.8-9,7.8c-6.2,0-10-3.8-10-10c0-6.1,4.1-9.9,9.4-9.9c5.8,0,9,2.9,9.5,7.7H283.5z"/>
		<path class="st0" d="M298.9,43.6l5.4-6.1h7.3l-6.9,7.1l7.6,11.8h-7.4l-4.5-7.5l-1.5,1.5v6h-6.2V37.5h6.2V43.6z"/>
		<path class="st0" d="M333.6,37.5v18.9h-5.9v-6l0.3-4.8l-6.8,10.8h-5.8V37.5h5.9v6l-0.3,4.8l6.8-10.8H333.6z"/>
		<path class="st0" d="M356.6,37.5v18.9h-5.9v-6l0.3-4.8l-6.8,10.8h-5.8V37.5h5.9v6l-0.3,4.8l6.8-10.8H356.6z M345,32.1
			c0.2,1.5,1.6,1.6,2.8,1.6c1.6,0,2.4-0.5,2.6-1.6h2c-0.1,2.7-2.3,4-4.8,4c-2.8,0-4.5-1.1-4.7-4H345z"/>
		<path class="st0" d="M144.5,75.1l5.4-6.1h7.3l-6.9,7.1l7.6,11.8h-7.4l-4.5-7.5l-1.5,1.5v6h-6.2V69h6.2V75.1z"/>
		<path class="st0" d="M178.3,78.3c0,6.4-4.3,10-9.9,10c-5.9,0-9.9-3.7-9.9-10.1c0-5.9,4-9.8,9.9-9.8
			C175.1,68.5,178.3,73.3,178.3,78.3z M164.7,78.3c0,2.4,0.7,5.4,3.7,5.4c2.7,0,3.7-2.3,3.7-5.4c0-2.6-1-5.2-3.8-5.2
			C165.5,73.1,164.7,75.9,164.7,78.3z"/>
		<path class="st0" d="M194.9,76.2c-0.2-2-1.4-3.1-3.4-3.1c-2.2,0-3.5,1.9-3.5,5.5c0,2.6,0.6,5.1,3.7,5.1c2,0,2.9-1.4,3.2-3.2h6
			c-0.5,4.9-4,7.8-9,7.8c-6.2,0-10-3.8-10-10c0-6.1,4.1-9.9,9.4-9.9c5.8,0,9,2.9,9.5,7.7H194.9z"/>
		<path class="st0" d="M212.6,69l3.3,11.8l3.3-11.8h7.5v18.9h-5.6v-5.8c0-2.1,0.2-4.2,0.4-6.3h-0.1l-3.4,12.1h-4.3l-3.4-12.1h-0.1
			c0.2,1.7,0.4,4.2,0.4,5.7v6.4h-5.6V69H212.6z"/>
		<path class="st0" d="M249.9,78.3c0,6.4-4.3,10-9.9,10c-5.9,0-9.9-3.7-9.9-10.1c0-5.9,4-9.8,9.9-9.8
			C246.7,68.5,249.9,73.3,249.9,78.3z M236.3,78.3c0,2.4,0.7,5.4,3.7,5.4c2.7,0,3.7-2.3,3.7-5.4c0-2.6-1-5.2-3.8-5.2
			C237.1,73.1,236.3,75.9,236.3,78.3z"/>
		<path class="st0" d="M265.5,76.2c-0.2-2-1.4-3.1-3.4-3.1c-2.2,0-3.5,1.9-3.5,5.5c0,2.6,0.6,5.1,3.7,5.1c2,0,2.9-1.4,3.2-3.2h6
			c-0.5,4.9-4,7.8-9,7.8c-6.2,0-10-3.8-10-10c0-6.1,4.1-9.9,9.4-9.9c5.8,0,9,2.9,9.5,7.7H265.5z"/>
	</g>
	<linearGradient id="SVGID_1_" gradientUnits="userSpaceOnUse" x1="20.9634" y1="86.1066" x2="75.0407" y2="45.2936">
		<stop  offset="0" style="stop-color:#00174D"/>
		<stop  offset="0.6362" style="stop-color:#0064A0"/>
		<stop  offset="1" style="stop-color:#0093D8"/>
	</linearGradient>
	<path class="st1" d="M116.2,58.1c0,32.1-26,58.1-58.1,58.1C26,116.2,0,90.2,0,58.1C0,26,26,0,58.1,0C90.2,0,116.2,26,116.2,58.1z"
		/>
	<circle class="st0" cx="118.2" cy="26.9" r="4.7"/>
	<path class="st0" d="M0.5,50.8C0.2,53.2,0,55.6,0,58.1c0,9.3,2.2,18.1,6.1,26C9,18.9,116.9,11.5,125.7,11C125.7,11,27.4,7,0.5,50.8
		z"/>
	<g>
		<g>
			<path class="st0" d="M44.4,52.3v-0.8c0-4.5,2.6-8.7,8.9-8.7c5,0,8.5,3,8.5,7.5c0,2.8-0.7,5.4-4.2,6.3c4.2,1.6,4.8,3.9,4.8,7.9
				c0,6.3-3.5,8.8-9.2,8.8c-5.1,0-8.8-2.8-8.8-9.3v-1.5h6.3v1.1c0,2.3,0.6,4.3,2.5,4.3c2,0,2.5-1.2,2.5-4.4c0-3.1-1.1-3.9-4.3-3.9
				h-1.5v-4.7h1c3.2,0,4.4-0.6,4.4-4c0-1.6-0.6-3.1-2.3-3.1c-1.5,0-2.5,1.1-2.5,2.9v1.6H44.4z"/>
			<path class="st0" d="M76.6,53.3c4,0,6.3,2.6,6.3,9v1c0,6.2-2.4,10.1-8.8,10.1c-4.1,0-8.6-2-8.6-8.6V51c0-5.7,3.8-8.2,8.5-8.2
				c5,0,8.7,2.2,8.7,7.9h-6.3c0-1.5-0.8-2.7-2.3-2.7c-1.5,0-2.1,1-2.1,2.7v5.1C72.9,54.4,74.3,53.3,76.6,53.3z M74.2,68
				c2,0,2.4-1.1,2.4-5.1c0-2.9-0.5-4.5-2.4-4.5c-1.9,0-2.3,1.6-2.3,4.5C71.9,66.8,72.4,68,74.2,68z"/>
			<path class="st0" d="M95.2,42.8c7.3,0,9,4,9,8.2v14.1c0,4.2-1.8,8.3-9,8.3c-6.9,0-8.9-4-8.9-8.3V51
				C86.3,46.8,88.3,42.8,95.2,42.8z M92.9,50.9v14.4c0,2,0.3,3,2.2,3c1.9,0,2.5-1.1,2.5-3V50.9c0-2-0.6-3-2.5-3
				C93.3,47.9,92.9,48.9,92.9,50.9z"/>
		</g>
	</g>
</g>
</svg>
