<?xml version="1.0" encoding="utf-8"?>
<!-- Generator: Adobe Illustrator 19.0.0, SVG Export Plug-In . SVG Version: 6.00 Build 0)  -->
<svg version="1.1" id="Слой_1" xmlns="http://www.w3.org/2000/svg" xmlns:xlink="http://www.w3.org/1999/xlink" x="0px" y="0px"
	 viewBox="0 0 272.6 116.2" style="enable-background:new 0 0 272.6 116.2;" xml:space="preserve">
<style type="text/css">
	.st0{fill:#FFFFFF;}
	.st1{fill:url(#SVGID_1_);}
</style>
<g>
	<g>
		<path class="st0" d="M144.5,56.4h-6.2V37.5h8.9c6.3,0,8.4,1.7,8.4,5.4c0,2.2-1,4-3.2,4.6c2,0.7,3.2,1.2,3.2,5
			c0,2.8,0.2,3.3,0.7,3.3v0.6H150c-0.2-0.4-0.3-1.6-0.3-3.3c0-2.5-0.4-3.3-3.3-3.3h-1.9V56.4z M144.5,45.7h2.4
			c1.9,0,2.9-0.5,2.9-1.8c0-1.3-1-2-2.5-2h-2.9V45.7z"/>
		<path class="st0" d="M165.6,37.5v11.3c0,1.9,0.4,3.5,2.9,3.5c2.2,0,2.9-1.4,2.9-3.5V37.5h6.2v10.7c0,6.1-2.8,8.7-9.1,8.7
			c-5.8,0-9.1-2.2-9.1-8.7V37.5H165.6z"/>
		<path class="st0" d="M191.6,43c-0.2-1.3-1.3-1.6-2.5-1.6c-1.4,0-2,0.4-2,1.1c0,2.8,10.9,1.1,10.9,7.9c0,4.4-3.6,6.5-8.8,6.5
			c-5,0-8.2-2.9-8.4-6.3h5.9c0,1.1,1.5,2,2.8,2c1.5,0,2.6-0.5,2.6-1.4c0-2.9-10.9-0.9-10.9-8.1c0-4,3.5-6,8.2-6c5.2,0,7.6,2.7,8.1,6
			H191.6z"/>
		<path class="st0" d="M211.7,43c-0.2-1.3-1.3-1.6-2.5-1.6c-1.4,0-2,0.4-2,1.1c0,2.8,10.9,1.1,10.9,7.9c0,4.4-3.6,6.5-8.8,6.5
			c-5,0-8.2-2.9-8.4-6.3h5.9c0,1.1,1.5,2,2.8,2c1.5,0,2.6-0.5,2.6-1.4c0-2.9-10.9-0.9-10.9-8.1c0-4,3.5-6,8.2-6c5.2,0,7.6,2.7,8.1,6
			H211.7z"/>
		<path class="st0" d="M228.2,56.4H222V37.5h6.2V56.4z"/>
		<path class="st0" d="M243.9,37.5l6.8,18.9h-6.2l-0.7-2.5h-6.2l-0.7,2.5h-6.1l6.8-18.9H243.9z M242.7,50l-2-6.8l-1.9,6.8H242.7z"/>
		<path class="st0" d="M260.2,37.5l6.7,10.3l-0.2-4.3v-6h5.9v18.9h-5.8l-6.7-10.3l0.2,4.3v6h-5.9V37.5H260.2z"/>
		<path class="st0" d="M148.1,74.5c-0.2-1.3-1.3-1.6-2.5-1.6c-1.4,0-2,0.4-2,1.1c0,2.8,10.9,1.1,10.9,7.9c0,4.4-3.6,6.5-8.8,6.5
			c-5,0-8.2-2.9-8.4-6.3h5.9c0,1.1,1.5,2,2.8,2c1.5,0,2.6-0.5,2.6-1.4c0-2.9-10.9-0.9-10.9-8.1c0-4,3.5-6,8.2-6c5.2,0,7.6,2.7,8.1,6
			H148.1z"/>
		<path class="st0" d="M164.1,87.9h-6.2V69h9.1c5.4,0,8,2.5,8,6.4c0,4.1-2.4,6.6-7.8,6.6h-3.1V87.9z M164.1,77.6h2.6
			c1.4,0,2.5-0.6,2.5-2.2c0-1.8-2-2-3.3-2h-1.8V77.6z"/>
		<path class="st0" d="M188.3,69l6.8,18.9h-6.2l-0.7-2.5H182l-0.7,2.5h-6.1L182,69H188.3z M187.1,81.4l-2-6.8l-1.9,6.8H187.1z"/>
		<path class="st0" d="M209.2,76.2c-0.2-2-1.4-3.1-3.4-3.1c-2.2,0-3.5,1.9-3.5,5.5c0,2.6,0.6,5.1,3.7,5.1c2,0,2.9-1.4,3.2-3.2h6
			c-0.5,4.9-4,7.8-9,7.8c-6.2,0-10-3.8-10-10c0-6.1,4.1-9.9,9.4-9.9c5.8,0,9,2.9,9.5,7.7H209.2z"/>
		<path class="st0" d="M233.7,69v4.4h-9.2v2.7h7.8v4.4h-7.8v3h9.6v4.4h-15.8V69H233.7z"/>
	</g>
	<linearGradient id="SVGID_1_" gradientUnits="userSpaceOnUse" x1="20.9635" y1="86.1063" x2="75.0408" y2="45.2932">
		<stop  offset="0" style="stop-color:#00174D"/>
		<stop  offset="0.6362" style="stop-color:#0064A0"/>
		<stop  offset="1" style="stop-color:#0093D8"/>
	</linearGradient>
	<path class="st1" d="M116.2,58.1c0,32.1-26,58.1-58.1,58.1C26,116.2,0,90.2,0,58.1C0,26,26,0,58.1,0C90.2,0,116.2,26,116.2,58.1z"
		/>
	<circle class="st0" cx="118.2" cy="26.9" r="4.7"/>
	<path class="st0" d="M0.5,50.8C0.2,53.2,0,55.6,0,58.1c0,9.3,2.2,18.1,6.1,26C9,18.9,116.9,11.5,125.7,11C125.7,11,27.4,7,0.5,50.8
		z"/>
	<g>
		<g>
			<path class="st0" d="M44.4,52.3v-0.8c0-4.5,2.6-8.7,8.9-8.7c5,0,8.5,3,8.5,7.5c0,2.8-0.7,5.4-4.2,6.3c4.2,1.6,4.8,3.9,4.8,7.9
				c0,6.3-3.5,8.8-9.2,8.8c-5.1,0-8.8-2.8-8.8-9.3v-1.5h6.3v1.1c0,2.2,0.6,4.3,2.5,4.3c2,0,2.5-1.2,2.5-4.4c0-3.1-1.1-3.9-4.3-3.9
				h-1.5v-4.7h1c3.2,0,4.4-0.6,4.4-4c0-1.6-0.6-3.1-2.3-3.1c-1.5,0-2.5,1.1-2.5,2.9v1.6H44.4z"/>
			<path class="st0" d="M76.6,53.3c4,0,6.3,2.6,6.3,9v1c0,6.2-2.4,10.1-8.8,10.1c-4.1,0-8.6-2-8.6-8.6V51c0-5.7,3.8-8.2,8.5-8.2
				c5,0,8.7,2.2,8.7,7.9h-6.3c0-1.5-0.8-2.7-2.3-2.7c-1.5,0-2.1,1-2.1,2.7v5.1C72.9,54.4,74.3,53.3,76.6,53.3z M74.2,68
				c2,0,2.4-1.1,2.4-5.1c0-2.9-0.5-4.5-2.4-4.5c-1.9,0-2.3,1.6-2.3,4.5C71.9,66.8,72.4,68,74.2,68z"/>
			<path class="st0" d="M95.2,42.8c7.3,0,9,4,9,8.2v14.1c0,4.2-1.8,8.3-9,8.3c-6.9,0-8.9-4-8.9-8.3V51
				C86.3,46.8,88.3,42.8,95.2,42.8z M92.9,50.9v14.4c0,2,0.3,3,2.2,3c1.9,0,2.5-1.1,2.5-3V50.9c0-2-0.6-3-2.5-3
				C93.3,47.9,92.9,48.9,92.9,50.9z"/>
		</g>
	</g>
</g>
</svg>
