<?xml version="1.0" encoding="utf-8"?>
<!-- Generator: Adobe Illustrator 19.0.0, SVG Export Plug-In . SVG Version: 6.00 Build 0)  -->
<svg version="1.1" id="Layer_1" xmlns="http://www.w3.org/2000/svg" xmlns:xlink="http://www.w3.org/1999/xlink" x="0px" y="0px"
	 viewBox="541.9 397.6 417.7 219.3" style="enable-background:new 541.9 397.6 417.7 219.3;" xml:space="preserve">
<style type="text/css">
	.st0{fill:#FFFFFF;}
</style>
<g>
	<path class="st0" d="M929.2,416.6c6.3,0,11.4,5.1,11.4,11.4v158.5c0,6.3-5.1,11.4-11.3,11.4H793.9l-17.5-36.8c0,0,0-0.1-0.1-0.1
		c-2.8-5.8-7.6-10.6-13.4-13.4c-3.9-1.9-8.3-2.9-12.6-2.9c-11,0-21.2,6.4-26,16.2l-18.2,37H572.3c-6.3,0-11.4-5.1-11.4-11.4V428
		c0-6.3,5.1-11.4,11.4-11.4H929.2 M929.2,397.6H572.3c-16.8,0-30.4,13.6-30.4,30.4v158.5c0,16.8,13.6,30.4,30.4,30.4h139.2
		c0,0,0.1,0,0.1,0c3.7,0,7.1-2,8.8-5.2l20.9-42.4c1.7-3.5,5.3-5.6,8.9-5.6c1.5,0,2.9,0.3,4.3,1c2,1,3.6,2.6,4.6,4.6l19.9,41.8
		c1.6,3.6,5.2,5.8,9.1,5.8c0.1,0,0.1,0,0.2,0h141c16.7-0.1,30.3-13.7,30.3-30.4V428C959.6,411.2,946,397.6,929.2,397.6L929.2,397.6z
		"/>
	<path class="st0" d="M656.6,552.4c-24.8,0-45-20.1-45.2-45c-0.1-24.9,20.1-45.2,45-45.4c0.1,0,0.1,0,0.2,0c24.8,0,45,20.1,45.2,45
		v0.2c0,24.8-20.2,45.1-45,45.2l0,0C656.8,552.4,656.7,552.4,656.6,552.4z M656.6,481.1c0,0-0.1,0-0.1,0c-7,0-13.5,2.8-18.5,7.7
		c-4.9,5-7.6,11.5-7.6,18.5c0,7,2.8,13.5,7.7,18.5c4.9,4.9,11.5,7.6,18.4,7.6c0,0,0.1,0,0.1,0l0,0c14.4-0.1,26-11.8,26-26.2v-0.2
		C682.7,492.7,671,481.1,656.6,481.1z"/>
	<path class="st0" d="M844.6,552.4c-24.8,0-45-20.1-45.2-45c-0.1-24.9,20.1-45.2,45-45.4c0.1,0,0.1,0,0.2,0c24.8,0,45,20.1,45.2,45
		v0.2c0,24.8-20.2,45.1-45,45.2l0,0C844.7,552.4,844.6,552.4,844.6,552.4z M844.6,481.1c0,0-0.1,0-0.1,0c-7,0-13.5,2.8-18.5,7.7
		c-4.9,5-7.6,11.5-7.6,18.5c0,7,2.8,13.5,7.7,18.5c4.9,4.9,11.5,7.6,18.4,7.6c0,0,0.1,0,0.1,0l0,0c14.4-0.1,26-11.8,26-26.2v-0.2
		C870.7,492.7,859,481.1,844.6,481.1z"/>
</g>
</svg>
