<?xml version="1.0" encoding="utf-8"?>
<!-- Generator: Adobe Illustrator 19.0.0, SVG Export Plug-In . SVG Version: 6.00 Build 0)  -->
<svg version="1.1" id="Layer_1" xmlns="http://www.w3.org/2000/svg" xmlns:xlink="http://www.w3.org/1999/xlink" x="0px" y="0px"
	 viewBox="0 0 201.5 201.5" style="enable-background:new 0 0 201.5 201.5;" xml:space="preserve">
<style type="text/css">
	.st0{fill-rule:evenodd;clip-rule:evenodd;fill:#FF9924;}
	.st1{fill:#4A4A4A;}
	.st2{fill:#E8E8E8;}
</style>
<path class="st0" d="M7.6,0h186.3c4.2,0,7.6,3.4,7.6,7.6v186.3c0,4.2-3.4,7.6-7.6,7.6H7.6c-4.2,0-7.6-3.4-7.6-7.6V7.6
	C0,3.4,3.4,0,7.6,0"/>
<path class="st1" d="M152.1,95.3c-0.4,0-0.8-0.2-1-0.4h0c-0.3-0.3-0.4-0.6-0.4-1c0-0.4,0.2-0.8,0.4-1l0,0c0.3-0.3,0.6-0.4,1-0.4
	c0.4,0,0.8,0.2,1,0.4c0.3,0.3,0.4,0.6,0.4,1c0,0.4-0.2,0.8-0.4,1C152.9,95.2,152.5,95.3,152.1,95.3 M119.3,83.3
	c0,1.4-0.6,2.7-1.5,3.7l0,0c-0.9,0.9-2.2,1.5-3.7,1.5c-1.4,0-2.7-0.6-3.7-1.5v0c-0.9-0.9-1.5-2.2-1.5-3.7c0-1.4,0.6-2.7,1.5-3.7
	c0.9-0.9,2.2-1.5,3.7-1.5c1.4,0,2.7,0.6,3.7,1.5l0,0C118.7,80.5,119.3,81.8,119.3,83.3z M130.1,83.3c0,1.1-0.5,2.2-1.2,2.9h0
	c-0.7,0.7-1.8,1.2-2.9,1.2c-1.1,0-2.2-0.5-2.9-1.2c-0.7-0.7-1.2-1.8-1.2-2.9c0-1.1,0.5-2.2,1.2-2.9l0,0c0.7-0.7,1.8-1.2,2.9-1.2
	c1.1,0,2.1,0.5,2.9,1.2l0,0l0,0C129.6,81.1,130.1,82.1,130.1,83.3z M140.8,83.3c0,0.9-0.4,1.8-1,2.4l0,0c-0.6,0.6-1.4,1-2.4,1
	c-0.9,0-1.8-0.4-2.4-1l0,0c-0.6-0.6-1-1.4-1-2.4c0-0.9,0.4-1.8,1-2.4l0,0c0.6-0.6,1.4-1,2.4-1c0.9,0,1.8,0.4,2.4,1
	C140.4,81.5,140.8,82.3,140.8,83.3z M148.7,83.3c0,0.8-0.3,1.6-0.9,2.1v0c-0.5,0.5-1.3,0.9-2.1,0.9c-0.8,0-1.6-0.3-2.1-0.9l0,0
	c-0.5-0.5-0.9-1.3-0.9-2.1c0-0.8,0.3-1.6,0.9-2.1h0c0.5-0.5,1.3-0.9,2.1-0.9c0.8,0,1.6,0.3,2.1,0.9
	C148.4,81.7,148.7,82.4,148.7,83.3z M155,83.3c0,0.5-0.2,1-0.5,1.3c-0.3,0.3-0.8,0.5-1.3,0.5c-0.5,0-1-0.2-1.3-0.5l0,0
	c-0.3-0.3-0.5-0.8-0.5-1.3c0-0.5,0.2-1,0.5-1.3l0,0l0,0c0.3-0.3,0.8-0.5,1.3-0.5c0.5,0,1,0.2,1.3,0.5l0,0
	C154.8,82.3,155,82.7,155,83.3z M81.4,97.2c0-1.3,0.5-2.5,1.4-3.3c0.9-0.9,2-1.4,3.3-1.4c1.3,0,2.5,0.5,3.3,1.4l0,0
	c0.9,0.9,1.4,2,1.4,3.3c0,1.3-0.5,2.5-1.4,3.3l0,0l0,0c-0.9,0.9-2,1.4-3.3,1.4c-1.3,0-2.5-0.5-3.3-1.4h0
	C81.9,99.7,81.4,98.5,81.4,97.2z M70.6,96.7c0-1,0.4-2,1.1-2.6c0.7-0.7,1.6-1.1,2.6-1.1c1,0,2,0.4,2.6,1.1c0.7,0.7,1.1,1.6,1.1,2.6
	c0,1-0.4,2-1.1,2.6c-0.7,0.7-1.6,1.1-2.6,1.1c-1,0-2-0.4-2.6-1.1C71,98.7,70.6,97.7,70.6,96.7z M60,95.9c0-0.8,0.3-1.6,0.9-2.2
	c0.6-0.6,1.3-0.9,2.2-0.9c0.8,0,1.6,0.3,2.2,0.9l0,0c0.6,0.6,0.9,1.3,0.9,2.2s-0.3,1.6-0.9,2.2c-0.6,0.6-1.3,0.9-2.2,0.9
	c-0.8,0-1.6-0.3-2.2-0.9C60.3,97.5,60,96.7,60,95.9z M52,95c0-0.7,0.3-1.4,0.8-1.8l0,0c0.5-0.5,1.1-0.8,1.8-0.8
	c0.7,0,1.4,0.3,1.8,0.8l0,0c0.5,0.5,0.8,1.1,0.8,1.8c0,0.7-0.3,1.4-0.8,1.8l0,0l0,0c-0.5,0.5-1.1,0.8-1.8,0.8
	c-0.7,0-1.4-0.3-1.8-0.8l0,0C52.3,96.3,52,95.7,52,95z M46.1,93.9c0-0.5,0.2-0.9,0.5-1.2l0,0c0.3-0.3,0.7-0.5,1.2-0.5
	c0.5,0,0.9,0.2,1.2,0.5l0,0c0.3,0.3,0.5,0.7,0.5,1.2c0,0.5-0.2,0.9-0.5,1.2l0,0c-0.3,0.3-0.7,0.5-1.2,0.5c-0.5,0-0.9-0.2-1.2-0.5
	l0,0C46.3,94.8,46.1,94.4,46.1,93.9z M82.3,108.9c0-1.2,0.5-2.3,1.3-3c0.8-0.8,1.8-1.3,3-1.3c1.2,0,2.3,0.5,3,1.3
	c0.8,0.8,1.3,1.8,1.3,3c0,1.2-0.5,2.3-1.3,3c-0.8,0.8-1.8,1.3-3,1.3c-1.2,0-2.3-0.5-3-1.3C82.8,111.2,82.3,110.1,82.3,108.9z
	 M71.7,108.1c0-0.9,0.4-1.8,1-2.4c0.6-0.6,1.5-1,2.4-1c0.9,0,1.8,0.4,2.4,1c0.6,0.6,1,1.5,1,2.4c0,0.9-0.4,1.8-1,2.4l0,0
	c-0.6,0.6-1.5,1-2.4,1c-0.9,0-1.8-0.4-2.4-1v0C72,109.8,71.7,109,71.7,108.1z M61.4,106.7c0-0.8,0.3-1.5,0.8-2
	c0.5-0.5,1.2-0.8,2-0.8c0.8,0,1.5,0.3,2,0.8c0.5,0.5,0.8,1.2,0.8,2c0,0.8-0.3,1.5-0.8,2c-0.5,0.5-1.2,0.8-2,0.8
	c-0.8,0-1.5-0.3-2-0.8C61.7,108.2,61.4,107.5,61.4,106.7z M53.7,105.2c0-0.6,0.2-1.1,0.6-1.5c0.4-0.4,0.9-0.6,1.5-0.6
	c0.6,0,1.1,0.2,1.5,0.6c0.4,0.4,0.6,0.9,0.6,1.5c0,0.6-0.2,1.1-0.6,1.5l0,0c-0.4,0.4-0.9,0.6-1.5,0.6c-0.6,0-1.1-0.2-1.5-0.6l0,0
	C53.9,106.4,53.7,105.8,53.7,105.2z M49.4,104c0-0.4,0.2-0.8,0.5-1.1l0,0c0.3-0.3,0.7-0.5,1.1-0.5c0.4,0,0.8,0.2,1.1,0.5l0,0
	c0.3,0.3,0.5,0.7,0.5,1.1c0,0.4-0.2,0.8-0.5,1.1l0,0c-0.3,0.3-0.7,0.5-1.1,0.5c-0.4,0-0.8-0.2-1.1-0.5l0,0
	C49.6,104.9,49.4,104.5,49.4,104z M84,120.3c0-0.9,0.4-1.8,1-2.4l0,0c0.6-0.6,1.5-1,2.4-1c0.9,0,1.8,0.4,2.4,1c0.6,0.6,1,1.5,1,2.4
	c0,0.9-0.4,1.8-1,2.4l0,0c-0.6,0.6-1.5,1-2.4,1c-0.9,0-1.8-0.4-2.4-1l0,0C84.4,122,84,121.2,84,120.3z M73.6,119.1
	c0-0.8,0.3-1.5,0.8-2l0,0c0.5-0.5,1.2-0.8,2-0.8c0.8,0,1.5,0.3,2,0.8c0.5,0.5,0.8,1.2,0.8,2c0,0.8-0.3,1.5-0.8,2l0,0l0,0
	c-0.5,0.5-1.2,0.8-2,0.8c-0.8,0-1.5-0.3-2-0.8C73.9,120.6,73.6,119.9,73.6,119.1z M63.7,117.4c0-0.6,0.2-1.1,0.6-1.5
	c0.4-0.4,0.9-0.6,1.5-0.6c0.6,0,1.1,0.2,1.5,0.6c0.4,0.4,0.6,0.9,0.6,1.5c0,0.6-0.2,1.1-0.6,1.5c-0.4,0.4-0.9,0.6-1.5,0.6
	c-0.6,0-1.1-0.2-1.5-0.6C63.9,118.5,63.7,118,63.7,117.4z M56.5,115.8c0-0.4,0.2-0.8,0.4-1l0,0c0.3-0.3,0.6-0.4,1-0.4
	c0.4,0,0.8,0.2,1,0.4v0c0.3,0.3,0.4,0.6,0.4,1s-0.2,0.8-0.4,1l0,0c-0.3,0.3-0.6,0.4-1,0.4c-0.4,0-0.8-0.2-1-0.4l0,0l0,0
	C56.7,116.6,56.5,116.2,56.5,115.8z M85.9,128.7c0-0.7,0.3-1.3,0.7-1.7l0,0c0.4-0.4,1.1-0.7,1.7-0.7c0.7,0,1.3,0.3,1.7,0.7v0
	c0.4,0.4,0.7,1.1,0.7,1.7c0,0.7-0.3,1.3-0.7,1.7v0c-0.4,0.4-1.1,0.7-1.7,0.7c-0.7,0-1.3-0.3-1.7-0.7l0,0
	C86.1,130,85.9,129.4,85.9,128.7z M76.1,127.4c0-0.5,0.2-1,0.5-1.3l0,0c0.3-0.3,0.8-0.5,1.3-0.5c0.5,0,1,0.2,1.3,0.5l0,0
	c0.3,0.3,0.5,0.8,0.5,1.3c0,0.5-0.2,1-0.5,1.3s-0.8,0.5-1.3,0.5c-0.5,0-1-0.2-1.3-0.5l0,0C76.3,128.4,76.1,127.9,76.1,127.4z
	 M65.9,125.3c0-0.4,0.2-0.8,0.4-1c0.3-0.3,0.6-0.4,1-0.4c0.4,0,0.8,0.2,1,0.4l0,0c0.3,0.3,0.4,0.6,0.4,1c0,0.4-0.2,0.8-0.4,1l0,0
	l0,0c-0.3,0.3-0.6,0.4-1,0.4c-0.4,0-0.8-0.2-1-0.4l0,0C66.1,126.1,65.9,125.7,65.9,125.3z M77.8,132.2c0-0.4,0.2-0.8,0.4-1l0,0
	c0.3-0.3,0.6-0.4,1-0.4c0.4,0,0.8,0.2,1,0.4v0c0.3,0.3,0.4,0.6,0.4,1c0,0.4-0.2,0.8-0.4,1v0c-0.3,0.3-0.6,0.4-1,0.4
	c-0.4,0-0.8-0.2-1-0.4l0,0l0,0C77.9,133,77.8,132.6,77.8,132.2z M87.9,135.4c0-0.4,0.2-0.8,0.4-1c0.3-0.3,0.6-0.4,1-0.4
	c0.4,0,0.8,0.2,1,0.4l0,0c0.3,0.3,0.4,0.6,0.4,1c0,0.4-0.2,0.8-0.4,1h0c-0.3,0.3-0.6,0.4-1,0.4c-0.4,0-0.8-0.2-1-0.4
	C88,136.1,87.9,135.8,87.9,135.4z M100,102.6c-1.4,0-2.7-0.6-3.7-1.5v0c-0.9-0.9-1.5-2.2-1.5-3.7c0-1.4,0.6-2.7,1.5-3.7v0
	c0.9-0.9,2.2-1.5,3.7-1.5s2.7,0.6,3.7,1.5v0c0.9,0.9,1.5,2.2,1.5,3.7c0,1.4-0.6,2.7-1.5,3.7v0C102.7,102,101.4,102.6,100,102.6z
	 M100,113.3c-1.1,0-2.2-0.5-2.9-1.2l0,0c-0.7-0.7-1.2-1.8-1.2-2.9c0-1.1,0.5-2.2,1.2-2.9c0.7-0.7,1.8-1.2,2.9-1.2
	c1.1,0,2.1,0.5,2.9,1.2l0,0l0,0c0.7,0.7,1.2,1.8,1.2,2.9c0,1.1-0.5,2.1-1.2,2.9l0,0l0,0C102.1,112.9,101.1,113.3,100,113.3z
	 M100,124c-0.9,0-1.8-0.4-2.4-1l0,0c-0.6-0.6-1-1.4-1-2.4c0-0.9,0.4-1.8,1-2.4l0,0l0,0c0.6-0.6,1.4-1,2.4-1c0.9,0,1.8,0.4,2.4,1
	c0.6,0.6,1,1.4,1,2.4c0,0.9-0.4,1.8-1,2.4l0,0C101.7,123.7,100.9,124,100,124z M100,132c-0.8,0-1.6-0.3-2.1-0.9
	c-0.5-0.5-0.9-1.3-0.9-2.1c0-0.8,0.3-1.6,0.9-2.1v0c0.5-0.5,1.3-0.9,2.1-0.9c0.8,0,1.6,0.3,2.1,0.9c0.5,0.5,0.9,1.3,0.9,2.1
	c0,0.8-0.3,1.6-0.9,2.1C101.5,131.7,100.8,132,100,132z M100,138.3c-0.5,0-1-0.2-1.3-0.5l0,0c-0.3-0.3-0.5-0.8-0.5-1.3
	c0-0.5,0.2-1,0.5-1.3l0,0l0,0c0.3-0.3,0.8-0.5,1.3-0.5c0.5,0,1,0.2,1.3,0.5s0.5,0.8,0.5,1.3c0,0.5-0.2,1-0.5,1.3
	S100.5,138.3,100,138.3z M118.6,69.3c0,1.3-0.5,2.5-1.4,3.3l0,0c-0.9,0.9-2,1.4-3.3,1.4c-1.3,0-2.5-0.5-3.3-1.4l0,0
	c-0.9-0.9-1.4-2-1.4-3.3c0-1.3,0.5-2.5,1.4-3.3v0c0.9-0.9,2-1.4,3.3-1.4s2.5,0.5,3.3,1.4v0C118,66.8,118.6,68,118.6,69.3z
	 M129.4,69.8c0,1-0.4,2-1.1,2.6s-1.6,1.1-2.6,1.1c-1,0-2-0.4-2.6-1.1h0c-0.7-0.7-1.1-1.6-1.1-2.6c0-1,0.4-2,1.1-2.6
	c0.7-0.7,1.6-1.1,2.6-1.1c1,0,2,0.4,2.6,1.1C128.9,67.8,129.4,68.8,129.4,69.8z M139.9,70.6c0,0.8-0.3,1.6-0.9,2.2l0,0l0,0
	c-0.6,0.6-1.3,0.9-2.2,0.9c-0.8,0-1.6-0.3-2.2-0.9l0,0c-0.6-0.6-0.9-1.3-0.9-2.2c0-0.8,0.3-1.6,0.9-2.2c0.6-0.6,1.3-0.9,2.2-0.9
	c0.8,0,1.6,0.3,2.2,0.9C139.6,69,139.9,69.8,139.9,70.6z M147.9,71.5c0,0.7-0.3,1.4-0.8,1.8l0,0c-0.5,0.5-1.1,0.8-1.8,0.8
	c-0.7,0-1.4-0.3-1.8-0.8l0,0c-0.5-0.5-0.8-1.1-0.8-1.8c0-0.7,0.3-1.4,0.8-1.8l0,0c0.5-0.5,1.1-0.8,1.8-0.8c0.7,0,1.4,0.3,1.8,0.8
	C147.6,70.2,147.9,70.8,147.9,71.5z M153.8,72.6c0,0.5-0.2,0.9-0.5,1.2l0,0c-0.3,0.3-0.7,0.5-1.2,0.5c-0.5,0-0.9-0.2-1.2-0.5l0,0
	c-0.3-0.3-0.5-0.7-0.5-1.2c0-0.5,0.2-0.9,0.5-1.2l0,0c0.3-0.3,0.7-0.5,1.2-0.5c0.5,0,0.9,0.2,1.2,0.5l0,0
	C153.6,71.7,153.8,72.1,153.8,72.6z M117.6,57.6c0,1.2-0.5,2.3-1.3,3l0,0c-0.8,0.8-1.8,1.3-3,1.3c-1.2,0-2.3-0.5-3-1.3
	c-0.8-0.8-1.3-1.8-1.3-3c0-1.2,0.5-2.3,1.3-3c0.8-0.8,1.8-1.3,3-1.3s2.3,0.5,3,1.3C117.1,55.4,117.6,56.4,117.6,57.6z M128.3,58.4
	c0,0.9-0.4,1.8-1,2.4l0,0c-0.6,0.6-1.5,1-2.4,1c-0.9,0-1.8-0.4-2.4-1v0c-0.6-0.6-1-1.5-1-2.4c0-0.9,0.4-1.8,1-2.4
	c0.6-0.6,1.5-1,2.4-1c0.9,0,1.8,0.4,2.4,1h0C127.9,56.7,128.3,57.5,128.3,58.4z M138.6,59.8c0,0.8-0.3,1.5-0.8,2
	c-0.5,0.5-1.2,0.8-2,0.8c-0.8,0-1.5-0.3-2-0.8c-0.5-0.5-0.8-1.2-0.8-2c0-0.8,0.3-1.5,0.8-2c0.5-0.5,1.2-0.8,2-0.8
	c0.8,0,1.5,0.3,2,0.8C138.3,58.3,138.6,59,138.6,59.8z M146.2,61.3c0,0.6-0.2,1.1-0.6,1.5l0,0c-0.4,0.4-0.9,0.6-1.5,0.6
	c-0.6,0-1.1-0.2-1.5-0.6c-0.4-0.4-0.6-0.9-0.6-1.5c0-0.6,0.2-1.1,0.6-1.5l0,0c0.4-0.4,0.9-0.6,1.5-0.6s1.1,0.2,1.5,0.6
	C146,60.1,146.2,60.7,146.2,61.3z M150.5,62.5c0,0.4-0.2,0.8-0.5,1.1l0,0c-0.3,0.3-0.7,0.5-1.1,0.5c-0.4,0-0.8-0.2-1.1-0.5l0,0
	c-0.3-0.3-0.5-0.7-0.5-1.1c0-0.4,0.2-0.8,0.5-1.1l0,0c0.3-0.3,0.7-0.5,1.1-0.5c0.4,0,0.8,0.2,1.1,0.5l0,0
	C150.3,61.6,150.5,62,150.5,62.5z M115.9,46.3c0,0.9-0.4,1.8-1,2.4c-0.6,0.6-1.5,1-2.4,1c-0.9,0-1.8-0.4-2.4-1c-0.6-0.6-1-1.5-1-2.4
	c0-0.9,0.4-1.8,1-2.4c0.6-0.6,1.5-1,2.4-1c0.9,0,1.8,0.4,2.4,1C115.5,44.5,115.9,45.3,115.9,46.3z M126.3,47.4c0,0.8-0.3,1.5-0.8,2
	c-0.5,0.5-1.2,0.8-2,0.8c-0.8,0-1.5-0.3-2-0.8l0,0c-0.5-0.5-0.8-1.2-0.8-2c0-0.8,0.3-1.5,0.8-2l0,0c0.5-0.5,1.2-0.8,2-0.8
	c0.8,0,1.5,0.3,2,0.8l0,0C126,45.9,126.3,46.6,126.3,47.4z M136.2,49.1c0,0.6-0.2,1.1-0.6,1.5h0c-0.4,0.4-0.9,0.6-1.5,0.6
	c-0.6,0-1.1-0.2-1.5-0.6c-0.4-0.4-0.6-0.9-0.6-1.5c0-0.6,0.2-1.1,0.6-1.5c0.4-0.4,0.9-0.6,1.5-0.6c0.6,0,1.1,0.2,1.5,0.6h0
	C136,48,136.2,48.5,136.2,49.1z M143.4,50.7c0,0.4-0.2,0.8-0.4,1l0,0c-0.3,0.3-0.6,0.4-1,0.4c-0.4,0-0.8-0.2-1-0.4
	c-0.3-0.3-0.4-0.6-0.4-1c0-0.4,0.2-0.8,0.4-1l0,0l0,0c0.3-0.3,0.6-0.4,1-0.4c0.4,0,0.8,0.2,1,0.4l0,0l0,0
	C143.3,49.9,143.4,50.3,143.4,50.7z M114.1,37.8c0,0.7-0.3,1.3-0.7,1.7l0,0c-0.4,0.4-1.1,0.7-1.7,0.7c-0.7,0-1.3-0.3-1.7-0.7v0
	c-0.4-0.4-0.7-1.1-0.7-1.7c0-0.7,0.3-1.3,0.7-1.7v0c0.4-0.4,1.1-0.7,1.7-0.7c0.7,0,1.3,0.3,1.7,0.7l0,0
	C113.8,36.5,114.1,37.1,114.1,37.8z M123.8,39.1c0,0.5-0.2,1-0.5,1.3l0,0c-0.3,0.3-0.8,0.5-1.3,0.5c-0.5,0-1-0.2-1.3-0.5l0,0
	c-0.3-0.3-0.5-0.8-0.5-1.3c0-0.5,0.2-1,0.5-1.3l0,0l0,0c0.3-0.3,0.8-0.5,1.3-0.5c0.5,0,1,0.2,1.3,0.5l0,0
	C123.6,38.1,123.8,38.6,123.8,39.1z M134,41.2c0,0.4-0.2,0.8-0.4,1l0,0c-0.3,0.3-0.6,0.4-1,0.4c-0.4,0-0.8-0.2-1-0.4l0,0l0,0
	c-0.3-0.3-0.4-0.6-0.4-1c0-0.4,0.2-0.8,0.4-1l0,0l0,0c0.3-0.3,0.6-0.4,1-0.4c0.4,0,0.8,0.2,1,0.4l0,0C133.8,40.5,134,40.8,134,41.2z
	 M122.2,34.3c0,0.4-0.2,0.8-0.4,1l0,0l0,0c-0.3,0.3-0.6,0.4-1,0.4c-0.4,0-0.8-0.2-1-0.4v0c-0.3-0.3-0.4-0.6-0.4-1s0.2-0.8,0.4-1v0
	c0.3-0.3,0.6-0.4,1-0.4c0.4,0,0.8,0.2,1,0.4l0,0l0,0C122,33.5,122.2,33.9,122.2,34.3z M112,31.1c0,0.4-0.2,0.8-0.4,1
	c-0.3,0.3-0.6,0.4-1,0.4c-0.4,0-0.8-0.2-1-0.4l0,0c-0.3-0.3-0.4-0.6-0.4-1c0-0.4,0.2-0.8,0.4-1h0c0.3-0.3,0.6-0.4,1-0.4
	c0.4,0,0.8,0.2,1,0.4C111.9,30.4,112,30.7,112,31.1z M100,63.9c1.4,0,2.7,0.6,3.7,1.5v0c0.9,0.9,1.5,2.2,1.5,3.7
	c0,1.4-0.6,2.7-1.5,3.7l0,0c-0.9,0.9-2.2,1.5-3.7,1.5c-1.4,0-2.7-0.6-3.7-1.5h0c-0.9-0.9-1.5-2.2-1.5-3.7c0-1.4,0.6-2.7,1.5-3.7l0,0
	C97.2,64.5,98.5,63.9,100,63.9z M100,53.2c1.1,0,2.2,0.5,2.9,1.2c0.7,0.7,1.2,1.8,1.2,2.9c0,1.1-0.5,2.2-1.2,2.9
	c-0.7,0.7-1.8,1.2-2.9,1.2c-1.1,0-2.1-0.5-2.9-1.2l0,0l0,0c-0.7-0.7-1.2-1.8-1.2-2.9c0-1.1,0.5-2.2,1.2-2.9
	C97.8,53.6,98.8,53.2,100,53.2z M100,42.5c0.9,0,1.8,0.4,2.4,1c0.6,0.6,1,1.4,1,2.4c0,0.9-0.4,1.8-1,2.4c-0.6,0.6-1.4,1-2.4,1
	s-1.8-0.4-2.4-1c-0.6-0.6-1-1.4-1-2.4c0-0.9,0.4-1.8,1-2.4l0,0C98.2,42.9,99,42.5,100,42.5z M100,34.5c0.8,0,1.6,0.3,2.1,0.9
	c0.5,0.5,0.9,1.3,0.9,2.1c0,0.8-0.3,1.6-0.9,2.1s-1.3,0.9-2.1,0.9c-0.8,0-1.6-0.3-2.1-0.9c-0.5-0.5-0.9-1.3-0.9-2.1
	c0-0.8,0.3-1.6,0.9-2.1C98.4,34.9,99.1,34.5,100,34.5z M100,28.2c0.5,0,1,0.2,1.3,0.5s0.5,0.8,0.5,1.3c0,0.5-0.2,1-0.5,1.3
	s-0.8,0.5-1.3,0.5c-0.5,0-1-0.2-1.3-0.5l0,0c-0.3-0.3-0.5-0.8-0.5-1.3c0-0.5,0.2-1,0.5-1.3l0,0l0,0C99,28.4,99.4,28.2,100,28.2z
	 M86,64.7c1.3,0,2.5,0.5,3.3,1.4c0.9,0.9,1.4,2,1.4,3.3c0,1.3-0.5,2.5-1.4,3.3h0c-0.9,0.9-2,1.4-3.3,1.4c-1.3,0-2.5-0.5-3.3-1.4h0
	c-0.9-0.9-1.4-2-1.4-3.3c0-1.3,0.5-2.5,1.4-3.3C83.5,65.2,84.7,64.7,86,64.7z M86.5,53.8c1,0,2,0.4,2.6,1.1c0.7,0.7,1.1,1.6,1.1,2.6
	c0,1-0.4,2-1.1,2.6l0,0c-0.7,0.7-1.6,1.1-2.6,1.1c-1,0-2-0.4-2.6-1.1c-0.7-0.7-1.1-1.6-1.1-2.6c0-1,0.4-2,1.1-2.6
	C84.5,54.3,85.4,53.8,86.5,53.8z M87.3,43.3c0.8,0,1.6,0.3,2.2,0.9l0,0c0.6,0.6,0.9,1.3,0.9,2.2c0,0.8-0.3,1.6-0.9,2.2
	c-0.6,0.6-1.3,0.9-2.2,0.9s-1.6-0.3-2.2-0.9c-0.6-0.6-0.9-1.3-0.9-2.2c0-0.8,0.3-1.6,0.9-2.2l0,0l0,0C85.7,43.6,86.5,43.3,87.3,43.3
	z M88.2,35.3c0.7,0,1.4,0.3,1.8,0.8l0,0l0,0c0.5,0.5,0.8,1.1,0.8,1.8c0,0.7-0.3,1.4-0.8,1.8l0,0c-0.5,0.5-1.1,0.8-1.8,0.8
	c-0.7,0-1.4-0.3-1.8-0.8l0,0c-0.5-0.5-0.8-1.1-0.8-1.8c0-0.7,0.3-1.4,0.8-1.8l0,0C86.9,35.6,87.5,35.3,88.2,35.3z M89.3,29.4
	c0.5,0,0.9,0.2,1.2,0.5l0,0c0.3,0.3,0.5,0.7,0.5,1.2c0,0.5-0.2,0.9-0.5,1.2c-0.3,0.3-0.7,0.5-1.2,0.5c-0.5,0-0.9-0.2-1.2-0.5h0
	c-0.3-0.3-0.5-0.7-0.5-1.2c0-0.5,0.2-0.9,0.5-1.2C88.4,29.6,88.8,29.4,89.3,29.4z M74.3,65.6c1.2,0,2.3,0.5,3,1.3
	c0.8,0.8,1.3,1.8,1.3,3c0,1.2-0.5,2.3-1.3,3c-0.8,0.8-1.8,1.3-3,1.3c-1.2,0-2.3-0.5-3-1.3l0,0c-0.8-0.8-1.3-1.8-1.3-3
	c0-1.2,0.5-2.3,1.3-3S73.1,65.6,74.3,65.6z M75.1,55c0.9,0,1.8,0.4,2.4,1c0.6,0.6,1,1.5,1,2.4c0,0.9-0.4,1.8-1,2.4
	c-0.6,0.6-1.5,1-2.4,1s-1.8-0.4-2.4-1c-0.6-0.6-1-1.5-1-2.4c0-0.9,0.4-1.8,1-2.4C73.3,55.3,74.2,55,75.1,55z M76.5,44.6
	c0.8,0,1.5,0.3,2,0.8c0.5,0.5,0.8,1.2,0.8,2s-0.3,1.5-0.8,2c-0.5,0.5-1.2,0.8-2,0.8s-1.5-0.3-2-0.8c-0.5-0.5-0.8-1.2-0.8-2
	s0.3-1.5,0.8-2C75,45,75.7,44.6,76.5,44.6z M78,37c0.6,0,1.1,0.2,1.5,0.6l0,0c0.4,0.4,0.6,0.9,0.6,1.5c0,0.6-0.2,1.1-0.6,1.5
	c-0.4,0.4-0.9,0.6-1.5,0.6c-0.6,0-1.1-0.2-1.5-0.6l0,0c-0.4-0.4-0.6-0.9-0.6-1.5c0-0.6,0.2-1.1,0.6-1.5l0,0C76.8,37.2,77.4,37,78,37
	z M79.1,32.7c0.4,0,0.8,0.2,1.1,0.5l0,0c0.3,0.3,0.5,0.7,0.5,1.1c0,0.4-0.2,0.8-0.5,1.1l0,0c-0.3,0.3-0.7,0.5-1.1,0.5
	c-0.4,0-0.8-0.2-1.1-0.5l0,0c-0.3-0.3-0.5-0.7-0.5-1.1c0-0.4,0.2-0.8,0.5-1.1l0,0C78.3,32.9,78.7,32.7,79.1,32.7z M62.9,67.3
	c0.9,0,1.8,0.4,2.4,1l0,0c0.6,0.6,1,1.5,1,2.4c0,0.9-0.4,1.8-1,2.4c-0.6,0.6-1.5,1-2.4,1c-0.9,0-1.8-0.4-2.4-1l0,0
	c-0.6-0.6-1-1.5-1-2.4c0-0.9,0.4-1.8,1-2.4l0,0C61.2,67.7,62,67.3,62.9,67.3z M64.1,56.9c0.8,0,1.5,0.3,2,0.8l0,0l0,0
	c0.5,0.5,0.8,1.2,0.8,2c0,0.8-0.3,1.5-0.8,2c-0.5,0.5-1.2,0.8-2,0.8c-0.8,0-1.5-0.3-2-0.8l0,0c-0.5-0.5-0.8-1.2-0.8-2s0.3-1.5,0.8-2
	l0,0l0,0C62.6,57.2,63.3,56.9,64.1,56.9z M65.8,47c0.6,0,1.1,0.2,1.5,0.6c0.4,0.4,0.6,0.9,0.6,1.5c0,0.6-0.2,1.1-0.6,1.5
	c-0.4,0.4-0.9,0.6-1.5,0.6s-1.1-0.2-1.5-0.6c-0.4-0.4-0.6-0.9-0.6-1.5c0-0.6,0.2-1.1,0.6-1.5C64.6,47.2,65.2,47,65.8,47z M67.3,39.8
	c0.4,0,0.8,0.2,1,0.4l0,0c0.3,0.3,0.4,0.6,0.4,1s-0.2,0.8-0.4,1l0,0c-0.3,0.3-0.6,0.4-1,0.4c-0.4,0-0.8-0.2-1-0.4l0,0l0,0
	c-0.3-0.3-0.4-0.6-0.4-1c0-0.4,0.2-0.8,0.4-1l0,0C66.6,40,66.9,39.8,67.3,39.8z M54.5,69.2c0.7,0,1.3,0.3,1.7,0.7h0
	c0.4,0.4,0.7,1.1,0.7,1.7c0,0.7-0.3,1.3-0.7,1.7l0,0c-0.4,0.4-1.1,0.7-1.7,0.7c-0.7,0-1.3-0.3-1.7-0.7l0,0c-0.4-0.4-0.7-1.1-0.7-1.7
	c0-0.7,0.3-1.3,0.7-1.7h0C53.2,69.4,53.8,69.2,54.5,69.2z M55.8,59.4c0.5,0,1,0.2,1.3,0.5l0,0c0.3,0.3,0.5,0.8,0.5,1.3
	c0,0.5-0.2,1-0.5,1.3c-0.3,0.3-0.8,0.5-1.3,0.5c-0.5,0-1-0.2-1.3-0.5l0,0c-0.3-0.3-0.5-0.8-0.5-1.3c0-0.5,0.2-1,0.5-1.3l0,0
	C54.8,59.6,55.3,59.4,55.8,59.4z M57.9,49.2c0.4,0,0.8,0.2,1,0.4l0,0c0.3,0.3,0.4,0.6,0.4,1c0,0.4-0.2,0.8-0.4,1l0,0
	c-0.3,0.3-0.6,0.4-1,0.4c-0.4,0-0.8-0.2-1-0.4l0,0l0,0c-0.3-0.3-0.4-0.6-0.4-1c0-0.4,0.2-0.8,0.4-1l0,0l0,0
	C57.1,49.4,57.5,49.2,57.9,49.2z M50.9,61.1c0.4,0,0.8,0.2,1,0.4l0,0l0,0c0.3,0.3,0.4,0.6,0.4,1c0,0.4-0.2,0.8-0.4,1h0
	c-0.3,0.3-0.6,0.4-1,0.4c-0.4,0-0.8-0.2-1-0.4h0c-0.3-0.3-0.4-0.6-0.4-1c0-0.4,0.2-0.8,0.4-1l0,0l0,0C50.2,61.2,50.5,61.1,50.9,61.1
	z M47.8,71.2c0.4,0,0.8,0.2,1,0.4h0c0.3,0.3,0.4,0.6,0.4,1c0,0.4-0.2,0.8-0.4,1l0,0c-0.3,0.3-0.6,0.4-1,0.4c-0.4,0-0.8-0.2-1-0.4v0
	c-0.3-0.3-0.4-0.6-0.4-1c0-0.4,0.2-0.8,0.4-1C47,71.3,47.4,71.2,47.8,71.2z M80.6,83.3c0-1.4,0.6-2.7,1.5-3.7l0,0
	c0.9-0.9,2.2-1.5,3.7-1.5c1.4,0,2.7,0.6,3.7,1.5v0c0.9,0.9,1.5,2.2,1.5,3.7c0,1.4-0.6,2.7-1.5,3.7l0,0c-0.9,0.9-2.2,1.5-3.7,1.5
	c-1.4,0-2.7-0.6-3.7-1.5l0,0C81.2,86,80.6,84.7,80.6,83.3z M69.8,83.3c0-1.1,0.5-2.2,1.2-2.9h0c0.7-0.7,1.8-1.2,2.9-1.2
	c1.1,0,2.2,0.5,2.9,1.2c0.7,0.7,1.2,1.8,1.2,2.9c0,1.1-0.5,2.2-1.2,2.9l0,0c-0.7,0.7-1.8,1.2-2.9,1.2c-1.1,0-2.1-0.5-2.9-1.2l0,0
	l0,0C70.3,85.4,69.8,84.4,69.8,83.3z M59.2,83.3c0-0.9,0.4-1.8,1-2.4l0,0c0.6-0.6,1.4-1,2.4-1c0.9,0,1.8,0.4,2.4,1l0,0
	c0.6,0.6,1,1.4,1,2.4c0,0.9-0.4,1.8-1,2.4l0,0l0,0c-0.6,0.6-1.4,1-2.4,1c-0.9,0-1.8-0.4-2.4-1C59.5,85,59.2,84.2,59.2,83.3z
	 M51.2,83.3c0-0.8,0.3-1.6,0.9-2.1v0c0.5-0.5,1.3-0.9,2.1-0.9c0.8,0,1.6,0.3,2.1,0.9l0,0c0.5,0.5,0.9,1.3,0.9,2.1
	c0,0.8-0.3,1.6-0.9,2.1h0c-0.5,0.5-1.3,0.9-2.1,0.9c-0.8,0-1.6-0.3-2.1-0.9C51.5,84.8,51.2,84.1,51.2,83.3z M44.9,83.3
	c0-0.5,0.2-1,0.5-1.3l0,0l0,0c0.3-0.3,0.8-0.5,1.3-0.5c0.5,0,1,0.2,1.3,0.5l0,0c0.3,0.3,0.5,0.8,0.5,1.3c0,0.5-0.2,1-0.5,1.3
	c-0.3,0.3-0.8,0.5-1.3,0.5c-0.5,0-1-0.2-1.3-0.5l0,0C45.1,84.2,44.9,83.8,44.9,83.3z M100,76c2,0,3.8,0.8,5.1,2.1v0
	c1.3,1.3,2.1,3.1,2.1,5.1c0,2-0.8,3.8-2.1,5.1l0,0c-1.3,1.3-3.1,2.1-5.1,2.1c-2,0-3.8-0.8-5.1-2.1c-1.3-1.3-2.1-3.1-2.1-5.1
	c0-2,0.8-3.8,2.1-5.1l0,0l0,0C96.2,76.9,98,76,100,76z M113.9,101.9c-1.3,0-2.5-0.5-3.3-1.4c-0.9-0.9-1.4-2-1.4-3.3
	c0-1.3,0.5-2.5,1.4-3.3h0c0.9-0.9,2-1.4,3.3-1.4c1.3,0,2.5,0.5,3.3,1.4c0.9,0.9,1.4,2,1.4,3.3c0,1.3-0.5,2.5-1.4,3.3v0
	C116.4,101.3,115.2,101.9,113.9,101.9z M113.4,112.7c-1,0-2-0.4-2.6-1.1c-0.7-0.7-1.1-1.6-1.1-2.6c0-1,0.4-2,1.1-2.6
	c0.7-0.7,1.6-1.1,2.6-1.1c1,0,2,0.4,2.6,1.1v0c0.7,0.7,1.1,1.6,1.1,2.6c0,1-0.4,2-1.1,2.6C115.4,112.2,114.5,112.7,113.4,112.7z
	 M112.6,123.2c-0.8,0-1.6-0.3-2.2-0.9c-0.6-0.6-0.9-1.3-0.9-2.2c0-0.8,0.3-1.6,0.9-2.2l0,0c0.6-0.6,1.3-0.9,2.2-0.9
	c0.8,0,1.6,0.3,2.2,0.9l0,0c0.6,0.6,0.9,1.3,0.9,2.2c0,0.8-0.3,1.6-0.9,2.2C114.2,122.9,113.5,123.2,112.6,123.2z M111.7,131.2
	c-0.7,0-1.4-0.3-1.8-0.8l0,0c-0.5-0.5-0.8-1.1-0.8-1.8c0-0.7,0.3-1.4,0.8-1.8l0,0c0.5-0.5,1.1-0.8,1.8-0.8c0.7,0,1.4,0.3,1.8,0.8
	l0,0c0.5,0.5,0.8,1.1,0.8,1.8c0,0.7-0.3,1.4-0.8,1.8l0,0l0,0C113.1,130.9,112.4,131.2,111.7,131.2z M110.7,137.1
	c-0.5,0-0.9-0.2-1.2-0.5c-0.3-0.3-0.5-0.7-0.5-1.2c0-0.5,0.2-0.9,0.5-1.2c0.3-0.3,0.7-0.5,1.2-0.5c0.5,0,0.9,0.2,1.2,0.5l0,0
	c0.3,0.3,0.5,0.7,0.5,1.2c0,0.5-0.2,0.9-0.5,1.2C111.6,136.9,111.1,137.1,110.7,137.1z M125.6,100.9c-1.2,0-2.3-0.5-3-1.3
	c-0.8-0.8-1.3-1.8-1.3-3c0-1.2,0.5-2.3,1.3-3c0.8-0.8,1.8-1.3,3-1.3c1.2,0,2.3,0.5,3,1.3l0,0c0.8,0.8,1.3,1.8,1.3,3
	c0,1.2-0.5,2.3-1.3,3C127.9,100.4,126.8,100.9,125.6,100.9z M124.8,111.5c-0.9,0-1.8-0.4-2.4-1v0c-0.6-0.6-1-1.5-1-2.4
	c0-0.9,0.4-1.8,1-2.4c0.6-0.6,1.5-1,2.4-1c0.9,0,1.8,0.4,2.4,1c0.6,0.6,1,1.5,1,2.4c0,0.9-0.4,1.8-1,2.4
	C126.6,111.2,125.7,111.5,124.8,111.5z M123.5,121.9c-0.8,0-1.5-0.3-2-0.8v0c-0.5-0.5-0.8-1.2-0.8-2c0-0.8,0.3-1.5,0.8-2
	c0.5-0.5,1.2-0.8,2-0.8s1.5,0.3,2,0.8c0.5,0.5,0.8,1.2,0.8,2s-0.3,1.5-0.8,2C124.9,121.5,124.2,121.9,123.5,121.9z M122,129.5
	c-0.6,0-1.1-0.2-1.5-0.6l0,0c-0.4-0.4-0.6-0.9-0.6-1.5c0-0.6,0.2-1.1,0.6-1.5c0.4-0.4,0.9-0.6,1.5-0.6c0.6,0,1.1,0.2,1.5,0.6
	c0.4,0.4,0.6,0.9,0.6,1.5c0,0.6-0.2,1.1-0.6,1.5l0,0C123.1,129.3,122.6,129.5,122,129.5z M120.8,133.8c-0.4,0-0.8-0.2-1.1-0.5h0
	c-0.3-0.3-0.5-0.7-0.5-1.1c0-0.4,0.2-0.8,0.5-1.1l0,0c0.3-0.3,0.7-0.5,1.1-0.5c0.4,0,0.8,0.2,1.1,0.5l0,0c0.3,0.3,0.5,0.7,0.5,1.1
	c0,0.4-0.2,0.8-0.5,1.1h0C121.6,133.6,121.2,133.8,120.8,133.8z M137,99.2c-0.9,0-1.8-0.4-2.4-1l0,0c-0.6-0.6-1-1.5-1-2.4
	c0-0.9,0.4-1.8,1-2.4l0,0l0,0c0.6-0.6,1.5-1,2.4-1c0.9,0,1.8,0.4,2.4,1l0,0c0.6,0.6,1,1.5,1,2.4c0,0.9-0.4,1.8-1,2.4
	C138.8,98.8,137.9,99.2,137,99.2z M135.9,109.6c-0.8,0-1.5-0.3-2-0.8c-0.5-0.5-0.8-1.2-0.8-2c0-0.8,0.3-1.5,0.8-2l0,0
	c0.5-0.5,1.2-0.8,2-0.8c0.8,0,1.5,0.3,2,0.8h0c0.5,0.5,0.8,1.2,0.8,2s-0.3,1.5-0.8,2C137.3,109.3,136.6,109.6,135.9,109.6z
	 M134.1,119.5c-0.6,0-1.1-0.2-1.5-0.6s-0.6-0.9-0.6-1.5c0-0.6,0.2-1.1,0.6-1.5c0.4-0.4,0.9-0.6,1.5-0.6c0.6,0,1.1,0.2,1.5,0.6
	c0.4,0.4,0.6,0.9,0.6,1.5c0,0.6-0.2,1.1-0.6,1.5S134.7,119.5,134.1,119.5z M132.6,126.7c-0.4,0-0.8-0.2-1-0.4l0,0
	c-0.3-0.3-0.4-0.6-0.4-1c0-0.4,0.2-0.8,0.4-1c0.3-0.3,0.6-0.4,1-0.4c0.4,0,0.8,0.2,1,0.4l0,0c0.3,0.3,0.4,0.6,0.4,1
	c0,0.4-0.2,0.8-0.4,1l0,0l0,0C133.3,126.6,133,126.7,132.6,126.7z M145.4,97.4c-0.7,0-1.3-0.3-1.7-0.7v0c-0.4-0.4-0.7-1.1-0.7-1.7
	c0-0.7,0.3-1.3,0.7-1.7v0c0.4-0.4,1.1-0.7,1.7-0.7c0.7,0,1.3,0.3,1.7,0.7h0c0.4,0.4,0.7,1.1,0.7,1.7c0,0.7-0.3,1.3-0.7,1.7l0,0
	C146.7,97.1,146.1,97.4,145.4,97.4z M144.1,107.1c-0.5,0-1-0.2-1.3-0.5l0,0c-0.3-0.3-0.5-0.8-0.5-1.3c0-0.5,0.2-1,0.5-1.3
	c0.3-0.3,0.8-0.5,1.3-0.5c0.5,0,1,0.2,1.3,0.5c0.3,0.3,0.5,0.8,0.5,1.3c0,0.5-0.2,1-0.5,1.3l0,0
	C145.1,106.9,144.6,107.1,144.1,107.1z M142,117.3c-0.4,0-0.8-0.2-1-0.4l0,0c-0.3-0.3-0.4-0.6-0.4-1c0-0.4,0.2-0.8,0.4-1
	c0.3-0.3,0.6-0.4,1-0.4c0.4,0,0.8,0.2,1,0.4l0,0c0.3,0.3,0.4,0.6,0.4,1c0,0.4-0.2,0.8-0.4,1l0,0l0,0
	C142.8,117.1,142.4,117.3,142,117.3z M149,105.5c-0.4,0-0.8-0.2-1-0.4v0c-0.3-0.3-0.4-0.6-0.4-1c0-0.4,0.2-0.8,0.4-1h0
	c0.3-0.3,0.6-0.4,1-0.4s0.8,0.2,1,0.4h0c0.3,0.3,0.4,0.6,0.4,1c0,0.4-0.2,0.8-0.4,1l0,0C149.7,105.3,149.4,105.5,149,105.5z"/>
<path class="st2" d="M31.8,170.7c0,0.5,0,1-0.1,1.4c-0.1,0.4-0.2,0.9-0.4,1.3l0,0c-0.2,0.4-0.4,0.7-0.7,1.1
	c-0.3,0.3-0.6,0.6-0.9,0.9c-0.3,0.3-0.7,0.5-1.1,0.7c-0.4,0.2-0.8,0.4-1.3,0.5l0,0c-0.5,0.1-1,0.2-1.5,0.3c-0.5,0.1-1,0.1-1.6,0.1
	c-0.3,0-0.6,0-1,0c-0.3,0-0.6-0.1-0.9-0.1c-0.3,0-0.6-0.1-0.8-0.2v0c-0.3-0.1-0.5-0.1-0.7-0.2c-0.2-0.1-0.4-0.1-0.6-0.2l0,0
	c-0.2-0.1-0.4-0.2-0.5-0.2c-0.1-0.1-0.3-0.1-0.4-0.2l0,0c-0.1-0.1-0.2-0.1-0.3-0.2l0,0c-0.1-0.1-0.1-0.1-0.2-0.2
	c0-0.1-0.1-0.1-0.1-0.2l0,0c0-0.1,0-0.1-0.1-0.2v0c0-0.1,0-0.1-0.1-0.2v0c0-0.1,0-0.2-0.1-0.3v0c0-0.1,0-0.2,0-0.3
	c0-0.1,0-0.2,0-0.3c0-0.2,0-0.3,0-0.4c0-0.2,0-0.5,0-0.6c0-0.2,0.1-0.3,0.1-0.5l0,0c0.1-0.1,0.1-0.2,0.2-0.3
	c0.1-0.1,0.2-0.1,0.4-0.1c0.1,0,0.4,0.1,0.6,0.2c0.1,0.1,0.3,0.1,0.4,0.2c0.1,0.1,0.3,0.1,0.5,0.2c0.2,0.1,0.4,0.1,0.6,0.2
	c0.2,0.1,0.4,0.1,0.7,0.2c0.2,0.1,0.5,0.1,0.8,0.1c0.3,0,0.6,0,0.9,0c0.3,0,0.5,0,0.7,0v0c0.2,0,0.4-0.1,0.6-0.1
	c0.2-0.1,0.4-0.1,0.5-0.2c0.2-0.1,0.3-0.2,0.4-0.3c0.1-0.1,0.2-0.2,0.3-0.3c0.1-0.1,0.2-0.3,0.2-0.4l0,0c0.1-0.1,0.1-0.3,0.1-0.5
	c0-0.2,0-0.3,0-0.5c0-0.4-0.1-0.8-0.2-1.1h0c-0.1-0.2-0.2-0.3-0.3-0.4c-0.1-0.1-0.2-0.3-0.4-0.4l0,0c-0.2-0.1-0.3-0.2-0.5-0.3h0
	c-0.2-0.1-0.4-0.2-0.7-0.2h0c-0.2-0.1-0.5-0.1-0.8-0.1c-0.3,0-0.6,0-0.9,0h-1.7c-0.1,0-0.2,0-0.2,0c-0.1,0-0.1,0-0.2-0.1l0,0
	c-0.1,0-0.1-0.1-0.2-0.1c-0.1-0.1-0.1-0.1-0.2-0.2l0,0c0-0.1-0.1-0.2-0.1-0.3h0c0-0.1,0-0.2-0.1-0.3c0-0.1,0-0.2,0-0.4
	c0-0.1,0-0.3,0-0.4c0-0.1,0-0.3,0-0.4c0-0.1,0-0.2,0-0.3v0c0-0.1,0-0.2,0.1-0.3l0,0c0-0.1,0.1-0.2,0.1-0.2c0-0.1,0.1-0.1,0.1-0.2
	l0,0c0.1-0.1,0.1-0.1,0.2-0.1v0c0.1,0,0.1,0,0.2-0.1l0,0c0.1,0,0.1,0,0.2,0h1.7c0.3,0,0.5,0,0.8,0c0.2,0,0.5-0.1,0.7-0.1l0,0
	c0.2-0.1,0.4-0.1,0.6-0.2h0c0.2-0.1,0.3-0.2,0.5-0.3c0.1-0.1,0.2-0.2,0.3-0.4c0.1-0.1,0.2-0.3,0.3-0.4v0c0.1-0.2,0.1-0.3,0.2-0.5
	c0-0.2,0.1-0.4,0.1-0.6c0-0.1,0-0.3,0-0.4c0-0.1-0.1-0.3-0.1-0.4h0c0-0.1-0.1-0.2-0.2-0.4c-0.1-0.1-0.1-0.2-0.2-0.3
	c-0.1-0.1-0.2-0.2-0.3-0.2c-0.1-0.1-0.3-0.1-0.4-0.2l0,0c-0.2-0.1-0.3-0.1-0.5-0.1c-0.2,0-0.4,0-0.6,0c-0.2,0-0.5,0-0.7,0.1
	c-0.2,0-0.4,0.1-0.7,0.2l0,0c-0.2,0.1-0.4,0.1-0.6,0.2c-0.2,0.1-0.4,0.2-0.5,0.3l0,0c-0.2,0.1-0.3,0.2-0.5,0.3
	c-0.2,0.1-0.3,0.2-0.4,0.2h0c-0.1,0.1-0.3,0.2-0.4,0.2v0c-0.1,0.1-0.2,0.1-0.3,0.1c-0.1,0-0.1,0-0.2,0l0,0c-0.1,0-0.1,0-0.2-0.1v0
	c-0.1,0-0.1-0.1-0.2-0.1h0c0-0.1-0.1-0.1-0.1-0.2l0,0c0-0.1,0-0.1-0.1-0.2c0-0.1,0-0.2,0-0.3c0-0.1,0-0.2,0-0.3c0-0.1,0-0.3,0-0.4
	c0-0.2,0-0.5,0-0.6v0c0-0.1,0-0.2,0-0.2h0c0-0.1,0-0.2,0-0.2l0,0c0-0.1,0-0.1,0.1-0.2l0,0c0-0.1,0-0.1,0.1-0.2h0
	c0-0.1,0.1-0.1,0.1-0.2l0,0c0,0,0.1-0.1,0.1-0.2l0,0c0.1-0.1,0.1-0.1,0.3-0.2l0,0c0.1-0.1,0.2-0.2,0.4-0.3c0.2-0.1,0.3-0.2,0.5-0.3
	c0.2-0.1,0.4-0.2,0.7-0.3v0c0.2-0.1,0.5-0.2,0.8-0.3c0.3-0.1,0.6-0.1,0.9-0.2l0,0c0.3-0.1,0.6-0.1,1-0.1c0.3,0,0.7,0,1,0
	c0.5,0,0.9,0,1.3,0.1v0c0.4,0.1,0.8,0.1,1.2,0.3c0.4,0.1,0.7,0.3,1,0.4c0.3,0.2,0.6,0.4,0.9,0.6l0,0c0.3,0.2,0.5,0.5,0.7,0.7
	c0.2,0.3,0.4,0.6,0.5,0.9l0,0c0.1,0.3,0.2,0.7,0.3,1c0.1,0.4,0.1,0.7,0.1,1.1c0,0.3,0,0.6-0.1,0.9c0,0.3-0.1,0.6-0.2,0.8h0
	c-0.1,0.3-0.2,0.5-0.3,0.8c-0.1,0.2-0.2,0.5-0.4,0.7l0,0c-0.2,0.2-0.3,0.4-0.5,0.6c-0.2,0.2-0.4,0.3-0.6,0.5h0
	c-0.2,0.1-0.4,0.2-0.6,0.3l0,0c0.3,0.1,0.6,0.2,0.9,0.3v0c0.3,0.1,0.5,0.3,0.8,0.5l0,0c0.2,0.2,0.5,0.4,0.7,0.6
	c0.2,0.2,0.4,0.4,0.5,0.7c0.1,0.2,0.3,0.5,0.4,0.8l0,0c0.1,0.3,0.2,0.5,0.2,0.8C31.8,170.1,31.8,170.4,31.8,170.7 M47.5,169.9
	c0,0.5,0,1-0.1,1.4c-0.1,0.5-0.2,0.9-0.3,1.3c-0.2,0.4-0.3,0.8-0.6,1.2c-0.2,0.4-0.5,0.7-0.8,1c-0.3,0.3-0.6,0.6-1,0.8
	c-0.4,0.2-0.8,0.5-1.2,0.6c-0.4,0.2-0.9,0.3-1.4,0.4c-0.5,0.1-1,0.1-1.6,0.1c-0.4,0-0.9,0-1.3-0.1c-0.4-0.1-0.8-0.1-1.1-0.2
	c-0.3-0.1-0.7-0.2-1-0.4c-0.3-0.2-0.6-0.3-0.8-0.5c-0.3-0.2-0.5-0.4-0.7-0.7c-0.2-0.2-0.4-0.5-0.6-0.8l0,0c-0.2-0.3-0.3-0.6-0.4-0.9
	v0c-0.1-0.3-0.2-0.6-0.3-1v0c-0.1-0.3-0.2-0.7-0.2-1.1c-0.1-0.4-0.1-0.8-0.1-1.2c0-0.4-0.1-0.8-0.1-1.2c0-0.4,0-0.9,0-1.3
	c0-0.4,0-0.8,0-1.2c0-0.4,0-0.8,0.1-1.2c0-0.4,0.1-0.8,0.2-1.2c0.1-0.4,0.2-0.8,0.3-1.2c0.1-0.4,0.2-0.8,0.4-1.2l0,0
	c0.2-0.4,0.3-0.8,0.5-1.1v0c0.2-0.4,0.4-0.7,0.7-1l0,0c0.3-0.3,0.5-0.6,0.9-0.9h0c0.3-0.3,0.7-0.5,1.1-0.8c0.4-0.2,0.8-0.4,1.2-0.6
	v0c0.9-0.3,1.9-0.5,3.2-0.5c0.2,0,0.4,0,0.6,0c0.2,0,0.4,0,0.6,0.1c0.2,0,0.4,0,0.6,0.1c0.2,0,0.4,0.1,0.5,0.1l0,0
	c0.2,0,0.3,0.1,0.5,0.1v0c0.2,0,0.3,0.1,0.4,0.1c0.1,0,0.2,0.1,0.3,0.1h0c0.1,0,0.2,0.1,0.2,0.1c0,0,0.1,0.1,0.1,0.1l0,0
	c0,0,0.1,0.1,0.1,0.2l0,0c0,0.1,0,0.1,0.1,0.2v0c0,0.1,0,0.1,0,0.2h0c0,0.1,0,0.1,0,0.2v0c0,0.1,0,0.1,0,0.2v0c0,0.1,0,0.1,0,0.2
	c0,0.1,0,0.2,0,0.3c0,0.1,0,0.3,0,0.4c0,0.1,0,0.3,0,0.4v0c0,0.1,0,0.2,0,0.3v0c0,0.1,0,0.2-0.1,0.2c0,0.1-0.1,0.1-0.1,0.2l0,0
	c0,0.1-0.1,0.1-0.2,0.2c-0.1,0-0.1,0.1-0.2,0.1l0,0c-0.1,0-0.1,0-0.2,0c-0.1,0-0.2,0-0.3,0v0c-0.1,0-0.2,0-0.3-0.1h0
	c-0.1,0-0.2-0.1-0.3-0.1h0c-0.1,0-0.2-0.1-0.4-0.1l0,0c-0.1,0-0.3-0.1-0.4-0.1l0,0c-0.2,0-0.3-0.1-0.5-0.1h0c-0.2,0-0.4-0.1-0.6-0.1
	c-0.2,0-0.4,0-0.6,0c-0.4,0-0.7,0-1,0.1c-0.3,0.1-0.6,0.2-0.8,0.3c-0.3,0.1-0.5,0.3-0.7,0.5l0,0c-0.2,0.2-0.4,0.4-0.5,0.6l0,0
	c-0.2,0.2-0.3,0.5-0.4,0.8c-0.1,0.3-0.2,0.6-0.3,0.9c-0.1,0.3-0.1,0.7-0.2,1c0,0.2,0,0.4-0.1,0.6c0.1-0.1,0.2-0.1,0.3-0.2l0,0
	c0.1-0.1,0.3-0.1,0.5-0.2c0.2-0.1,0.3-0.1,0.5-0.2l0,0c0.2-0.1,0.4-0.1,0.5-0.1c0.2,0,0.4-0.1,0.6-0.1c0.2,0,0.4-0.1,0.6-0.1
	c0.2,0,0.4,0,0.7,0c0.5,0,1,0,1.4,0.1c0.4,0.1,0.8,0.2,1.2,0.3c0.4,0.1,0.7,0.3,1,0.5c0.3,0.2,0.6,0.4,0.8,0.7l0,0
	c0.2,0.3,0.4,0.5,0.6,0.9h0c0.2,0.3,0.3,0.7,0.4,1c0.1,0.4,0.2,0.7,0.2,1.2C47.5,169.1,47.5,169.5,47.5,169.9z M43.2,170.3
	c0-0.2,0-0.5,0-0.7c0-0.2-0.1-0.4-0.1-0.6h0c0-0.2-0.1-0.3-0.2-0.5c-0.1-0.1-0.1-0.3-0.2-0.4h0c-0.1-0.1-0.2-0.2-0.3-0.3h0
	c-0.1-0.1-0.2-0.2-0.4-0.2v0c-0.1-0.1-0.3-0.1-0.5-0.1h0c-0.2,0-0.4,0-0.6,0c-0.1,0-0.3,0-0.4,0c-0.1,0-0.3,0-0.4,0.1l0,0
	c-0.1,0-0.2,0-0.4,0.1c-0.1,0-0.2,0.1-0.4,0.1l0,0c-0.1,0-0.2,0.1-0.4,0.1h0c-0.1,0.1-0.2,0.1-0.3,0.2v0c-0.1,0.1-0.2,0.1-0.3,0.2
	l0,0c-0.1,0-0.1,0.1-0.2,0.1c0,0.5,0,0.9,0,1.3c0,0.4,0.1,0.8,0.1,1.2h0c0.1,0.3,0.1,0.6,0.2,0.9c0.1,0.3,0.2,0.5,0.3,0.7l0,0
	c0.1,0.2,0.2,0.3,0.3,0.5l0,0c0.1,0.1,0.3,0.2,0.4,0.3l0,0c0.2,0.1,0.3,0.1,0.5,0.2c0.2,0,0.4,0.1,0.6,0.1c0.2,0,0.4,0,0.6-0.1
	c0.2,0,0.3-0.1,0.5-0.2l0,0c0.1-0.1,0.3-0.2,0.4-0.3c0.1-0.1,0.2-0.2,0.3-0.4l0,0c0.1-0.1,0.2-0.3,0.3-0.4h0
	c0.1-0.2,0.1-0.3,0.2-0.5h0c0.1-0.2,0.1-0.4,0.1-0.6C43.1,170.7,43.2,170.5,43.2,170.3z M62.9,166.7c0,0.8,0,1.5-0.1,2.2
	c-0.1,0.7-0.2,1.4-0.3,2c-0.1,0.6-0.3,1.2-0.5,1.8c-0.2,0.5-0.5,1-0.7,1.5v0c-0.3,0.5-0.6,0.9-1,1.2c-0.4,0.3-0.8,0.6-1.3,0.9l0,0
	c-0.5,0.2-1,0.4-1.6,0.5c-0.6,0.1-1.2,0.2-1.8,0.2c-0.7,0-1.3-0.1-1.9-0.2c-0.6-0.1-1.1-0.3-1.5-0.5c-0.5-0.2-0.9-0.5-1.2-0.9
	c-0.4-0.3-0.7-0.7-0.9-1.2l0,0c-0.5-0.9-0.9-1.9-1.1-3.2c-0.1-0.6-0.2-1.3-0.2-2c-0.1-0.7-0.1-1.4-0.1-2.2c0-0.8,0-1.5,0.1-2.2
	c0.1-0.7,0.2-1.4,0.3-2c0.1-0.6,0.3-1.2,0.5-1.8c0.2-0.5,0.5-1,0.7-1.5c0.3-0.5,0.6-0.9,1-1.2c0.4-0.3,0.8-0.6,1.3-0.9l0,0
	c0.5-0.2,1-0.4,1.6-0.5c0.6-0.1,1.2-0.2,1.8-0.2c0.7,0,1.3,0.1,1.9,0.2c0.6,0.1,1.1,0.3,1.5,0.5c0.5,0.2,0.9,0.5,1.2,0.9
	c0.4,0.3,0.7,0.7,0.9,1.2l0,0c0.3,0.4,0.5,0.9,0.7,1.5c0.2,0.5,0.3,1.1,0.4,1.7c0.1,0.6,0.2,1.3,0.2,2
	C62.9,165.2,62.9,165.9,62.9,166.7z M58.5,166.9c0-0.9,0-1.7-0.1-2.4c0-0.3-0.1-0.7-0.1-1c0-0.3-0.1-0.6-0.1-0.8h0
	c0-0.2-0.1-0.5-0.2-0.7c-0.1-0.2-0.1-0.4-0.2-0.6v0c-0.1-0.2-0.1-0.3-0.2-0.4c-0.1-0.1-0.2-0.2-0.3-0.3l0,0
	c-0.1-0.1-0.2-0.2-0.3-0.2c-0.1-0.1-0.2-0.1-0.3-0.2v0c-0.1,0-0.3-0.1-0.4-0.1c-0.1,0-0.3,0-0.4,0c-0.3,0-0.5,0-0.7,0.1h0
	c-0.2,0.1-0.4,0.2-0.6,0.3l0,0c-0.2,0.1-0.3,0.3-0.4,0.5c-0.1,0.2-0.3,0.4-0.4,0.7l0,0c-0.1,0.3-0.2,0.6-0.3,0.9
	c-0.1,0.3-0.1,0.7-0.2,1.1v0c0,0.4-0.1,0.9-0.1,1.3c0,0.5,0,1,0,1.5c0,0.7,0,1.3,0,1.8c0,0.6,0.1,1.1,0.1,1.5
	c0.1,0.4,0.1,0.8,0.2,1.2c0.1,0.3,0.2,0.6,0.3,0.9l0,0c0.1,0.2,0.2,0.4,0.4,0.6c0.1,0.2,0.3,0.3,0.4,0.4l0,0
	c0.2,0.1,0.3,0.2,0.5,0.2c0.2,0,0.4,0.1,0.7,0.1c0.2,0,0.3,0,0.5,0c0.1,0,0.3-0.1,0.4-0.1l0,0c0.1-0.1,0.2-0.1,0.4-0.2h0
	c0.1-0.1,0.2-0.2,0.3-0.3l0,0c0.1-0.1,0.2-0.2,0.3-0.4c0.1-0.1,0.2-0.3,0.2-0.5l0,0c0.1-0.2,0.1-0.4,0.2-0.6v0
	c0.1-0.2,0.1-0.4,0.2-0.7v0c0-0.2,0.1-0.5,0.1-0.8c0-0.3,0.1-0.6,0.1-0.9c0-0.3,0-0.6,0-1C58.5,167.6,58.5,167.3,58.5,166.9z"/>
<path class="st1" d="M79.5,163c0,0.6,0,1.1-0.1,1.6c-0.1,0.5-0.2,1-0.4,1.4l0,0c-0.2,0.4-0.4,0.8-0.6,1.2c-0.3,0.4-0.6,0.7-0.9,1
	l0,0c-0.3,0.3-0.7,0.6-1.1,0.8c-0.4,0.2-0.9,0.4-1.3,0.6c-0.5,0.2-1,0.3-1.6,0.3v0c-0.6,0.1-1.2,0.1-1.8,0.1h-1.3v5.8
	c0,0.1,0,0.2,0,0.2c0,0.1-0.1,0.1-0.1,0.2l0,0c-0.1,0.1-0.1,0.1-0.2,0.2c-0.1,0-0.1,0.1-0.2,0.1v0c-0.1,0-0.2,0.1-0.3,0.1
	c-0.1,0-0.2,0-0.4,0.1c-0.1,0-0.3,0-0.4,0c-0.2,0-0.4,0-0.5,0c-0.2,0-0.4,0-0.5,0c-0.2,0-0.3,0-0.4,0c-0.1,0-0.2,0-0.3-0.1v0
	c-0.1,0-0.2,0-0.3-0.1l0,0c-0.1,0-0.2-0.1-0.2-0.1l0,0c-0.1-0.1-0.1-0.1-0.2-0.2l0,0c0-0.1-0.1-0.1-0.1-0.2h0c0-0.1,0-0.2,0-0.2
	v-17.2c0-0.3,0-0.5,0.1-0.7c0.1-0.2,0.2-0.4,0.3-0.5c0.1-0.1,0.3-0.3,0.5-0.3v0c0.2-0.1,0.4-0.1,0.6-0.1H72c0.2,0,0.4,0,0.7,0
	c0.2,0,0.4,0,0.6,0c0.2,0,0.4,0,0.7,0.1c0.2,0,0.5,0.1,0.8,0.1l0,0c0.3,0.1,0.6,0.1,0.9,0.3c0.3,0.1,0.6,0.2,0.9,0.4
	c0.3,0.2,0.6,0.3,0.9,0.5c0.3,0.2,0.5,0.4,0.7,0.7c0.2,0.2,0.4,0.5,0.6,0.8c0.2,0.3,0.3,0.6,0.4,0.9l0,0c0.1,0.3,0.2,0.7,0.3,1
	C79.5,162.2,79.5,162.6,79.5,163 M74.9,163.3c0-0.3,0-0.6-0.1-0.9v0c-0.1-0.3-0.1-0.5-0.2-0.7c-0.1-0.2-0.2-0.4-0.4-0.5
	c-0.1-0.1-0.3-0.3-0.4-0.3c-0.2-0.1-0.3-0.2-0.5-0.2c-0.2-0.1-0.3-0.1-0.5-0.1v0c-0.2,0-0.4,0-0.6-0.1c-0.2,0-0.4,0-0.6,0h-1.4v5.9
	h1.5c0.3,0,0.6,0,0.8-0.1c0.2,0,0.5-0.1,0.6-0.2l0,0c0.2-0.1,0.4-0.2,0.5-0.3c0.2-0.1,0.3-0.2,0.4-0.4l0,0c0.1-0.1,0.2-0.3,0.3-0.4
	l0,0c0.1-0.2,0.2-0.3,0.2-0.5h0c0.1-0.2,0.1-0.4,0.1-0.6C74.9,163.7,74.9,163.5,74.9,163.3z M97.3,174.8c0.1,0.2,0.1,0.3,0.1,0.5
	c0,0.2,0.1,0.3,0.1,0.4c0,0.1,0,0.3,0,0.4c0,0.1-0.1,0.2-0.2,0.3l0,0c-0.1,0.1-0.2,0.1-0.3,0.2c-0.1,0-0.3,0.1-0.4,0.1
	c-0.1,0-0.3,0-0.5,0c-0.2,0-0.4,0-0.7,0c-0.2,0-0.4,0-0.7,0c-0.2,0-0.4,0-0.5,0c-0.1,0-0.3,0-0.4,0h0c-0.1,0-0.2,0-0.3-0.1l0,0
	c-0.1,0-0.2-0.1-0.2-0.1c-0.1-0.1-0.2-0.1-0.2-0.2l0,0c0-0.1-0.1-0.1-0.1-0.2c0-0.1-0.1-0.1-0.1-0.2l-1.2-3.6h-6.8l-1.1,3.5h0
	c0,0.1-0.1,0.2-0.1,0.2c0,0.1-0.1,0.1-0.1,0.2c-0.1,0.1-0.1,0.1-0.2,0.2l0,0c-0.1,0-0.2,0.1-0.2,0.1c-0.1,0-0.2,0.1-0.3,0.1v0
	c-0.1,0-0.2,0-0.4,0c-0.1,0-0.3,0-0.5,0c-0.2,0-0.4,0-0.6,0c-0.2,0-0.4,0-0.6,0c-0.2,0-0.3,0-0.5,0h0c-0.2,0-0.3,0-0.4-0.1l0,0
	c-0.1-0.1-0.2-0.1-0.3-0.2c-0.1-0.1-0.1-0.2-0.2-0.3c0-0.1,0-0.2,0-0.4c0-0.1,0-0.2,0.1-0.4c0-0.1,0.1-0.3,0.1-0.5l0,0l5.9-16.9h0
	c0-0.1,0.1-0.2,0.1-0.3l0,0c0-0.1,0.1-0.2,0.1-0.2c0.1-0.1,0.1-0.2,0.2-0.2l0,0c0.1-0.1,0.2-0.1,0.3-0.1l0,0c0.1,0,0.2-0.1,0.4-0.1
	c0.1,0,0.3,0,0.4,0c0.1,0,0.3,0,0.5,0c0.3,0,0.5,0,0.7,0c0.2,0,0.5,0,0.8,0c0.2,0,0.4,0,0.6,0c0.2,0,0.3,0,0.5,0
	c0.1,0,0.3,0,0.4,0.1l0,0c0.1,0,0.2,0.1,0.3,0.1c0.1,0.1,0.2,0.1,0.2,0.2l0,0c0,0.1,0.1,0.2,0.1,0.2h0c0,0.1,0.1,0.2,0.1,0.3h0
	L97.3,174.8L97.3,174.8z M88.2,161.7l-2.3,7h4.6L88.2,161.7z M116.9,174.9c0,0.1,0,0.3,0,0.4v0c0,0.1-0.1,0.2-0.1,0.3l0,0
	c0,0.1-0.1,0.2-0.2,0.3c-0.1,0.1-0.1,0.2-0.2,0.2c-0.2,0.1-0.4,0.2-0.6,0.3l0,0c-0.1,0-0.2,0.1-0.3,0.1c-0.1,0-0.2,0-0.3,0h-1.7
	c-0.2,0-0.3,0-0.5,0c-0.2,0-0.3,0-0.5-0.1l0,0c-0.1,0-0.3-0.1-0.4-0.2c-0.1-0.1-0.3-0.2-0.4-0.3l0,0c-0.1-0.1-0.2-0.2-0.4-0.4
	c-0.1-0.1-0.2-0.3-0.3-0.4h0c-0.1-0.2-0.2-0.3-0.3-0.5c-0.1-0.2-0.2-0.4-0.4-0.7l0,0l-4.7-8.9l0,0c-0.1-0.3-0.3-0.6-0.4-0.8
	c-0.1-0.3-0.3-0.6-0.4-0.9c-0.1-0.1-0.1-0.3-0.2-0.4c0,0.2,0,0.4,0,0.6c0,0.3,0,0.7,0,1.1c0,0.4,0,0.8,0,1.1v10c0,0.1,0,0.1,0,0.2h0
	c0,0.1-0.1,0.1-0.1,0.2l0,0c0,0.1-0.1,0.1-0.2,0.2h0c-0.1,0-0.1,0.1-0.2,0.1l0,0c-0.1,0-0.2,0.1-0.3,0.1c-0.1,0-0.2,0-0.3,0.1h0
	c-0.1,0-0.3,0-0.4,0c-0.2,0-0.3,0-0.5,0c-0.2,0-0.3,0-0.5,0c-0.1,0-0.3,0-0.4,0h0c-0.1,0-0.2,0-0.3-0.1c-0.1,0-0.2-0.1-0.3-0.1v0
	c-0.1,0-0.2-0.1-0.2-0.1c-0.1-0.1-0.1-0.1-0.2-0.2l0,0c0-0.1-0.1-0.1-0.1-0.2v0c0-0.1,0-0.1,0-0.2v-17.2c0-0.5,0.2-1,0.5-1.3
	c0.2-0.1,0.3-0.2,0.5-0.3c0.2-0.1,0.4-0.1,0.6-0.1h2.1c0.2,0,0.4,0,0.5,0c0.2,0,0.3,0,0.5,0.1l0,0c0.1,0,0.3,0.1,0.4,0.1
	c0.1,0.1,0.3,0.1,0.4,0.2c0.1,0.1,0.2,0.2,0.3,0.3l0,0c0.1,0.1,0.2,0.2,0.3,0.4l0,0c0.1,0.1,0.2,0.3,0.3,0.5
	c0.1,0.2,0.2,0.3,0.3,0.5l3.7,7l0,0l0.2,0.4h0c0.2,0.3,0.3,0.6,0.4,0.8c0.1,0.2,0.2,0.4,0.3,0.6c0.1,0.2,0.2,0.4,0.3,0.6l0.3,0.6
	l0,0l0.3,0.5c0-0.3,0-0.5,0-0.8c0-0.4,0-0.7,0-1.1c0-0.5,0-0.8,0-1v-9c0-0.1,0-0.2,0-0.2c0-0.1,0.1-0.1,0.1-0.2l0,0
	c0-0.1,0.1-0.1,0.2-0.2l0,0c0.1,0,0.1-0.1,0.2-0.1l0,0c0.1,0,0.2-0.1,0.3-0.1v0c0.1,0,0.2,0,0.3-0.1c0.1,0,0.3,0,0.4,0
	c0.2,0,0.3,0,0.5,0c0.2,0,0.3,0,0.5,0c0.1,0,0.3,0,0.4,0c0.1,0,0.2,0,0.3,0.1l0,0c0.1,0,0.2,0.1,0.3,0.1l0,0c0.1,0,0.2,0.1,0.2,0.1
	c0.1,0.1,0.1,0.1,0.2,0.2l0,0c0,0.1,0.1,0.1,0.1,0.2l0,0c0,0.1,0,0.1,0,0.2V174.9z M139.4,166.5c0,1.6-0.2,3.1-0.6,4.3
	c-0.2,0.6-0.5,1.2-0.8,1.8l0,0c-0.3,0.5-0.7,1-1.1,1.5c-0.4,0.5-0.9,0.8-1.4,1.2c-0.5,0.3-1,0.6-1.6,0.9h0c-0.6,0.2-1.2,0.4-1.9,0.5
	c-0.7,0.1-1.4,0.2-2.2,0.2c-0.8,0-1.5-0.1-2.1-0.1c-0.7-0.1-1.3-0.3-1.9-0.5c-0.6-0.2-1.1-0.5-1.6-0.8c-0.5-0.3-0.9-0.7-1.3-1.1h0
	c-0.4-0.4-0.7-0.9-1-1.4c-0.3-0.5-0.5-1.1-0.7-1.7c-0.2-0.6-0.3-1.3-0.4-2.1c-0.1-0.7-0.1-1.5-0.1-2.4c0-1.6,0.2-3,0.6-4.3
	c0.2-0.6,0.5-1.2,0.8-1.8c0.3-0.5,0.7-1,1.1-1.5l0,0c0.4-0.4,0.9-0.8,1.4-1.2c0.5-0.3,1-0.6,1.6-0.9c0.6-0.2,1.2-0.4,1.9-0.5
	c0.7-0.1,1.4-0.2,2.2-0.2c1.5,0,2.8,0.2,3.9,0.6h0c0.6,0.2,1.1,0.5,1.6,0.8c0.5,0.3,0.9,0.7,1.3,1.1l0,0c0.4,0.4,0.7,0.9,1,1.4
	c0.3,0.5,0.5,1.1,0.7,1.7v0c0.2,0.6,0.3,1.3,0.4,2C139.3,164.9,139.4,165.7,139.4,166.5z M134.7,166.7c0-0.5,0-1-0.1-1.4
	c0-0.5-0.1-0.9-0.2-1.3c-0.1-0.4-0.2-0.8-0.3-1.1c-0.1-0.3-0.3-0.6-0.5-0.9l0,0c-0.2-0.3-0.4-0.5-0.6-0.7c-0.2-0.2-0.5-0.4-0.8-0.5
	l0,0c-0.3-0.1-0.6-0.3-1-0.3c-0.4-0.1-0.8-0.1-1.2-0.1c-0.5,0-0.9,0-1.2,0.1c-0.4,0.1-0.7,0.2-1,0.4h0c-0.3,0.2-0.6,0.4-0.8,0.6
	c-0.2,0.2-0.5,0.5-0.6,0.8c-0.2,0.3-0.3,0.6-0.5,0.9c-0.1,0.3-0.2,0.7-0.3,1.1l0,0c-0.1,0.4-0.1,0.8-0.2,1.2c0,0.4-0.1,0.8-0.1,1.3
	c0,0.5,0,1,0.1,1.5c0,0.5,0.1,0.9,0.2,1.3c0.1,0.4,0.2,0.8,0.3,1.1c0.1,0.3,0.3,0.6,0.5,0.9c0.2,0.3,0.4,0.5,0.6,0.7
	c0.2,0.2,0.5,0.4,0.8,0.5l0,0c0.3,0.1,0.6,0.3,1,0.3c0.4,0.1,0.8,0.1,1.3,0.1c0.5,0,0.9,0,1.2-0.1c0.4-0.1,0.7-0.2,1-0.4l0,0
	c0.3-0.2,0.6-0.4,0.8-0.6c0.2-0.2,0.5-0.5,0.6-0.8c0.2-0.3,0.3-0.6,0.5-0.9v0c0.1-0.3,0.2-0.7,0.3-1.1c0.1-0.4,0.1-0.8,0.2-1.2
	C134.7,167.6,134.7,167.2,134.7,166.7z M162.7,174.8c0,0.1,0,0.3,0,0.4c0,0.1,0,0.2,0,0.3v0c0,0.1,0,0.2-0.1,0.3
	c0,0.1,0,0.2-0.1,0.2l0,0c0,0.1-0.1,0.1-0.1,0.2l0,0c0,0.1-0.1,0.1-0.2,0.2c-0.1,0-0.1,0.1-0.2,0.1v0c-0.1,0-0.1,0-0.2,0h-9.6
	c-0.2,0-0.4,0-0.5-0.1c-0.2-0.1-0.3-0.1-0.5-0.3c-0.1-0.1-0.3-0.3-0.3-0.5c-0.1-0.2-0.1-0.4-0.1-0.7v-16.7c0-0.5,0.1-0.9,0.4-1.2
	c0.1-0.1,0.3-0.2,0.5-0.3c0.2-0.1,0.3-0.1,0.5-0.1h9.5c0.1,0,0.3,0,0.4,0.1l0,0c0.1,0,0.1,0.1,0.2,0.2l0,0c0,0.1,0.1,0.1,0.1,0.2
	l0,0c0,0.1,0.1,0.2,0.1,0.3c0,0.1,0,0.2,0,0.3c0,0.1,0,0.2,0,0.4c0,0.1,0,0.3,0,0.4c0,0.1,0,0.3,0,0.4c0,0.1,0,0.2,0,0.3v0
	c0,0.1,0,0.2-0.1,0.3c0,0.1,0,0.2-0.1,0.2l0,0c0,0.1-0.1,0.1-0.1,0.2l0,0c0,0.1-0.1,0.1-0.1,0.2l0,0c-0.1,0-0.1,0.1-0.2,0.1h0
	c-0.1,0-0.1,0-0.2,0h-6.5v4.1h5.5c0.1,0,0.1,0,0.2,0l0,0c0.1,0,0.1,0.1,0.2,0.1l0,0c0.1,0,0.1,0.1,0.2,0.2l0,0
	c0,0.1,0.1,0.1,0.1,0.2l0,0c0,0.1,0.1,0.2,0.1,0.2c0,0.1,0,0.2,0.1,0.3c0,0.1,0,0.2,0,0.3c0,0.1,0,0.3,0,0.4c0,0.1,0,0.3,0,0.4
	c0,0.1,0,0.2,0,0.3c0,0.1,0,0.2-0.1,0.3c0,0.1,0,0.2-0.1,0.2l0,0c0,0.1-0.1,0.1-0.1,0.2c0,0.1-0.1,0.1-0.2,0.2
	c-0.1,0-0.1,0.1-0.2,0.1h0c-0.1,0-0.1,0-0.2,0h-5.5v4.8h6.6c0.1,0,0.1,0,0.2,0l0,0c0.1,0,0.1,0.1,0.2,0.1l0,0c0.1,0,0.1,0.1,0.2,0.2
	h0c0,0.1,0.1,0.1,0.1,0.2l0,0c0,0.1,0.1,0.2,0.1,0.2c0,0.1,0,0.2,0.1,0.3c0,0.1,0,0.2,0,0.3C162.7,174.5,162.7,174.6,162.7,174.8z
	 M182.9,169.2c0,0.6,0,1.2-0.1,1.7c-0.1,0.5-0.2,1-0.4,1.5h0c-0.2,0.5-0.4,0.9-0.7,1.3c-0.3,0.4-0.6,0.8-0.9,1.1
	c-0.3,0.3-0.7,0.6-1.2,0.9l0,0c-0.4,0.3-0.9,0.5-1.4,0.6c-0.5,0.2-1.1,0.3-1.6,0.4c-0.6,0.1-1.2,0.1-1.8,0.1c-0.6,0-1.2,0-1.7-0.1
	c-0.6-0.1-1.1-0.2-1.6-0.3h0c-0.5-0.2-1-0.4-1.4-0.6c-0.4-0.2-0.8-0.5-1.2-0.8c-0.3-0.3-0.7-0.7-0.9-1.1c-0.3-0.4-0.5-0.8-0.7-1.3
	c-0.2-0.5-0.3-1-0.4-1.5c-0.1-0.6-0.1-1.1-0.1-1.8v-11.6c0-0.1,0-0.2,0-0.2h0c0-0.1,0.1-0.1,0.1-0.2l0,0c0-0.1,0.1-0.1,0.2-0.2l0,0
	c0.1,0,0.2-0.1,0.2-0.1h0c0.1,0,0.2-0.1,0.3-0.1c0.1,0,0.2,0,0.4-0.1c0.1,0,0.3,0,0.4,0c0.2,0,0.4,0,0.5,0c0.2,0,0.4,0,0.5,0
	c0.2,0,0.3,0,0.4,0v0c0.1,0,0.2,0,0.4,0.1v0c0.1,0,0.2,0,0.3,0.1c0.1,0,0.2,0.1,0.2,0.1h0c0.1,0,0.1,0.1,0.2,0.2l0,0
	c0.1,0.1,0.1,0.1,0.1,0.2l0,0c0,0.1,0,0.2,0,0.2V169c0,0.4,0,0.7,0.1,1c0,0.3,0.1,0.6,0.2,0.9h0c0.1,0.3,0.2,0.5,0.3,0.7h0
	c0.1,0.2,0.3,0.4,0.4,0.6l0,0c0.2,0.2,0.3,0.3,0.5,0.4c0.2,0.1,0.4,0.2,0.6,0.3v0c0.2,0.1,0.5,0.1,0.7,0.2c0.3,0,0.5,0.1,0.8,0.1
	c0.3,0,0.6,0,0.8-0.1c0.3,0,0.5-0.1,0.7-0.2h0c0.2-0.1,0.4-0.2,0.6-0.3c0.2-0.1,0.4-0.3,0.5-0.4l0,0c0.2-0.2,0.3-0.4,0.4-0.6l0,0
	c0.1-0.2,0.2-0.4,0.3-0.7l0,0c0.1-0.2,0.1-0.5,0.2-0.8c0-0.3,0.1-0.6,0.1-0.9v-11.5c0-0.1,0-0.2,0-0.2h0c0-0.1,0.1-0.1,0.1-0.2l0,0
	c0.1-0.1,0.1-0.1,0.2-0.2c0.1,0,0.2-0.1,0.2-0.1c0.1,0,0.2-0.1,0.3-0.1c0.1,0,0.2,0,0.4-0.1c0.1,0,0.3,0,0.4,0c0.2,0,0.3,0,0.5,0
	c0.2,0,0.4,0,0.5,0c0.2,0,0.3,0,0.4,0c0.1,0,0.2,0,0.3,0.1c0.1,0,0.2,0,0.3,0.1l0,0c0.1,0,0.2,0.1,0.2,0.1h0c0.1,0,0.1,0.1,0.2,0.2
	l0,0c0,0.1,0.1,0.1,0.1,0.2h0c0,0.1,0,0.2,0,0.2V169.2z M144.7,171.5c0.8,0,1.4,0.3,2,0.8c0.3,0.3,0.5,0.6,0.6,0.9v0
	c0.1,0.3,0.2,0.7,0.2,1.1c0,0.4-0.1,0.7-0.2,1.1c-0.1,0.3-0.3,0.6-0.6,0.9c-0.3,0.3-0.6,0.5-0.9,0.6l0,0c-0.3,0.1-0.7,0.2-1.1,0.2
	c-0.4,0-0.7-0.1-1.1-0.2l0,0c-0.3-0.1-0.6-0.3-0.9-0.6s-0.5-0.6-0.6-0.9l0,0c-0.1-0.3-0.2-0.7-0.2-1.1c0-0.4,0.1-0.7,0.2-1.1l0,0
	c0.1-0.3,0.3-0.6,0.6-0.9c0.3-0.3,0.6-0.5,0.9-0.6C143.9,171.6,144.3,171.5,144.7,171.5z"/>
</svg>
