<?xml version="1.0" encoding="utf-8"?>
<!-- Generator: Adobe Illustrator 19.0.0, SVG Export Plug-In . SVG Version: 6.00 Build 0)  -->
<svg version="1.1" id="Layer_1" xmlns="http://www.w3.org/2000/svg" xmlns:xlink="http://www.w3.org/1999/xlink" x="0px" y="0px"
	 viewBox="975.1 421.2 585 185.7" style="enable-background:new 975.1 421.2 585 185.7;" xml:space="preserve">
<style type="text/css">
	.st0{fill-rule:evenodd;clip-rule:evenodd;fill:#FFFFFF;stroke:#FFFFFF;stroke-width:2;stroke-miterlimit:10;}
	.st1{fill:#FFFFFF;stroke:#FFFFFF;stroke-width:2;stroke-miterlimit:10;}
</style>
<path class="st0" d="M1110.5,430.4c22.7,0,41.1,18.4,41.1,41.1c0,22.7-18.4,41.1-41.1,41.1c-22.7,0-41.1-18.4-41.1-41.1
	C1069.5,448.8,1087.8,430.4,1110.5,430.4 M1110.5,422.2c27.2,0,49.3,22.1,49.3,49.3c0,20.4-12.4,37.9-30.1,45.4l-88.7,88.7l-2-2
	l84.5-84.5c-4.2,1.1-8.5,1.8-13,1.8c-13.1,0-25-5.1-33.8-13.4l-85,85l-2-2l85-85c-8.3-8.8-13.5-20.7-13.5-33.8
	c0-4.5,0.6-8.8,1.7-12.9L978.5,543l-2-2l88.6-88.6C1072.5,434.7,1090.1,422.2,1110.5,422.2z"/>
<path class="st1" d="M1553.5,515.5c-1.4-0.3-2.2-0.4-2.5-0.4c-1.9,0-3.5,0.5-4.7,1.5c-1.2,1-1.8,2.2-1.8,3.5c0,2.2,1.3,3.4,3.9,3.4
	c1.9,0,3.6-0.9,5.1-2.7V515.5z M1553.8,523.6c-1.6,1.9-3.9,2.9-7,2.9c-1.7,0-3.2-0.6-4.4-1.8c-1.2-1.2-1.8-2.7-1.8-4.5
	c0-2.2,0.9-4,2.8-5.5c1.9-1.5,4.3-2.2,7.3-2.2c0.8,0,1.7,0.2,2.8,0.5c0-3.5-1.6-5.2-4.7-5.2c-2.3,0-4.2,0.6-5.5,1.9l-1.6-3.2
	c0.6-0.5,1.6-1,2.9-1.5c1.3-0.5,2.6-0.7,3.8-0.7c3,0,5.2,0.7,6.7,2.1c1.4,1.4,2.2,3.7,2.2,6.8v7.7c0,1.9,0.6,3.1,1.7,3.8v1.9
	c-1.7,0-2.9-0.2-3.6-0.7C1554.6,525.2,1554.1,524.5,1553.8,523.6z M1536.5,526h-3.8v-9.7h-9.9v9.7h-3.8v-21.5h3.8v8.6h9.9v-8.6h3.8
	V526z M1513.6,526h-3.8v-14.7l-13.4,15.3h-0.9v-22h3.8v14.7l13.4-15.3h0.9V526z M1476.5,509.2v12.5c0.3,0.4,0.8,0.7,1.6,1.1
	c0.7,0.3,1.5,0.5,2.2,0.5c4.7,0,7.1-2.7,7.1-8.1c0-2.8-0.6-4.8-1.7-6c-1.1-1.2-2.9-1.8-5.4-1.8c-0.5,0-1.2,0.2-2,0.6
	C1477.5,508.4,1476.9,508.8,1476.5,509.2z M1476.5,524.9v9.6h-3.8v-29.9h3.8v1.8c1.4-1.5,3.2-2.2,5.2-2.2c3,0,5.4,1,7.1,2.9
	c1.7,1.9,2.5,4.7,2.5,8.3c0,3.3-0.9,6-2.6,8c-1.7,2-4.2,3.1-7.4,3.1c-0.9,0-1.8-0.2-2.9-0.5C1477.5,525.6,1476.8,525.3,1476.5,524.9
	z M1463.2,515.5c-1.4-0.3-2.2-0.4-2.5-0.4c-1.9,0-3.5,0.5-4.7,1.5c-1.2,1-1.8,2.2-1.8,3.5c0,2.2,1.3,3.4,3.9,3.4
	c1.9,0,3.6-0.9,5.1-2.7V515.5z M1463.5,523.6c-1.6,1.9-3.9,2.9-7,2.9c-1.7,0-3.2-0.6-4.4-1.8c-1.2-1.2-1.8-2.7-1.8-4.5
	c0-2.2,0.9-4,2.8-5.5c1.9-1.5,4.3-2.2,7.3-2.2c0.8,0,1.7,0.2,2.8,0.5c0-3.5-1.6-5.2-4.7-5.2c-2.3,0-4.2,0.6-5.5,1.9l-1.6-3.2
	c0.6-0.5,1.6-1,2.9-1.5c1.3-0.5,2.6-0.7,3.8-0.7c3,0,5.2,0.7,6.7,2.1c1.4,1.4,2.2,3.7,2.2,6.8v7.7c0,1.9,0.6,3.1,1.7,3.8v1.9
	c-1.7,0-2.9-0.2-3.6-0.7C1464.3,525.2,1463.8,524.5,1463.5,523.6z M1447.7,507.8h-10V526h-3.8v-21.5h13.8V507.8z M1424.4,515.5
	c-1.4-0.3-2.2-0.4-2.5-0.4c-1.9,0-3.5,0.5-4.7,1.5c-1.2,1-1.8,2.2-1.8,3.5c0,2.2,1.3,3.4,3.9,3.4c1.9,0,3.6-0.9,5.1-2.7V515.5z
	 M1424.7,523.6c-1.6,1.9-3.9,2.9-7,2.9c-1.7,0-3.2-0.6-4.4-1.8c-1.2-1.2-1.8-2.7-1.8-4.5c0-2.2,0.9-4,2.8-5.5
	c1.9-1.5,4.3-2.2,7.3-2.2c0.8,0,1.7,0.2,2.8,0.5c0-3.5-1.6-5.2-4.7-5.2c-2.3,0-4.2,0.6-5.5,1.9l-1.6-3.2c0.6-0.5,1.6-1,2.9-1.5
	c1.3-0.5,2.6-0.7,3.8-0.7c3,0,5.2,0.7,6.7,2.1c1.4,1.4,2.2,3.7,2.2,6.8v7.7c0,1.9,0.6,3.1,1.7,3.8v1.9c-1.7,0-2.9-0.2-3.6-0.7
	C1425.5,525.2,1425,524.5,1424.7,523.6z M1408.9,500.3h-13.1V526h-4v-29.3h17.1V500.3z M1368.4,520.4c0.8,0,1.5,0.3,2.1,0.9
	c0.6,0.6,0.9,1.3,0.9,2.1c0,0.8-0.3,1.5-0.9,2.1c-0.6,0.6-1.3,0.9-2.1,0.9c-0.8,0-1.5-0.3-2.1-0.9c-0.6-0.6-0.9-1.3-0.9-2.1
	c0-0.8,0.3-1.5,0.9-2.1C1366.9,520.7,1367.6,520.4,1368.4,520.4z M1349.4,504l-4.6,12.9h8.7L1349.4,504z M1356.7,526l-2-6.2h-10.9
	l-2.2,6.2h-4.5l11.9-29.7h1.1l11.1,29.7H1356.7z M1316.6,520.4c0.8,0,1.5,0.3,2.1,0.9c0.6,0.6,0.9,1.3,0.9,2.1
	c0,0.8-0.3,1.5-0.9,2.1c-0.6,0.6-1.3,0.9-2.1,0.9c-0.8,0-1.5-0.3-2.1-0.9c-0.6-0.6-0.9-1.3-0.9-2.1c0-0.8,0.3-1.5,0.9-2.1
	C1315.1,520.7,1315.8,520.4,1316.6,520.4z M1296.2,523c2.5,0,4.5-1,5.8-3.1c1.3-2,2-5,2-8.9c0-3.7-0.7-6.6-2-8.5
	c-1.3-1.9-3.2-2.9-5.8-2.9c-2.3,0-4.1,1-5.3,3.1c-1.2,2.1-1.8,4.9-1.8,8.3c0,3.8,0.7,6.7,2,8.8C1292.2,522,1294,523,1296.2,523z
	 M1285.1,508.4c0.5-3.8,1.7-6.8,3.6-9c2-2.2,4.5-3.3,7.5-3.3c3.8,0,6.7,1.4,8.8,4.1c2,2.7,3,6.3,3,10.9c0,3.2-0.5,5.9-1.5,8.2
	c-1,2.3-2.3,4.1-4,5.3c-1.7,1.2-3.8,1.9-6.4,1.9c-3.4,0-6.1-1.3-8-3.9c-2-2.6-3-6.2-3.1-10.8h-4.7V526h-3.9v-29.3h3.9v11.7H1285.1z
	 M1253,520.4c0.8,0,1.5,0.3,2.1,0.9c0.6,0.6,0.9,1.3,0.9,2.1c0,0.8-0.3,1.5-0.9,2.1c-0.6,0.6-1.3,0.9-2.1,0.9
	c-0.8,0-1.5-0.3-2.1-0.9c-0.6-0.6-0.9-1.3-0.9-2.1c0-0.8,0.3-1.5,0.9-2.1C1251.4,520.7,1252.1,520.4,1253,520.4z M1241,526
	l-2.3-12.9l-6.5,13.3h-1l-6.4-13.1l-2.2,12.7h-3.7l4.1-21.8h1l7.9,16l7.8-16h1l4,21.8H1241z M1215.2,526h-3.8v-14.7l-13.4,15.3h-0.9
	v-22h3.8v14.7l13.4-15.3h0.9V526z M1559.1,478.4h-3.8v-14.7l-13.4,15.3h-0.9v-22h3.8v14.7l13.4-15.3h0.9V478.4z M1536.8,478.5
	c-0.4,0-0.8,0.1-1.4,0.1c-2.5,0-3.9-1.3-4.3-3.8c-0.3-2.1-1-3.7-2.2-4.7c-1.1-1-2.8-1.5-4.9-1.5h-0.3v9.8h-3.8V457h3.8v8.6h0.5
	c2,0,3.5-0.4,4.6-1.2c1.1-0.8,1.8-2.1,2.1-3.8c0.4-2.5,1.8-3.7,4.2-3.7c0.5,0,0.9,0,1.3,0.1v3.3c-0.2,0-0.5,0-1,0
	c-0.6,0-1,0.4-1.1,1.2c-0.6,3-2.4,4.9-5.3,5.8c3.1,1.1,5,3.4,5.7,7c0.2,0.8,0.5,1.1,1.1,1.1c0.5,0,0.9,0,1-0.1V478.5z M1514.5,478.4
	h-3.8v-14.7l-13.4,15.3h-0.9v-22h3.8v14.7l13.4-15.3h0.9V478.4z M1492.5,460.2h-6.1v18.2h-3.8v-18.2h-6.2V457h16.1V460.2z
	 M1460.3,475.4c1.5,0.1,3.1,0.1,4.7,0.1c3.2,0,4.8-1.2,4.8-3.5c0-1.1-0.4-2-1.2-2.6c-0.8-0.6-2-0.9-3.6-0.9c-2,0-3.6,0-4.6,0.1
	V475.4z M1460.3,465.7c0.2,0,1.8,0,4.6,0c2.7,0,4.1-1.1,4.1-3.2c0-0.9-0.3-1.6-1-2.1c-0.6-0.5-1.5-0.8-2.7-0.8c-2.2,0-3.9,0.1-5,0.2
	V465.7z M1469.5,466.9c2.7,0.9,4.1,2.7,4.1,5.4c0,1.8-0.7,3.2-2,4.4c-1.4,1.2-3.4,1.7-6.1,1.7h-8.7V457c3-0.2,5.8-0.2,8.4-0.2
	c2.4,0,4.3,0.5,5.6,1.5c1.3,1,2,2.4,2,4.3c0,0.9-0.3,1.8-0.9,2.6C1471.3,465.9,1470.5,466.5,1469.5,466.9z M1447.2,467.9
	c-1.4-0.3-2.2-0.4-2.5-0.4c-1.9,0-3.5,0.5-4.7,1.5c-1.2,1-1.8,2.2-1.8,3.5c0,2.2,1.3,3.4,3.9,3.4c1.9,0,3.6-0.9,5.1-2.7V467.9z
	 M1447.5,476c-1.6,1.9-3.9,2.9-7,2.9c-1.7,0-3.2-0.6-4.4-1.8c-1.2-1.2-1.8-2.7-1.8-4.5c0-2.2,0.9-4,2.8-5.5c1.9-1.5,4.3-2.2,7.3-2.2
	c0.8,0,1.7,0.2,2.8,0.5c0-3.5-1.6-5.2-4.7-5.2c-2.3,0-4.2,0.7-5.5,1.9l-1.6-3.2c0.6-0.5,1.6-1,2.9-1.5c1.3-0.5,2.6-0.7,3.8-0.7
	c3,0,5.2,0.7,6.7,2.1c1.4,1.4,2.2,3.7,2.2,6.8v7.7c0,1.9,0.6,3.1,1.7,3.8v1.9c-1.7,0-2.9-0.2-3.6-0.7
	C1448.3,477.5,1447.8,476.8,1447.5,476z M1430.2,478.4h-3.8v-9.7h-9.9v9.7h-3.8V457h3.8v8.6h9.9V457h3.8V478.4z M1399,475.7
	c1.8,0,3.2-0.7,4.2-2.2c1-1.5,1.5-3.4,1.5-5.9c0-5.3-1.9-8-5.7-8c-1.8,0-3.2,0.7-4.2,2.2c-1,1.4-1.5,3.4-1.5,5.8
	C1393.3,473,1395.2,475.7,1399,475.7z M1399,456.5c3.1,0,5.5,1,7.1,3c1.7,2,2.5,4.7,2.5,8.1c0,3.5-0.9,6.3-2.6,8.2c-1.8,2-4.1,3-7,3
	c-3.1,0-5.4-1-7.2-3c-1.7-2-2.6-4.7-2.6-8.2c0-3.3,0.9-6,2.7-8C1393.8,457.6,1396.1,456.5,1399,456.5z M1383.1,478.4l-2.3-12.9
	l-6.5,13.3h-1l-6.4-13.1l-2.2,12.7h-3.7l4.1-21.8h1l7.9,16l7.8-16h1l4,21.8H1383.1z M1358.5,458.7l-1.8,2.7
	c-0.5-0.4-1.2-0.8-2.1-1.1c-0.9-0.3-1.9-0.5-2.9-0.5c-2.1,0-3.7,0.7-4.9,2.2c-1.2,1.5-1.8,3.5-1.8,6c0,2.4,0.6,4.3,1.8,5.7
	c1.2,1.4,3,2,5.2,2c1.7,0,3.4-0.7,5.2-2l1.5,3.2c-2,1.3-4.5,2-7.6,2c-2.9,0-5.3-1-7.2-3c-1.9-2-2.9-4.6-2.9-7.9c0-3.5,1-6.3,3-8.3
	c2-2,4.7-3.1,8.1-3.1c1.2,0,2.4,0.2,3.7,0.7C1357,457.7,1358,458.2,1358.5,458.7z M1328.6,475.7c1.8,0,3.2-0.7,4.2-2.2
	c1-1.5,1.5-3.4,1.5-5.9c0-5.3-1.9-8-5.7-8c-1.8,0-3.2,0.7-4.2,2.2c-1,1.4-1.5,3.4-1.5,5.8C1322.9,473,1324.8,475.7,1328.6,475.7z
	 M1328.6,456.5c3.1,0,5.5,1,7.1,3s2.5,4.7,2.5,8.1c0,3.5-0.9,6.3-2.6,8.2c-1.8,2-4.1,3-7,3c-3.1,0-5.4-1-7.2-3
	c-1.7-2-2.6-4.7-2.6-8.2c0-3.3,0.9-6,2.7-8C1323.4,457.6,1325.7,456.5,1328.6,456.5z M1316,478.5c-0.4,0-0.8,0.1-1.4,0.1
	c-2.5,0-3.9-1.3-4.3-3.8c-0.3-2.1-1-3.7-2.2-4.7c-1.1-1-2.8-1.5-4.9-1.5h-0.3v9.8h-3.8V457h3.8v8.6h0.5c2,0,3.5-0.4,4.6-1.2
	c1.1-0.8,1.8-2.1,2.1-3.8c0.4-2.5,1.8-3.7,4.2-3.7c0.5,0,0.9,0,1.3,0.1v3.3c-0.2,0-0.5,0-1,0c-0.6,0-1,0.4-1.1,1.2
	c-0.6,3-2.4,4.9-5.3,5.8c3.1,1.1,5,3.4,5.7,7c0.2,0.8,0.5,1.1,1.1,1.1c0.5,0,0.9,0,1-0.1V478.5z M1273.1,475.7c1.8,0,3.1-0.7,4.1-2
	c1-1.3,1.4-3.1,1.4-5.3c0-2.3-0.5-4.1-1.4-5.3c-0.9-1.2-2.3-1.8-4.1-1.8c-1.8,0-3.3,0.7-4.4,2.1c-1.1,1.4-1.7,3.1-1.7,5
	c0,2.1,0.5,3.9,1.6,5.2C1269.8,475,1271.3,475.7,1273.1,475.7z M1266,462.9c0.9-1.5,2-2.7,3.4-3.5c1.3-0.8,2.8-1.2,4.3-1.2
	c2.8,0,5,0.9,6.6,2.7c1.6,1.8,2.4,4.2,2.4,7.2c0,3.2-0.9,5.8-2.6,7.8c-1.7,2-4.1,3-7.1,3c-3.1,0-5.6-1.1-7.3-3.4
	c-1.8-2.3-2.6-5.4-2.6-9.2c0-2.6,0.2-4.9,0.7-6.9c0.5-2,1.1-3.6,2-4.9c0.9-1.3,2-2.3,3.3-3.1c1.4-0.8,3.1-1.4,5.3-1.9l6.9-1.6
	l0.8,3.5c-5,1.1-8.1,1.8-9.2,2.1c-1.2,0.3-2.2,0.8-3.2,1.5c-1,0.7-1.8,1.6-2.3,2.9C1266.7,459,1266.3,460.7,1266,462.9z M1252,481.9
	c-0.5,1.3-1.5,2.5-3.1,3.4c-1.6,0.9-3.3,1.4-5.3,1.4v-3.4c1.6,0,2.9-0.4,4.1-1.1c1.1-0.7,1.7-1.6,1.7-2.7c0-1.3-0.2-2.4-0.6-3.5
	l-7.4-19.1h3.9l6.3,16.6l5.7-16.6h3.8L1252,481.9z M1238.5,478.4h-3.8V460h-5.7c-0.1,3-0.4,5.8-0.9,8.4c-0.5,2.6-1.3,4.7-2.2,6.3
	c-0.9,1.7-2,2.7-3,3.2c-1.1,0.5-2.4,0.7-3.9,0.7v-3.5c2.4,0,4.1-1.9,5.1-5.6c1-3.7,1.5-7.3,1.5-10.6v-2h13.1V478.4z M1216.1,478.5
	c-0.2,0-0.7,0.1-1.5,0.1c-1.7,0-2.9-0.4-3.7-1.3c-0.8-0.9-1.3-2.3-1.7-4.4c-0.5-2.9-1.5-5-3-6.3c-1.5-1.3-3.6-2-6.3-2h-0.2v13.8h-4
	v-29.3h4v12.1h0.4c2.5,0,4.5-0.6,6-1.7c1.5-1.2,2.5-2.8,2.8-5c0.3-2,0.9-3.4,1.6-4.2c0.8-0.9,1.9-1.3,3.5-1.3c0.5,0,1,0,1.4,0.1v3.4
	c-0.1,0-0.4,0-0.8,0c-0.5,0-0.9,0.2-1.2,0.5c-0.3,0.3-0.5,1.1-0.8,2.3c-0.4,1.9-1.2,3.5-2.4,4.9c-1.2,1.4-2.7,2.3-4.6,2.8
	c4,1.4,6.5,4.4,7.3,9c0.3,1.3,0.5,2.2,0.8,2.6c0.3,0.4,0.7,0.6,1.1,0.6c0.3,0,0.6,0,0.9-0.1V478.5z"/>
</svg>
