<?xml version="1.0" encoding="utf-8"?>
<!-- Generator: Adobe Illustrator 19.0.0, SVG Export Plug-In . SVG Version: 6.00 Build 0)  -->
<svg version="1.1" id="Layer_1" xmlns="http://www.w3.org/2000/svg" xmlns:xlink="http://www.w3.org/1999/xlink" x="0px" y="0px"
	 viewBox="0 0 850.4 850.4" style="enable-background:new 0 0 850.4 850.4;" xml:space="preserve">
<style type="text/css">
	.st0{fill-rule:evenodd;clip-rule:evenodd;fill:#204DA1;}
	.st1{fill-rule:evenodd;clip-rule:evenodd;fill:#FFFFFF;}
	.st2{fill:#1F4EA2;}
	.st3{font-family:'ArialMT';}
	.st4{font-size:55.911px;}
	.st5{font-size:55.9101px;}
	.st6{font-size:55.9109px;}
	.st7{font-size:55.9073px;}
	.st8{font-size:55.91px;}
	.st9{font-size:55.9078px;}
	.st10{font-size:55.9094px;}
	.st11{font-size:55.9066px;}
	.st12{font-size:55.9095px;}
	.st13{font-size:55.9106px;}
	.st14{font-size:55.9112px;}
	.st15{fill:none;stroke:#FFFFFF;stroke-width:5.3772;stroke-miterlimit:22.9256;}
	.st16{fill-rule:evenodd;clip-rule:evenodd;fill:#1F4EA2;}
	.st17{fill:#204DA1;}
</style>
<path class="st0" d="M850.4,425.2c0,234.8-190.4,425.2-425.2,425.2C190.4,850.4,0,660,0,425.2C0,190.4,190.4,0,425.2,0
	C660,0,850.4,190.4,850.4,425.2z"/>
<path class="st1" d="M427,118.5c-84.4,0-160.9,34.3-216.3,89.7C155.3,263.6,121,340.1,121,424.4c0,84.4,34.3,160.9,89.7,216.3
	c55.4,55.4,131.9,89.7,216.3,89.7c84.4,0,160.8-34.3,216.3-89.7c55.4-55.4,89.7-131.9,89.7-216.3c0-84.4-34.3-160.9-89.7-216.3
	C587.8,152.7,511.3,118.4,427,118.5L427,118.5z M427,803.3c-208.9,0-378.9-170-378.9-378.9c0-208.9,170-378.9,378.9-378.9
	c208.9,0,378.9,170,378.9,378.9C805.8,633.4,635.9,803.3,427,803.3z"/>
<path class="st1" d="M824.2,424.4h-2c0,109.2-44.2,207.9-115.8,279.5C634.9,775.5,536.1,819.7,427,819.7s-208-44.2-279.5-115.8
	C76,632.4,31.7,533.6,31.7,424.4c0-109.2,44.2-208,115.8-279.5C219,73.4,317.8,29.2,427,29.2c109.2,0,208,44.2,279.5,115.8
	c71.5,71.5,115.8,170.3,115.8,279.5h4C826.2,204,647.5,25.2,427,25.2c-220.5,0-399.2,178.7-399.2,399.2
	c0,220.5,178.7,399.2,399.2,399.2c220.5,0,399.2-178.7,399.2-399.2H824.2z"/>
<path class="st1" d="M654.4,290.2c0,2.6-2.1,4.7-4.7,4.7c-2.6,0-4.7-2.1-4.7-4.7c0-2.6,2.1-4.7,4.7-4.7
	C652.3,285.5,654.4,287.6,654.4,290.2z"/>
<path class="st1" d="M467.7,162.2c0,1.3-1,2.3-2.3,2.3c-1.3,0-2.3-1-2.3-2.3c0-1.3,1-2.3,2.3-2.3C466.7,159.9,467.7,161,467.7,162.2
	z"/>
<path class="st1" d="M367.9,166.9c0,1-0.8,1.8-1.8,1.8c-1,0-1.8-0.8-1.8-1.8c0-1,0.8-1.8,1.8-1.8
	C367.1,165.1,367.9,165.9,367.9,166.9z"/>
<path class="st1" d="M442.2,189.6c0,2.4-1.9,4.3-4.3,4.3c-2.4,0-4.3-1.9-4.3-4.3c0-2.4,1.9-4.3,4.3-4.3
	C440.3,185.3,442.2,187.3,442.2,189.6z"/>
<path class="st1" d="M683.1,376c0,1-0.8,1.8-1.8,1.8c-1,0-1.8-0.8-1.8-1.8c0-1,0.8-1.8,1.8-1.8C682.3,374.2,683.1,375,683.1,376z"/>
<path class="st1" d="M582,338.1c0,1-0.8,1.8-1.8,1.8c-1,0-1.8-0.8-1.8-1.8c0-1,0.8-1.8,1.8-1.8C581.1,336.3,582,337.1,582,338.1z"/>
<path class="st1" d="M574.7,488c0,1-0.8,1.8-1.8,1.8c-1,0-1.8-0.8-1.8-1.8c0-1,0.8-1.8,1.8-1.8C573.9,486.2,574.7,487,574.7,488z"/>
<path class="st1" d="M158.8,364.3c0,1-0.8,1.8-1.8,1.8c-1,0-1.8-0.8-1.8-1.8c0-1,0.8-1.8,1.8-1.8C158,362.5,158.8,363.3,158.8,364.3
	z"/>
<path class="st1" d="M226.9,313.9c0,1-0.8,1.8-1.8,1.8c-1,0-1.8-0.8-1.8-1.8c0-1,0.8-1.8,1.8-1.8C226,312.1,226.9,312.9,226.9,313.9
	z"/>
<path class="st1" d="M521.7,202.3c0,1-0.8,1.8-1.8,1.8c-1,0-1.8-0.8-1.8-1.8c0-1,0.8-1.8,1.8-1.8
	C520.9,200.5,521.7,201.3,521.7,202.3z"/>
<path class="st0" d="M167.6,208.5c0,3.2-2.6,5.7-5.7,5.7c-3.2,0-5.7-2.6-5.7-5.7c0-3.2,2.6-5.7,5.7-5.7
	C165,202.7,167.6,205.3,167.6,208.5z"/>
<text transform="matrix(0.9998 2.170000e-002 -2.170000e-002 0.9998 410.6132 104.9973)" class="st2 st3 st4">Ы</text>
<text transform="matrix(0.9851 0.1721 -0.1721 0.9851 460.17 106.3927)" class="st2 st3 st5">Й</text>
<text transform="matrix(0.9916 -0.1296 0.1296 0.9916 370.5889 110.0684)" class="st2 st3 st6">Н</text>
<text transform="matrix(0.9628 0.2701 -0.2701 0.9628 499.7694 113.4078)" class="st2 st3 st7"> </text>
<text transform="matrix(0.9448 0.3277 -0.3277 0.9448 514.8757 117.0953)" class="st2 st3 st8">П</text>
<text transform="matrix(0.9744 -0.2249 0.2249 0.9744 333.6132 118.4533)" class="st2 st3 st8">Д</text>
<text transform="matrix(0.9494 -0.314 0.314 0.9494 301.7255 129.7239)" class="st2 st3 st9">З</text>
<text transform="matrix(0.8886 0.4587 -0.4587 0.8886 552.8333 130.4059)" class="st2 st3 st10">У</text>
<text transform="matrix(0.8873 -0.4611 0.4611 0.8873 269.7231 146.624)" class="st2 st3 st11">Е</text>
<text transform="matrix(0.8434 0.5373 -0.5373 0.8434 584.4845 146.5625)" class="st2 st3 st10">Т</text>
<text transform="matrix(0.7839 0.6209 -0.6209 0.7839 613.279 164.9791)" class="st2 st3 st12">Ь</text>
<text transform="matrix(0.8408 -0.5414 0.5414 0.8408 238.2019 166.6371)" class="st2 st3 st13">В</text>
<text transform="matrix(0.7867 -0.6174 0.6174 0.7867 211.8872 187.7118)" class="st2 st3 st14">З</text>
<path class="st0" d="M698.2,208.9c0,3.2-2.6,5.7-5.7,5.7c-3.2,0-5.7-2.6-5.7-5.7c0-3.2,2.6-5.7,5.7-5.7
	C695.6,203.1,698.2,205.7,698.2,208.9z"/>
<polygon class="st1" points="497.1,270.2 493.2,271.5 486,250.1 489.9,248.8 "/>
<polygon class="st1" points="561.1,253 557.1,254.4 550,233 553.9,231.7 "/>
<polygon class="st1" points="605.5,273.9 595.5,277.2 582.7,238.8 592.6,235.5 "/>
<rect x="576" y="240.4" transform="matrix(0.9481 -0.318 0.318 0.9481 -52.7185 198.3668)" class="st1" width="10.5" height="40.5"/>
<polygon class="st1" points="588.8,233.9 457.5,277.9 456.4,274.7 587.7,230.7 "/>
<polygon class="st1" points="548.3,257.3 506.2,271.4 502.7,261 544.8,246.9 "/>
<rect x="514.9" y="238.2" transform="matrix(0.9482 -0.3178 0.3178 0.9482 -51.3467 178.1637)" class="st1" width="11.1" height="16.6"/>
<rect x="523.4" y="262.9" transform="matrix(0.948 -0.3182 0.3182 0.948 -59.0449 182.471)" class="st1" width="11.1" height="18.1"/>
<polygon class="st1" points="520.3,239.8 516,241.2 511.5,227.5 515.7,226.1 "/>
<path class="st1" d="M661,603.7c-1.6-2.1-3.4-4-5.3-6.2c4.4-1.5,4.4-1.5,3.8-3.9c-1.3,0.2-2.5,0.4-3.8,0.6c-0.6,1.1-1.5,1.7-2.5,2.3
	c-1.4,0.8-3.3,1-4,2.2c-1.5,2.3-2.7,2-4.4,0.4c-2.9,4.5-7.8,0.2-11,2.9c-1.1-3.4-0.5-4.4,2.2-5.3c0.5-0.2,0.7-1.2,1.1-1.8l-0.4-1
	c-3.2,3.4-5-1.1-8-0.9c0.4,1,0.6,1.5,1,2.3c-1.1-0.3-1.9-0.5-2.5-0.7c-0.2-2,1.1-4.4-1.8-5.7c0.1,0.9,0.1,1.4,0.1,1.3
	c-1.5,0.3-2.8,0.6-4.3,0.9c-0.2-0.4-0.7-1.4-1-2.1c-0.6,0.5-1.3,1-2,1.5c0.5-1.8,1.7-2.9,1.9-4.2c0.4-2.5,0.4-5.1,0.1-7.6
	c-0.2-1.7-1.2-3-3.5-2.1c-0.7,0.3-1.8-0.4-2.7-0.9c-1.2-0.7-2.2-1.6-3.4-2.3c-0.9-0.6-1.9-1-3-1.5c-1.7,0.5-3.7,1.2-4.8,1.5
	c-1.5,1.3-2.3,2.5-3.3,2.7c-1.9,0.4-4,0.3-6,0.3c-2.9,0-5.7,0.8-8.6-0.8c-1.5-0.8-4,0.1-6.1,0.2c-0.2,0.8-0.5,1.6-0.6,2
	c-2.9-0.4-5.6-0.8-8.3-1.1c-1.7-0.2-3.3-0.4-4.9-0.6c-3.4-0.4-6.7-1-10.1-1.2c-2.4-0.1-4-3.9-6.4-1c-0.6,1-1.2,2-1.8,3.1
	c0.6,0.6,1.4,1.3,1.7,1.7c-0.5,1.1-1,2.2-1.2,2.6c1.9,1.5,3.3,2.6,4.8,3.7c-0.2,0.4-0.5,0.7-0.7,1.1c-0.8-0.5-1.5-1.1-2.4-1.4
	c-1.1-0.4-2.6-1.2-3.4-0.8c-1.7,0.8-3.1,2.3-4.6,3.5l0,1.1c3.1,3.1-0.7,3.5-2,4.1c-1.8,0.9-4,1.1-6.1,1.5c1.7,2.7,3.5,5.6,5.3,8.4
	c1.1,1.6,1.6,4.4,0.9,6c-0.3,0.5-0.8,1.2-1.4,1.3c-4.5,1-7.8-0.6-9.7-4.7l-0.5-0.1c-1.6,1.2-1.6,5.2-4.9,2.5
	c-0.1-0.9-0.2-1.5-0.5-1.5c-3.4-0.1-3.8-2.7-4.4-5.2c-0.4-1.9-4.4-4.4-5.6-3.7c-2.5,1.4-2.7,1.2-3.6-1.3c-0.5-1.2-1.5-2.2-2.5-3.7
	c-0.6,1.3-0.8,1.9-0.8,1.8c-2.2-0.7-4.2-1.2-6.1-1.8l0.3,1c-1.3,0.8-2.8,2.6-3.7,2.3c-2.4-0.7-3.5-2.8-2.6-5.3c-2-1.7-3.6-2.3-4.5,1
	c-0.1,0.5-1.1,0.7-2.1,1.2c0.5-1.9,1.1-3.2,1-4.4c-0.2-4.6-3.8-8.3-8.1-12.1c-0.6-0.5-1.2-1.2-1.3-1.9c-0.2-1.2,0-2.4,0-3
	c-1.6-0.1-2.8-0.2-4.5-0.4c-0.2,0.2-0.9,0.8-2,1.6c-0.3-1.3-0.5-2.3-0.8-3.2c-0.8-2.2-4.9-3.9-5.8-2.5c-1.6,2.3-3.6,2.3-6,1.9
	c-2.7-0.5-6-2.1-6.9,2.4c-2.1-0.4-3.9-0.8-6.1-1.3c-0.6,2.1-1.7,4.1-1.7,6.2c0.1,1.9-0.9,2.3-1.9,2c-1.3-0.4-3.6,0.1-3.5-2.6
	c0.1-2.6,0.1-5.1,0.1-8c-4.8,2.4-9.1,4.6-13.5,6.8c1.7,3.3,0.6,5.1-2.4,6c-0.8,0.2-1.5,0.6-2.2,1c-3.2,1.8-3.6,2.6-1.5,5.7
	c1.2,1.8,1.3,3-0.2,4.7c-1.1,1.2-1.2,2.3,1.2,2.9c1.6,0.4,3.1,2.2,4,3.7c0.8,1.3,1,3.2,1,4.8c0,2.8-0.3,5.6-0.4,7.9
	c-1.6-0.3-2.7-0.6-3.9-0.8c0,1.2-0.2,2.4,0.1,3.5c0.4,1.4,1.2,2.6,1.9,4c-0.4,0.2-0.9,0.3-1.3,0.6c-3.2,2.3-6.8,0.6-10.2,1.2
	c-4.5-4.5-6.4,0.2-9,2.5c-1.2,1.1-2.8,1.6-4,2.7c-1.7,1.4-5,0.3-5.5,3.4c-0.3,2.2-1.1,5.2-0.1,6.7c2.7,4.1,1.8,7.4-0.7,10.8l0,1.1
	c1.4,1.9,1.2,3.4-0.6,5.1c-0.9,0.8-1.1,2.8-0.9,4.1c1,5,3,9.7,3.7,14.8c0.3,2.1,1,3.9,0.1,6l0,0.5c0.3-0.5,0.5-0.9,0.5-0.9
	c1.1,3.1,2.3,6.3,3.5,9.6c0.2,1.1-0.1,2.6-0.9,3.6c-3.1,4-2.9,7.5,1,10.5c-0.9,0.3-1.8,0.4-2.5,0.8c-1.1,0.6-2,1.5-3,2.3
	c0.8,0.7,1.5,1.9,2.4,2.2c6,1.9,12.1,3.6,18.1,5.3c1,0.3,2.2,0.2,3.3,0.3l0.3-0.8c-1.3-0.8-2.6-1.6-4.5-2.8c0.8-1.7,1.4-3.7,2.4-5.5
	c2-3.6,4.2-7.1,6.3-10.5c1.2,2.5,1.2,2.5,5,5.2l0.4,1.1c1.1,0.9,2.2,2,3.5,2.4c0.6,0.2,2.2-1.1,2.3-1.7c0.3-3.5,0.3-7,0.4-10.5
	c0-0.8-0.7-1.5-0.6-2.3c0.1-2.4-1.3-2.5-2.9-2c-2.7,0.8-5.4,1.7-7.9,2.6c0-0.6-0.1-1.7-0.2-3.1c1.5-0.4,3.1-0.7,4.6-1.3
	c6-2.4,10.6-0.3,14.7,4.2c1.2,1.3,2.8,4,2.3,4.6c-1.9,2.5,0.3,3.9,0.8,5.8c0.8,2.9,3.2,2.6,5.1,2.6c0.8,0,1.8-1.7,2.5-2.8
	c1.1-1.5,2.1-3,3-4.6c0.8-1.6,1.4-3.4,2.1-5.1c1.5-3.7,2.7-7.5,4.4-11.2c2.1-4.6,4.4-9.2,6.9-13.6c0.5-0.9,2-2,3-1.9
	c5.6,0.2,4.9,1.8,10.5,2.2c1.7,0.1,1.5,1.1,4,1.5c-4.4,4.6-1.2,6.4-1.1,12.8c1.9,0.7,6-1.3,6.4-3c0.6-2.9,1.3-5.8,2-8.7
	c0.4-0.1,0.7-0.3,1.1-0.4c1.5,2.1,2.9,4.2,3.8,5.5c-2,2.8-3.1,5.6-5.1,7c-2,1.4-1.7,3.1-0.9,4c1.4,1.6,3.6,3.6,5.4,3.6
	c3.3-0.1,6.3-1.9,6.9-6.1c0.8,0.9,1.3,1.7,1.6,2.6c1.6,4.5,2.9,9,4.6,13.4c0.8,2.1,2.1,3.4,5,3.6c4.1,0.3,8.4,1.4,12.2,2.9
	c2.9,1.2,5.2,3.1,8.7,2.4c0.9-0.2,2.7,0.7,3.1,1.6l2.2,3.4c51.2-18,92.8-52.3,128.3-91.2c-0.3-0.8-0.7-1.6-1-2.4
	C666.4,610.1,663.5,607,661,603.7z"/>
<polygon class="st1" points="692,472.8 692.6,486.3 704.1,493.4 691.4,498.2 688.2,511.2 679.8,500.7 666.4,501.7 673.8,490.4 
	668.7,477.9 681.7,481.5 "/>
<polygon class="st1" points="275.6,178.7 282.8,193.3 298.9,195.6 287.2,207 290,223 275.6,215.4 261.2,223 263.9,207 252.3,195.6 
	268.4,193.3 "/>
<polygon class="st1" points="347.8,276.6 341.1,273.3 334.6,277 335.7,269.6 330.2,264.6 337.5,263.3 340.6,256.5 344.1,263.1 
	351.5,263.9 346.3,269.3 "/>
<polygon class="st1" points="391.9,331.6 385.9,325.3 377.4,326.6 381.5,319 377.6,311.3 386.1,312.9 392.2,306.8 393.4,315.3 
	401.1,319.3 393.3,323 "/>
<polygon class="st1" points="463.9,355.7 456.6,353.9 450.9,358.9 450.4,351.3 443.8,347.5 450.8,344.7 452.5,337.3 457.3,343.1 
	464.9,342.4 460.9,348.7 "/>
<polygon class="st1" points="529.3,358.9 523.1,354.2 515.8,356.6 518.3,349.2 513.8,343 521.6,343.2 526.2,337 528.3,344.4 
	535.7,346.8 529.3,351.2 "/>
<polygon class="st1" points="614.1,419.5 606.1,413.5 596.6,416.7 599.8,407.2 593.8,399.2 603.8,399.4 609.6,391.2 612.6,400.7 
	622.1,403.7 614,409.4 "/>
<path class="st1" d="M482.3,510.5c73.4,11.6,144.3,38.6,202.6,74.3C651.6,556.2,569.4,509.2,482.3,510.5z"/>
<polygon class="st1" points="463.1,269.3 453.2,272.7 440.3,234.3 450.3,230.9 "/>
<rect x="459" y="227.4" transform="matrix(0.9481 -0.3179 0.3179 0.9481 -54.6406 160.4405)" class="st1" width="10.5" height="40.5"/>
<rect x="474.7" y="274.4" transform="matrix(0.9481 -0.3179 0.3179 0.9481 -68.7534 167.8521)" class="st1" width="10.5" height="40.5"/>
<polygon class="st1" points="478.5,316.5 468.6,319.8 455.7,281.4 465.6,278.1 "/>
<polygon class="st1" points="577.3,231.1 567.3,234.4 554.5,196 564.4,192.7 "/>
<rect x="573.1" y="189.1" transform="matrix(0.9481 -0.318 0.318 0.9481 -36.5531 194.7824)" class="st1" width="10.5" height="40.5"/>
<polygon class="st1" points="544.3,249.8 535.4,252.7 532.4,243.7 541.2,240.7 "/>
<path class="st15" d="M661,603.7c-1.6-2.1-3.4-4-5.3-6.2c4.4-1.5,4.4-1.5,3.8-3.9c-1.3,0.2-2.5,0.4-3.8,0.6
	c-0.6,1.1-1.5,1.7-2.5,2.3c-1.4,0.8-3.3,1-4,2.2c-1.5,2.3-2.7,2-4.4,0.4c-2.9,4.5-7.8,0.2-11,2.9c-1.1-3.4-0.5-4.4,2.2-5.3
	c0.5-0.2,0.7-1.2,1.1-1.8l-0.4-1c-3.2,3.4-5-1.1-8-0.9c0.4,1,0.6,1.5,1,2.3c-1.1-0.3-1.9-0.5-2.5-0.7c-0.2-2,1.1-4.4-1.8-5.7
	c0.1,0.9,0.1,1.4,0.1,1.3c-1.5,0.3-2.8,0.6-4.3,0.9c-0.2-0.4-0.7-1.4-1-2.1c-0.6,0.5-1.3,1-2,1.5c0.5-1.8,1.7-2.9,1.9-4.2
	c0.4-2.5,0.4-5.1,0.1-7.6c-0.2-1.7-1.2-3-3.5-2.1c-0.7,0.3-1.8-0.4-2.7-0.9c-1.2-0.7-2.2-1.6-3.4-2.3c-0.9-0.6-1.9-1-3-1.5
	c-1.7,0.5-3.7,1.2-4.8,1.5c-1.5,1.3-2.3,2.5-3.3,2.7c-1.9,0.4-4,0.3-6,0.3c-2.9,0-5.7,0.8-8.6-0.8c-1.5-0.8-4,0.1-6.1,0.2
	c-0.2,0.8-0.5,1.6-0.6,2c-2.9-0.4-5.6-0.8-8.3-1.1c-1.7-0.2-3.3-0.4-4.9-0.6c-3.4-0.4-6.7-1-10.1-1.2c-2.4-0.1-4-3.9-6.4-1
	c-0.6,1-1.2,2-1.8,3.1c0.6,0.6,1.4,1.3,1.7,1.7c-0.5,1.1-1,2.2-1.2,2.6c1.9,1.5,3.3,2.6,4.8,3.7c-0.2,0.4-0.5,0.7-0.7,1.1
	c-0.8-0.5-1.5-1.1-2.4-1.4c-1.1-0.4-2.6-1.2-3.4-0.8c-1.7,0.8-3.1,2.3-4.6,3.5l0,1.1c3.1,3.1-0.7,3.5-2,4.1c-1.8,0.9-4,1.1-6.1,1.5
	c1.7,2.7,3.5,5.6,5.3,8.4c1.1,1.6,1.6,4.4,0.9,6c-0.3,0.5-0.8,1.2-1.4,1.3c-4.5,1-7.8-0.6-9.7-4.7l-0.5-0.1
	c-1.6,1.2-1.6,5.2-4.9,2.5c-0.1-0.9-0.2-1.5-0.5-1.5c-3.4-0.1-3.8-2.7-4.4-5.2c-0.4-1.9-4.4-4.4-5.6-3.7c-2.5,1.4-2.7,1.2-3.6-1.3
	c-0.5-1.2-1.5-2.2-2.5-3.7c-0.6,1.3-0.8,1.9-0.8,1.8c-2.2-0.7-4.2-1.2-6.1-1.8l0.3,1c-1.3,0.8-2.8,2.6-3.7,2.3
	c-2.4-0.7-3.5-2.8-2.6-5.3c-2-1.7-3.6-2.3-4.5,1c-0.1,0.5-1.1,0.7-2.1,1.2c0.5-1.9,1.1-3.2,1-4.4c-0.2-4.6-3.8-8.3-8.1-12.1
	c-0.6-0.5-1.2-1.2-1.3-1.9c-0.2-1.2,0-2.4,0-3c-1.6-0.1-2.8-0.2-4.5-0.4c-0.2,0.2-0.9,0.8-2,1.6c-0.3-1.3-0.5-2.3-0.8-3.2
	c-0.8-2.2-4.9-3.9-5.8-2.5c-1.6,2.3-3.6,2.3-6,1.9c-2.7-0.5-6-2.1-6.9,2.4c-2.1-0.4-3.9-0.8-6.1-1.3c-0.6,2.1-1.7,4.1-1.7,6.2
	c0.1,1.9-0.9,2.3-1.9,2c-1.3-0.4-3.6,0.1-3.5-2.6c0.1-2.6,0.1-5.1,0.1-8c-4.8,2.4-9.1,4.6-13.5,6.8c1.7,3.3,0.6,5.1-2.4,6
	c-0.8,0.2-1.5,0.6-2.2,1c-3.2,1.8-3.6,2.6-1.5,5.7c1.2,1.8,1.3,3-0.2,4.7c-1.1,1.2-1.2,2.3,1.2,2.8c1.6,0.4,3.1,2.2,4,3.7
	c0.8,1.3,1,3.2,1,4.8c0,2.8-0.3,5.6-0.4,7.9c-1.6-0.3-2.7-0.6-3.9-0.8c0,1.2-0.2,2.4,0.1,3.5c0.4,1.4,1.2,2.6,1.9,4
	c-0.4,0.2-0.9,0.3-1.3,0.6c-3.2,2.3-6.8,0.6-10.2,1.2c-4.5-4.5-6.4,0.2-9,2.5c-1.2,1.1-2.8,1.6-4,2.7c-1.7,1.4-5,0.3-5.5,3.4
	c-0.3,2.2-1.1,5.2-0.1,6.7c2.7,4.1,1.8,7.4-0.7,10.8l0,1.1c1.4,1.9,1.2,3.4-0.6,5.1c-0.9,0.8-1.1,2.8-0.9,4.1c1,5,3,9.7,3.7,14.8
	c0.3,2.1,1,3.9,0.1,6l0,0.5c0.3-0.5,0.5-0.9,0.5-0.9c1.1,3.1,2.3,6.3,3.5,9.6c0.2,1.1-0.1,2.6-0.9,3.6c-3.1,4-2.9,7.5,1,10.5
	c-0.9,0.3-1.8,0.4-2.5,0.8c-1.1,0.6-2,1.5-3,2.3c0.8,0.7,1.5,1.9,2.4,2.2c6,1.9,12.1,3.6,18.1,5.3c1,0.3,2.2,0.2,3.3,0.3l0.3-0.8
	c-1.3-0.8-2.6-1.6-4.5-2.8c0.8-1.7,1.4-3.7,2.4-5.5c2-3.6,4.2-7.1,6.3-10.5c1.2,2.5,1.2,2.5,5,5.2l0.4,1.1c1.1,0.9,2.2,2,3.5,2.4
	c0.6,0.2,2.2-1.1,2.3-1.7c0.3-3.5,0.3-7,0.4-10.5c0-0.8-0.7-1.5-0.6-2.3c0.1-2.4-1.3-2.5-2.9-2c-2.7,0.8-5.4,1.7-7.9,2.6
	c0-0.6-0.1-1.7-0.2-3.1c1.5-0.4,3.1-0.7,4.6-1.3c6-2.4,10.6-0.3,14.7,4.2c1.2,1.3,2.8,4,2.3,4.6c-1.9,2.5,0.3,3.9,0.8,5.8
	c0.8,2.9,3.2,2.6,5.1,2.6c0.8,0,1.8-1.7,2.5-2.8c1.1-1.5,2.1-3,3-4.6c0.8-1.6,1.4-3.4,2.1-5.1c1.5-3.7,2.7-7.5,4.4-11.2
	c2.1-4.6,4.4-9.2,6.9-13.6c0.5-0.9,2-2,3-1.9c5.6,0.2,4.9,1.8,10.5,2.2c1.7,0.1,1.5,1.1,4,1.5c-4.4,4.6-1.2,6.4-1.1,12.8
	c1.9,0.7,6-1.3,6.4-3c0.6-2.9,1.3-5.8,2-8.7c0.4-0.1,0.7-0.3,1.1-0.4c1.5,2.1,2.9,4.2,3.8,5.5c-2,2.9-3.1,5.6-5.1,7
	c-2,1.4-1.7,3.1-0.9,4c1.4,1.6,3.6,3.6,5.4,3.6c3.3-0.1,6.3-1.9,6.9-6.1c0.8,0.9,1.3,1.7,1.6,2.6c1.6,4.5,2.9,9,4.6,13.4
	c0.8,2.1,2.1,3.4,5,3.6c4.1,0.3,8.4,1.4,12.2,2.9c2.9,1.2,5.2,3.1,8.7,2.4c0.9-0.2,2.7,0.7,3.1,1.6l2.2,3.4
	c51.2-18,92.8-52.3,128.3-91.2c-0.3-0.8-0.7-1.6-1-2.4C666.4,610.1,663.5,607,661,603.7z"/>
<polygon class="st16" points="517.3,642.9 519.8,648.1 525.6,648.9 521.4,653 522.4,658.7 517.3,656 512.1,658.7 513.1,653 
	509,648.9 514.7,648.1 "/>
<path class="st1" d="M107.2,446.8c0,0,29.5,110.8,59.6,144.5c4.8,5.4,9.6,4.3,14.2,5.3c47.4,10,102.7,15.4,149.6-0.4
	c1.3-0.4,2.6-2,3.8-1.3c17.2,11.1,50,6.5,62.3-18.1c2.8-5.6,9.3-5.6,14.2-11.6c9-10.9,96.7-93.8,109.7-86.1c6.8,4.1,14.7,2,20.3-1.3
	c13.1-7.7,10.4-27.3,10.4-27.3s11.5-5.5,13.3-12.3c3.4-12.7,5.2-10.8-8.2-21.5c-15.8-12.6-70.8-10.7-70.8-10.7s-21.6,2.6-16.2-0.1
	c1.8-0.9,4.4-0.7,7-2c5.2-2.6,10.1-6.7,7.1-7.6c-1.5-0.5-1.4-2.7-4.6-3.2c-6-1.1-19.5-0.9-19.5-0.9l-7.9,3.9
	c-2.3,1.2-4.2-1.8-6.5-2.9c-65-30.8-198.5-28.8-275.7,20.6C149.3,426.3,107.2,446.8,107.2,446.8z M325.7,524.5
	c5.2,5.1,10.2,10.4,15.7,16c-2.3-10.2-7.9-18.2-15.2-26.5C326.1,518.1,322.1,520.9,325.7,524.5z M345.2,544.3
	c0.2,1.3,1.5,2.5,2.3,3.8c0.8-1,2.1-1.9,2.3-2.9c0.1-1.2-0.8-2.5-1.8-5C346.4,542.4,345,543.5,345.2,544.3z M396.6,527.7
	c-0.9-4.4-1.8-8-3.7-12.8c-2.8-7.1-5.7-10.4-10.1-14.1c-2.4-2-6.1-5.3-16.7-5.5c-2,7.5-3.5,14.8-6,21.8c-2.5,7.1-5.9,13.8-9,20.9
	c15-9.5,15.8-24,20.8-38.1c13.6,6.7,23,26.4,20.7,41.2c-12,1.3-24,2.5-36.1,3.8c0,0.4,0,0.9,0,1.3c12,0.3,24,0.5,36.1,0.8
	c-1.1,15.6-8.1,30.8-19.1,35.8c-6.1-10.5-10.8-22-22-30c5.9,11.5,11.5,22.5,17.1,33.3c-10.9,6.6-24.8,4.3-35.2-5.1
	c-2.5-2.2-2.9-3.9-1.2-6.9c3.8-7,7-14.4,10.4-21.6c-0.4-0.2-0.9-0.4-1.3-0.6c-4.6,6.3-9.3,12.6-13.8,19c-0.5,0.7-0.4,2-0.1,2.9
	c6.6,19.5,36.6,26.4,51.7,11.8C396,569.4,401,549.7,396.6,527.7z M517,447.4c2.3,2.3,4.6,4.7,7,7.2c-1-4.6-3.6-8.1-6.8-11.9
	C517.2,444.6,515.4,445.8,517,447.4z M477.7,397.1c-2.5,1.7-4.5,2.9-8.1,5.4c2.6-0.6,5.9-1.2,7.8-1.7c0,0,3.7-2.7,4.4-4
	c-1.2-0.7-2.4-1.8-3.6-2c-5.1-0.4-10.3-0.9-15.4-0.7c-2.6,0.1-5.2,1.8-8.3,2.9c3.5-0.6,8.5-1.5,8.5-1.5S471.3,396.3,477.7,397.1z
	 M531.3,425.8c1.5,0.1,3,0.4,5.1,0.7c-6.9-3.4-14.6-2.5-19.9,2.2c-4.7,4.2-7.2,9.7-8.9,15.7c-2.8,10-3.1,20.3-2.8,30.6
	c0,1.3-0.4,1.8-1.5,2.4c-8.4,4.3-17.1,8.2-25.3,13.1c-17.7,10.6-34,23.1-49.4,36.9c-4.8,4.3-10.6,9.6-15.3,14
	c-0.1-0.3-0.1-9.9-4.9-26.9c-2.2-7.8-6-14.8-12.3-20.1c-11.3-8.9-22.8-8-22.8-8s1.9,0.4,2.9,0.6c6.5,1.3,12.3,3.8,17.2,8.3
	c7.5,6.8,10.7,15.6,12.3,25.2c1.8,11.3,0.9,22.6-1.2,33.8c-0.9,4.9-2.1,9.7-3.2,14.8c30.8-37,67.5-66.7,108.3-91.1
	c-0.3-3.9-0.8-7.5-0.8-11.1c0-3.7,0.1-7.4,0.5-11.1c0.8-7.3,2.2-14.5,5.9-21C518.8,428.6,524.1,425.4,531.3,425.8z M488.4,450.6
	c-1.4,2.7-4.5,5.9-7.3,7c-6.9,2.7-58,20.2-78.4,26.9c0.1,0.1,0.1,0.1,0.2,0.2c28.9-8,54-15.6,82.2-23.6c4.5-1.7,7.8-3.2,9.8-7.2
	c4.5-9,8.8-18,13-27.2c1.8-3.9,0.2-6.2-4.2-6.4c-4.2-0.2-8.5-0.2-12.7-0.1c-28.7,1.1-57.2,4.1-85.4,8.9
	c-30.3,5.1-60.4,11.6-90.5,17.4c-0.5,0.1-1,0.4-1.5,0.6c10.1-1.5,20-3.4,30-5.1c19-3.2,37.9-7.1,57-9.3c26.1-3,52.3-4.7,78.5-6.8
	c5.3-0.4,10.7-0.3,16.1-0.2c1.9,0,4,0.4,2.8,3.3C494.8,436.3,492,443.7,488.4,450.6z M532.3,410.8c-20.3-3.6-43.7-2.8-64.2-1.7
	c-28.7,1.7-57.3,3.8-86,5.4c-21.6,1.2-43.1,1.5-64.3-3.7c-1.9-0.5-3.7-1.1-5.5-1.6c0.1-0.5,0.1-1,0.2-1.6
	c43.6-17.5,87.8-20,132.7-3.7c-14.1-6.9-28.7-11.6-44.2-13.4c-20.7-2.3-41.3-1.2-61.4,3.9c-11.5,2.9-22.5,7.5-33.7,11.6
	c-1.2,0.4-2.9,2.3-2.8,3.1c0.2,1.3,1.8,2.9,3.1,3.3c3.4,1.2,6.9,1.9,10.4,2.6c22.5,4.3,45.3,3.8,68,2.7c34.4-1.6,68.8-3.4,103.2-4.7
	c18.3-0.7,66.3-1.9,76,16.5C559.7,416.4,544.5,412.9,532.3,410.8z M525.7,456.3c0.1,0.6,0.7,1.1,1,1.7c0.4-0.4,1-0.8,1-1.3
	c0.1-0.5-0.4-1.1-0.8-2.2C526.3,455.4,525.7,455.9,525.7,456.3z M547.1,443.1c-1.3-3.2-2.6-4.7-4.5-6.3c-1.1-0.9-2.7-2.4-7.5-2.5
	c-0.9,3.4-1.6,6.6-2.7,9.8c-1.1,3.2-2.6,6.2-4,9.4c6.7-4.2,7.1-10.8,9.3-17.1c6.1,3,10.3,11.8,9.3,18.5c-5.3,0.6-10.7,1.1-16.2,1.7
	c0,0.2,0,0.4,0,0.6c5.4,0.1,10.8,0.2,16.1,0.3c-0.5,7-3.6,13.8-8.5,16c-2.7-4.7-4.8-9.8-9.8-13.4c2.6,5.2,5.2,10.1,7.7,14.9
	c-4.9,2.9-11.1,1.9-15.7-2.3c-1.1-1-1.3-1.7-0.5-3.1c1.7-3.1,3.1-6.4,4.6-9.6c-0.2-0.1-0.4-0.2-0.6-0.3c-2.1,2.8-4.2,5.6-6.2,8.5
	c-0.2,0.3-0.2,0.9,0,1.3c2.9,8.7,16.4,11.8,23.1,5.3c7.6-7.3,9.8-16.1,7.8-26C548.4,446.9,548,445.2,547.1,443.1z M262.9,470.6
	c-16.1-11.2-33.6-16-51.9-15c-31.4,1.7-62.9,3.8-94.3,5.8c0.7,2.3,1.4,4.7,2.1,7.1c26.1-1.8,52.2-3.3,78.3-4.4
	c14-0.6,28.2,1.1,42.3,2.7c4.6,0.5,8.9,4.2,13.4,6.5c-0.1,1-0.3,2-0.4,3c-2,0.5-3.9,1.3-5.9,1.4c-19.6,1.2-39.3,2.2-58.8,3.6
	c4.5-5,10.7-6.7,17.1-7.3c6.3-0.6,12.6-0.3,18.9-0.5c4.9-0.2,9.7-0.5,14.6-0.7c0-0.2,0-0.4,0-0.6c-0.3-0.1-0.7-0.1-1.1-0.1
	c-3-0.2-6.1-0.2-9.1-0.5c-12-1.3-23.9-1.1-35.7,2.2c-5.6,1.5-10,3.4-12.9,7.6c-5.9-0.5-11.3-2.5-16.2-8c3.6,7.4,7,15,15.4,14.6
	c27.7-1.3,55.3-2.5,83-4c3.3-0.2,6.5-1.9,9.7-2.9C268.5,477.5,266.2,472.9,262.9,470.6z M297.5,482.4c-9.7,6.8-19.3,13.9-29.2,20.5
	c-16.2,10.8-34.4,15-53.5,15.5c-10.3,0.3-20.5-0.3-30.8-0.2c-13.9,0.1-27.7,0.4-41.6,0.8c-2.1,0.1-4.1,0.1-6.2,0.2
	c0.5,1.2,1,2.4,1.6,3.6c7.2,0.3,14.4,0.6,21.5,0.9c20.3,0.9,40.6,1.7,60.9,0.8c11.4-0.5,22.4-2.7,32.8-7.4
	c7.8-3.5,14.9-8.1,21.4-13.7c7.9-6.8,15.6-14,23.4-21C297.7,482.5,297.6,482.4,297.5,482.4z M453,400.6c-37.8-16.9-77.8-26-120-24.8
	c-64.4,1.8-124.9,17.9-179.8,51.1c-13.1,7.9-26.3,15.6-40.4,21.5c0.3,1.3,0.7,2.7,1.1,4c15-3.7,30.1-10.1,42.7-17.9
	c47-29.3,98.1-46.9,154-52.3c41.7-4,82-0.2,121.2,12.7c8.3,2.7,16.5,5.6,24.7,8.4C455.5,401.9,454.3,401.2,453,400.6z M479.2,440.8
	c-4.8,3-9.5,6.3-14.5,8.8c-13.3,6.6-27.7,8.7-42.4,9.6c-15,0.9-30.1,1.3-45.1,2.2c-15.1,0.9-29.7,3.9-43.4,10.6
	c-17.5,8.5-29.6,21.9-35.6,40.4c-6.4,19.5-5.4,39.1,0.1,58.6c1.4,5,3.5,9.9,5.4,15.3c-3.5,0.6-7.1,1.4-10.8,1.6
	c-7.2,0.5-14.5,0.9-21.7,0.8c-16.2-0.3-32.4-0.8-48.6-1.8c-10.1-0.6-31.7-1.7-48.2-2.8c2.1,3,4.1,5.8,6,8.4
	c18.6,2.3,39.9,4.3,52.2,5.5c15.1,1.4,31.4,2.3,46.5,1.8c10.8-0.3,21.6-1.1,32.2-3.5c2.9-0.7,5.8-1.5,8.8-2.3
	c-4.3-8.5-7.2-17.3-9.5-26.2c-3-11.9-4.7-23.9-4.5-36.2c0.3-18.1,7.5-33,20.3-45.4c10.9-10.5,24.4-15.6,39-18.2
	c15.6-2.7,31.5-2.6,47.3-3.6c11.5-0.7,22.9-1.7,34.1-4.8c10.4-2.9,19.8-7.4,28.1-14.3c2-1.7,3.9-3.6,5.9-5.4
	C480.1,440.1,479.7,440.5,479.2,440.8z"/>
<path class="st17" d="M82.5,424.4c0-30.2,3.9-59.6,11.2-87.5c7.6-28.8,18.8-56.2,33.1-81.6l4.4,2.5c-14.1,25-25.1,51.9-32.6,80.4
	c-7.2,27.5-11,56.4-11,86.2H82.5z"/>
<path class="st17" d="M566.9,739.3c-8,3.6-16.1,6.8-24.4,9.8c-8.2,2.9-16.6,5.5-25,7.8l-1.3-4.9c8.4-2.3,16.6-4.9,24.7-7.7
	c8.2-2.9,16.2-6.1,24-9.6L566.9,739.3z"/>
<path class="st17" d="M728,256.8c14.1,25.2,25.1,52.3,32.5,80.9c7.2,27.7,11,56.8,11,86.7h-5.1c0-29.5-3.8-58.2-10.8-85.5
	c-7.3-28.2-18.1-54.9-32-79.7L728,256.8z"/>
<path class="st2" d="M761.5,503.3l2.3-10.1c0.8-3.3,0.7-5.8-0.2-7.5c-0.9-1.7-2.5-2.8-4.8-3.3c-1.6-0.4-3.1-0.3-4.5,0.3
	c-1.4,0.6-2.4,1.5-3.1,2.7c-0.4,0.8-0.9,2.4-1.5,4.7l-2.3,10L761.5,503.3z M780.8,513.2l-39-9l3.4-14.7c0.6-2.6,1.2-4.5,1.7-5.9
	c0.8-1.8,1.7-3.3,2.9-4.4c1.2-1.1,2.7-1.8,4.5-2.3c1.8-0.4,3.7-0.4,5.6,0.1c3.3,0.8,5.9,2.5,7.7,5.1c1.8,2.6,2.1,6.7,0.8,12.2
	l-2.3,10l15.9,3.7L780.8,513.2z M730.5,540.7l1.7-5.1l27.5-4.7l-19.8-18.6l1.6-5l24.9,24c3.1,3,5,5.3,5.8,6.8
	c0.8,1.5,0.8,3.3,0.1,5.5c-0.4,1.3-1.3,2.8-2.5,4.5l-4.3-1.4c1.2-1.1,2.1-2.4,2.6-3.9c0.4-1.2,0.4-2.4-0.1-3.6
	c-0.5-1.1-2-2.7-4.4-4.7L730.5,540.7z M753.2,588.5l-36.5-16.4l2.2-4.8l15,6.8l8.5-18.9l-15-6.8l2.2-4.8L766,560l-2.2,4.8l-17.2-7.7
	l-8.5,18.9l17.2,7.7L753.2,588.5z M715.5,615.5c4.2,2.4,8.1,3.2,11.8,2.3c3.7-0.9,6.5-3,8.5-6.4c2-3.5,2.4-7,1.3-10.6
	c-1.1-3.6-3.9-6.7-8.4-9.3c-2.8-1.6-5.6-2.6-8.2-2.8c-2.6-0.3-5.1,0.2-7.3,1.4c-2.2,1.2-4,2.9-5.3,5.2c-1.9,3.2-2.4,6.7-1.5,10.3
	C707.3,609.2,710.3,612.5,715.5,615.5z M712.7,620.2c-5.7-3.3-9.4-7.5-10.8-12.4c-1.5-5-0.8-9.9,2-14.8c1.8-3.2,4.3-5.6,7.3-7.3
	c3-1.7,6.3-2.4,9.8-2.2c3.5,0.2,7,1.3,10.5,3.3c3.5,2,6.3,4.5,8.2,7.6c2,3,2.9,6.2,2.8,9.7c-0.1,3.4-1,6.7-2.7,9.7
	c-1.9,3.3-4.4,5.7-7.4,7.4c-3.1,1.7-6.3,2.4-9.8,2.1C719,623,715.8,622,712.7,620.2z M677.7,630.9l3.3-4.2l13.8,10.8
	c1.5-1.9,2.2-3.5,2-4.9c-0.1-1.4-1.1-3.7-3-7.1c-1.4-2.5-2.3-4.4-2.7-5.6c-0.4-1.2-0.5-2.6-0.3-4.1c0.2-1.5,0.8-2.9,1.8-4.1
	c1.3-1.6,1.9-2.4,2-2.5l3.6,2.8c-0.1,0.1-0.3,0.4-0.7,0.8c-0.4,0.5-0.6,0.7-0.7,0.8c-1,1.3-1.5,2.6-1.3,3.7c0.1,1.2,0.9,3,2.4,5.5
	c1.8,3.1,2.8,5.4,3,6.6c0.1,1.3,0,2.6-0.4,3.9c2.1-1.6,5.6-2.1,10.4-1.6l15.6,1.7l-4,5.2l-12.7-1.4c-3.5-0.4-6.1-0.5-7.7-0.2
	c-1.7,0.3-3.1,1.2-4.3,2.7l14.8,11.5l-3.3,4.2L677.7,630.9z M658.5,638.2l2.3-2.4c1.5,1.8,2.2,3.6,2.1,5.5c-0.1,1.9-0.9,3.6-2.5,5.3
	c-1.6,1.7-3.3,2.6-5.2,2.8c-1.8,0.2-3.7-0.5-5.6-1.9l2.3-2.4c1.1,0.7,2.1,1,3.1,0.8c1-0.1,1.9-0.6,2.8-1.6c1-1.1,1.6-2.1,1.7-3
	C659.6,640.3,659.3,639.3,658.5,638.2z M651.7,659.3l3.3-3.5l22.9,21.9l-8.2-37.3l3.6-3.8l28.9,27.7l-3.3,3.5l-22.9-21.8l8.2,37.2
	l-3.7,3.8L651.7,659.3z M645.4,696l10.3-8.9l-10.4-5.7c-3.2-1.7-5.7-3.2-7.6-4.5c1.3,2.3,2.4,4.8,3.4,7.3L645.4,696z M647.4,715.9
	l-14.5-40.3l4.4-3.8l38.5,19.7l-4.6,3.9l-11.4-6.2l-12.8,11l4.6,12L647.4,715.9z M621.7,727.5l8.9-5.7c2.4-1.5,3.9-3.2,4.5-4.9
	c0.6-1.7,0.2-3.6-1-5.6c-0.9-1.4-2-2.3-3.3-2.8c-1.3-0.5-2.6-0.5-4.1,0c-1.4,0.5-3.6,1.7-6.6,3.6l-6,3.8L621.7,727.5z M598.1,700.5
	l21.9-14l2.5,4l-17.4,11.1l6.7,10.4l8.1-5.1c3-1.9,5.5-3.1,7.6-3.7c2.1-0.6,4.2-0.4,6.3,0.5c2.1,0.9,3.8,2.4,5.1,4.5
	c1.1,1.7,1.7,3.5,1.9,5.5c0.2,2-0.2,3.9-1.1,5.8c-0.9,1.9-3.2,4-6.8,6.3l-13.2,8.4L598.1,700.5z M441.2,749l25.8-2l0.4,4.7
	l-20.5,1.6l2.7,35.2l-5.3,0.4L441.2,749z M410.4,767.8l10.3,0.3c3.4,0.1,5.9-0.5,7.3-1.7c1.5-1.2,2.2-3,2.3-5.3
	c0-1.7-0.3-3.1-1.1-4.3c-0.8-1.2-1.9-2-3.3-2.5c-0.9-0.3-2.5-0.4-4.9-0.5l-10.2-0.3L410.4,767.8z M404.5,788.7l1.1-40l15.1,0.4
	c2.7,0.1,4.7,0.3,6.1,0.6c2,0.4,3.6,1.1,4.9,2c1.3,1,2.3,2.3,3.1,3.9c0.8,1.7,1.1,3.5,1.1,5.5c-0.1,3.4-1.3,6.2-3.5,8.5
	c-2.2,2.3-6.2,3.4-11.8,3.2l-10.3-0.3l-0.5,16.3L404.5,788.7z M367.8,744.3l5.3,0.7l10,26l14.3-23l5.2,0.6l-18.7,29.1
	c-2.3,3.6-4.2,6-5.5,7c-1.3,1-3.1,1.4-5.3,1.2c-1.4-0.2-3-0.7-4.9-1.6l0.6-4.5c1.3,1,2.7,1.6,4.3,1.8c1.3,0.2,2.4-0.1,3.5-0.8
	c1-0.7,2.3-2.5,3.8-5.3L367.8,744.3z M336.5,773.2l10.3,2.4c2.8,0.6,5,0.6,6.7-0.2c1.7-0.8,2.7-2.3,3.3-4.6c0.4-1.6,0.3-3.1-0.3-4.3
	c-0.5-1.3-1.5-2.2-2.8-2.9c-1.3-0.7-3.7-1.4-7.1-2.2l-6.9-1.6L336.5,773.2z M339.3,737.4l25.3,5.9l-1.1,4.6l-20.2-4.7l-2.8,12
	l9.3,2.2c3.4,0.8,6.1,1.8,8,2.9c1.9,1.1,3.2,2.7,4,4.8c0.8,2.1,0.9,4.4,0.4,6.8c-0.5,2-1.3,3.7-2.6,5.2c-1.3,1.5-2.9,2.6-4.9,3.3
	c-2,0.7-5.1,0.5-9.3-0.4l-15.3-3.5L339.3,737.4z M304,745.8l9.8,3.3c3.3,1.1,5.8,1.2,7.5,0.5c1.8-0.8,3-2.2,3.7-4.4
	c0.5-1.6,0.6-3.1,0.1-4.5c-0.4-1.4-1.2-2.5-2.4-3.3c-0.8-0.5-2.3-1.1-4.6-1.9l-9.7-3.2L304,745.8z M292.4,764.1l12.6-38l14.3,4.8
	c2.5,0.8,4.4,1.6,5.7,2.3c1.8,0.9,3.1,2,4.1,3.3c1,1.3,1.6,2.9,1.8,4.7c0.3,1.8,0.1,3.7-0.6,5.6c-1.1,3.2-3,5.6-5.8,7.2
	c-2.8,1.6-6.9,1.4-12.3-0.3l-9.7-3.2l-5.1,15.5L292.4,764.1z M256.4,747.7l16.4-36.5l26.4,11.9l-1.9,4.3l-21.5-9.7l-5,11.2l20.1,9.1
	l-1.9,4.3l-20.1-9.1l-5.6,12.4l22.4,10.1l-1.9,4.3L256.4,747.7z M233.8,733.9l19.1-29.7l-11.1-7.1l2.5-3.9l26.6,17.2l-2.5,3.9
	l-11.1-7.1l-19.1,29.7L233.8,733.9z M193.5,704.9l24.6-31.6l22.8,17.8l-2.9,3.7l-18.6-14.5l-7.6,9.7l17.4,13.6l-2.9,3.7L209,693.7
	l-8.4,10.8l19.4,15.1l-2.9,3.7L193.5,704.9z M189.9,647l22.7,21.7L185,697.7l-3.8-3.7l24.4-25.5l-15-14.4l-24.4,25.5l-3.8-3.7
	L189.9,647z M156,650.2l3.7-3.2l9.9,11.5l-3.7,3.2L156,650.2z M132.3,639.4l28.7-20.5l-7.7-10.7l3.8-2.7l18.4,25.8l-3.8,2.7
	l-7.7-10.7l-28.7,20.5L132.3,639.4z M142.6,581.5l2.7,4.6l-15.2,8.8c1.2,2.1,2.5,3.3,3.8,3.7c1.3,0.4,3.9,0.3,7.7-0.1
	c2.8-0.4,4.9-0.5,6.2-0.4c1.3,0.1,2.6,0.5,3.9,1.3c1.3,0.8,2.4,1.9,3.2,3.3c1,1.8,1.5,2.7,1.6,2.8l-4,2.3c-0.1-0.2-0.3-0.5-0.5-0.9
	c-0.3-0.5-0.4-0.8-0.5-0.9c-0.8-1.5-1.8-2.3-3-2.6c-1.1-0.3-3.1-0.3-6,0.1c-3.6,0.5-6,0.6-7.3,0.3c-1.2-0.4-2.4-1-3.5-1.8
	c0.7,2.6-0.1,6-2.4,10.2l-7.4,13.8l-3.3-5.7l6-11.2c1.7-3.1,2.7-5.5,3.1-7.1c0.4-1.6,0-3.3-0.9-5l-16.2,9.4l-2.7-4.6L142.6,581.5z
	 M89.4,563.3l36.5-16.5l2.2,4.8l-15,6.8l8.5,18.8l15-6.8l2.2,4.8l-36.5,16.5l-2.2-4.8l17.2-7.8l-8.5-18.8l-17.2,7.8L89.4,563.3z
	 M93.9,527.1l4.5,12.9l9.1-7.6c2.8-2.3,5.1-4.1,7-5.4c-2.6,0.3-5.3,0.5-8,0.4L93.9,527.1z M74.6,521.6l42.9,1.5l1.9,5.5L86.9,557
	l-2-5.7l10-8.3L89.4,527l-12.9-0.1L74.6,521.6z M86.8,509.9l-0.1,5.5c-4.5-0.1-8.2-1.3-11-3.6c-2.9-2.3-4.8-5.5-5.7-9.5
	c-1-4.2-0.9-7.8,0.2-10.8c1.1-3,3.1-5.6,6-7.7c2.9-2.1,6.3-3.6,10-4.5c4.1-0.9,7.8-1,11.2-0.1c3.4,0.9,6.2,2.5,8.4,5
	c2.2,2.5,3.7,5.5,4.5,8.9c0.9,3.9,0.7,7.4-0.7,10.5c-1.4,3.1-3.7,5.6-7.1,7.5l-2.4-4.8c2.6-1.6,4.4-3.3,5.3-5.4c0.9-2,1-4.3,0.4-6.9
	c-0.7-3-2-5.3-3.9-7c-1.9-1.7-4.2-2.6-6.8-2.9c-2.6-0.3-5.2-0.1-7.8,0.5c-3.3,0.8-6.1,1.9-8.3,3.4c-2.3,1.5-3.8,3.5-4.5,5.8
	c-0.8,2.3-0.9,4.7-0.3,7c0.7,2.9,2.1,5.1,4.2,6.7C80.5,509.2,83.3,510,86.8,509.9z"/>
</svg>
