<?xml version="1.0" encoding="utf-8"?>
<!-- Generator: Adobe Illustrator 19.0.0, SVG Export Plug-In . SVG Version: 6.00 Build 0)  -->
<svg version="1.1" id="Слой_1" xmlns="http://www.w3.org/2000/svg" xmlns:xlink="http://www.w3.org/1999/xlink" x="0px" y="0px"
	 viewBox="0 0 55.3 10.7" style="enable-background:new 0 0 55.3 10.7;" xml:space="preserve">
<style type="text/css">
	.st0{fill:#FFFFFF;}
</style>
<g>
	<g>
		<polygon class="st0" points="13.8,10.4 13.8,0 16.7,0 16.7,8 21.7,8 21.7,10.4 		"/>
		<path class="st0" d="M8.6,10.4L7.9,8.7H3.8l-0.7,1.8H0L4.5,0h2.8l4.5,10.4H8.6z M5.9,3.3L4.6,6.5h2.5L5.9,3.3z"/>
		<rect x="24" class="st0" width="2.9" height="6.5"/>
		<polygon class="st0" points="38.6,10.4 38.6,3.9 35.5,7.2 32.3,3.9 32.3,10.4 29.5,10.4 29.5,0 32.3,0 35.5,3.3 38.6,0 41.5,0 
			41.5,10.4 		"/>
		<path class="st0" d="M52.2,10.4l-0.7-1.8h-4.1l-0.7,1.8h-3.1L48,0h2.8l4.5,10.4H52.2z M49.4,3.3l-1.3,3.3h2.5L49.4,3.3z"/>
	</g>
	<path class="st0" d="M27,9.2c0-0.9-0.7-1.6-1.6-1.6c-0.9,0-1.6,0.7-1.6,1.6c0,0.9,0.7,1.6,1.6,1.6C26.3,10.7,27,10,27,9.2"/>
</g>
</svg>
