<?xml version="1.0" encoding="utf-8"?>
<!-- Generator: Adobe Illustrator 19.0.0, SVG Export Plug-In . SVG Version: 6.00 Build 0)  -->
<svg version="1.1" id="Layer_1" xmlns="http://www.w3.org/2000/svg" xmlns:xlink="http://www.w3.org/1999/xlink" x="0px" y="0px"
	 viewBox="0 0 382.8 447" style="enable-background:new 0 0 382.8 447;" xml:space="preserve">
<style type="text/css">
	.st0{fill-rule:evenodd;clip-rule:evenodd;fill:#FFFFFF;}
	.st1{fill:#FFFFFF;}
</style>
<path class="st0" d="M303.4,329.4c-0.3,0-0.6,0-0.9,0C302.8,329.4,303.1,329.4,303.4,329.4 M91.3,86.5c0.2,0,0.4,0,0.6,0
	C91.7,86.5,91.5,86.5,91.3,86.5z M296,318.8c-0.6,0-1.3,0-1.9,0C294.7,318.8,295.3,318.8,296,318.8z M293.2,318.7
	c-0.3,0-0.7,0-1.1-0.1C292.5,318.7,292.8,318.7,293.2,318.7z M99.7,97.2c0.3,0,0.7,0,1.1,0C100.4,97.2,100,97.2,99.7,97.2z
	 M253.8,185h-2.3c-0.2,0-0.7-0.1-1.4-0.2c-0.4-0.1-0.7-0.3-0.9-0.6c-0.2-0.3-0.3-0.6-0.3-1c0-0.6,0.2-1,0.5-1.3c0.4-0.3,1-0.5,2-0.5
	h2.4V185z M259.3,195.5v-17.7h-9.1c-1.7,0-3,0.1-3.9,0.4c-0.9,0.3-1.6,0.8-2.2,1.6c-0.5,0.8-0.8,1.7-0.8,2.9c0,1,0.2,1.8,0.6,2.5
	c0.4,0.7,1,1.3,1.7,1.7c0.5,0.3,1.1,0.5,1.9,0.7c-0.7,0.2-1.1,0.4-1.4,0.7c-0.2,0.1-0.5,0.5-0.9,0.9c-0.4,0.5-0.6,0.8-0.8,1.1
	l-2.7,5.1h6.2l2.9-5.4c0.4-0.7,0.7-1.2,1-1.4c0.4-0.3,0.8-0.4,1.3-0.4h0.5v7.2H259.3z M240.7,177.8v17.7h-5.1v-9.7l-6.6,9.7h-5.2
	v-17.7h5.2v9.8l6.6-9.8H240.7z M218.1,188.3l4.8,1.4c-0.3,1.3-0.8,2.5-1.5,3.4c-0.7,0.9-1.5,1.6-2.6,2c-1,0.5-2.3,0.7-3.9,0.7
	c-1.9,0-3.5-0.3-4.7-0.8c-1.2-0.6-2.3-1.5-3.2-2.9c-0.9-1.4-1.3-3.2-1.3-5.4c0-2.9,0.8-5.2,2.3-6.7c1.6-1.6,3.8-2.4,6.6-2.4
	c2.2,0,4,0.4,5.3,1.4c1.3,0.9,2.2,2.3,2.8,4.2l-4.8,1.1c-0.2-0.5-0.3-0.9-0.5-1.2c-0.3-0.4-0.7-0.7-1.1-1c-0.4-0.2-0.9-0.3-1.5-0.3
	c-1.2,0-2.2,0.5-2.9,1.5c-0.5,0.7-0.7,1.9-0.7,3.5c0,2,0.3,3.3,0.9,4c0.6,0.7,1.4,1.1,2.5,1.1c1,0,1.8-0.3,2.4-0.9
	C217.5,190.2,217.9,189.4,218.1,188.3z M199.6,188.3l4.8,1.4c-0.3,1.3-0.8,2.5-1.5,3.4c-0.7,0.9-1.5,1.6-2.6,2
	c-1,0.5-2.3,0.7-3.9,0.7c-1.9,0-3.5-0.3-4.7-0.8c-1.2-0.6-2.3-1.5-3.2-2.9c-0.9-1.4-1.3-3.2-1.3-5.4c0-2.9,0.8-5.2,2.3-6.7
	c1.6-1.6,3.8-2.4,6.6-2.4c2.2,0,4,0.4,5.3,1.4c1.3,0.9,2.2,2.3,2.8,4.2l-4.8,1.1c-0.2-0.5-0.3-0.9-0.5-1.2c-0.3-0.4-0.7-0.7-1.1-1
	c-0.4-0.2-0.9-0.3-1.5-0.3c-1.2,0-2.2,0.5-2.9,1.5c-0.5,0.7-0.7,1.9-0.7,3.5c0,2,0.3,3.3,0.9,4c0.6,0.7,1.4,1.1,2.5,1.1
	c1,0,1.8-0.3,2.4-0.9C199,190.2,199.4,189.4,199.6,188.3z M173.5,186.7c0,1.8,0.3,3.1,1,3.8c0.7,0.8,1.6,1.2,2.7,1.2
	c1.2,0,2.1-0.4,2.7-1.1c0.6-0.8,1-2.1,1-4.1c0-1.7-0.3-2.9-1-3.6c-0.7-0.8-1.6-1.2-2.7-1.2c-1.1,0-2,0.4-2.7,1.2
	C173.9,183.6,173.5,184.9,173.5,186.7z M168.1,186.7c0-2.9,0.8-5.1,2.4-6.7c1.6-1.6,3.9-2.4,6.7-2.4c2.9,0,5.2,0.8,6.8,2.4
	c1.6,1.6,2.4,3.8,2.4,6.6c0,2.1-0.3,3.8-1,5.1c-0.7,1.3-1.7,2.4-3,3.1c-1.3,0.7-3,1.1-4.9,1.1c-2,0-3.6-0.3-5-1
	c-1.3-0.6-2.4-1.6-3.2-3C168.5,190.5,168.1,188.7,168.1,186.7z M158.1,185.4h1.3c1.1,0,1.8-0.2,2.2-0.6c0.4-0.4,0.6-0.8,0.6-1.4
	c0-0.6-0.2-1-0.6-1.4c-0.4-0.4-1.1-0.6-2.1-0.6h-1.6V185.4z M152.6,177.8h9.1c2,0,3.5,0.5,4.5,1.4c1,0.9,1.5,2.3,1.5,4
	c0,1.8-0.5,3.2-1.6,4.2c-1.1,1-2.7,1.5-4.9,1.5h-3v6.6h-5.5V177.8z M168.2,147.7c-0.3,2.1,0.4,0.4-0.4,2.9c-0.5,1.4-0.4,1.4,0.7,2.5
	c0.5-0.3,0.4-0.1,0.9-0.9c2-3-0.4-2,3.5-3.3l3.3-0.7c0,0,1.1-0.2,1.2-0.2l4.4,0.1c3.5,0.8,4.6,2.1,5.5-0.3c-1.4-1.4-0.8-0.3-2.5-0.6
	c-2.7-0.5-0.4-1.5-5.4-1.8c-2.1-0.1-0.5-0.6-2.1,0.2c-1.3,0.6-0.6,0.6-2.3,0.6c-1.4,0-0.8,0.3-1.8,0.6L168.2,147.7z M232.2,159.7
	l-0.1,1.4c-0.8-0.9-0.4-0.6-1.8-1.1c-0.8,1.8-0.7,3,0.8,3.9c1.4-0.3,1.2-0.9,3.1-1.1c0-0.1,0-0.3-0.1-0.3c0,0.1-0.1-0.2-0.1-0.3
	c-0.4-0.8-0.8-0.9-0.9-1.6c1.7,0.9-0.6,0.4,1.8,1.3C235.4,159.3,234.4,160.4,232.2,159.7z M204,149.5c0.1,1.5,0.9,2.4,2.3,3.1
	c0.4-1.2,0.7-1.8,1.1-2.8C206.1,148,205.5,147.4,204,149.5z M205.7,154.8c0.8-0.1,2.4-0.1,3.1-0.3l0.7-1.8c-0.7-0.6-0.5-0.3-1-0.6
	c0,0-0.1-0.1-0.1-0.1l-0.9-0.6C206.8,153.2,206.1,153.5,205.7,154.8z M204.5,147.9c1.9,0.1,1.5,0,2.7-1.1l-0.4-2.1
	C205.1,145.2,204,146.2,204.5,147.9z M264,155.8l1.9-2.9c-1.5-0.6-2.1-0.7-2.6,0.5C262.7,154.5,263.5,155,264,155.8z M236.1,160.6
	c0.8,0.9,1.4,1.1,2.6,0.8l0.8-1.3c-0.9-0.2-1.8-0.5-2.7,0C236.3,160.3,236.5,160.4,236.1,160.6z M234.5,165.4l-1,1.5
	c0.3,0.1,1.2,0.3,1.4,0.3c1.7-0.3,0.4,0.3,1.2-1L234.5,165.4z M161.2,149c-2.2,0.6-0.9,1.2-0.9,1.2c0.9,0.7,0,0.4,1.4,0.5
	C162,149.5,162,149.4,161.2,149z M186.9,134.1c0.2,1.6-0.1,0.3,0.6,1.1l2-0.3c-0.1-0.3,0.6-0.5-0.8-0.9L186.9,134.1z M273.1,191.4
	c0.8-1.8,1-1.4,0.1-2.5c-0.3,0.2-0.9-0.4-0.7,1.3C272.5,190.3,273.1,191.4,273.1,191.4z M168.9,156.9c1.3-1.7,0.5-1.2,0.1-1.8
	c-0.3,0.2-0.5-0.7-0.6,0.7C168.2,157.4,168.3,156.4,168.9,156.9z M191.4,413.5c-0.8,0-1.5,0-2.3,0v-68.3c27.6,0.2,54-9,75.3-25.3
	c13.3,5.2,25.5,8.4,35.7,9.1c-10.2-0.7-22.4-3.9-35.7-9.1c0.1-0.1,0.3-0.2,0.4-0.3c22.1,8.6,41,11.8,53,6.8
	c24.2-10.2,16.1-44.7-6.5-83c-0.7,3.7-1.5,7.3-2.5,10.9c14.4,29,17.3,53.6-1.7,61.6c-8.6,3.6-21.1,2.6-35.7-1.8
	c17.3-15.4,30.5-35.9,37-60c10.8-40.3,0.2-81.4-24.8-111c0,0.1,0,0.2-0.1,0.3c-1.9-2.2-3.8-4.4-5.9-6.5c0-0.1,0-0.2,0-0.3
	c-14.9-15.3-34-26.9-56.1-32.9c-1.1-0.3-2.2-0.6-3.3-0.8c63.5,18.9,100.8,85,83.6,149.5c-6.5,24.1-19.7,44.6-37.1,60
	c-8.7-3-17.9-7-27.6-11.9c0.4-1.5,0.6-3,0.6-4.6c0-10-8.1-18-18-18c-5.1,0-9.6,2.1-12.9,5.4c-28.6-17.9-57.3-40.4-78.9-62.1
	c1.5-4.8,3-9.6,4.7-14.4c2.3-6.8,5-13.5,7.8-20c0.4,0.2,0.8,0.4,1.3,0.6c0.8,0.5,1.1,0.8,1.7,1.1c3.4,1.9,2.8,1.5,5.4,2.2
	c2.4,0.6,0.3,0,1.5,1.4l0.9,0.7c-0.7,1.7-0.7,1.4-1.5,2.5l1.7,1.9c0.5,0.7,0.3,0.4,0.4,1.1c0,0.1,0,0.4,0,0.4l0,0.4
	c2,0.9,2,0,4.2,0.8l0.7,4.5c-0.7,1.7-0.7,3.9-0.9,5.8c0.1,0.1,0.2,0.1,0.2,0.1c1.1,0.5,0.4,0.1,1.7,0.2c0.1,2.6,1.5,2,3.3,2.6
	c0.2,1.2,0.2,3.4,1,4.4c1,1.4,1.2,0.7,1.7,1.2c0.4,0.4,0.3,0.9,0.8,1.8c1.8,1.5,8.4-2.4,11.5,1.1c0.4,0.5,1.6,3.7,5.9,3.7l0,0l0,0
	c2-3.2-1.3-1.9,2.5-4.5l0.2-0.1l0,0l0.2-0.1l4.4,3.2c0.3,5.1,2.6,2.8,4.9,3.4c2.9,0.8,3.6,3.1,6.1,4.1c2.9,1.2,4.9,0.1,7.3-1
	c1.7-0.8,5.5,1,7.2,1.8l0,0l0,0c0.4-0.6,0.7-0.9,0.9-1.1l0,0l0,0c0.2-0.1,0.4-0.1,0.5-0.3c0.1-0.1,0.2-0.2,0.3-0.3
	c0.4-0.6,0.3-1.3,0.9-2.5c1.5-2.9,2.9-1.1,0.9-4.4c0.2-0.1,0.4-0.3,0.6-0.4c1.5-1,3.4-1.8,5.2-1.1c4,1.5,3.1,1.2,4.7,4.2
	c0.7,1.4,1.6,4.4,3,4.9c3.3,1,4.4,0.2,4.8,3.9c1.6,0.3,2.5,0,3.2-0.5l0.1,0l0,0c0.4-0.3,0.8-0.7,1.3-1c0.5-0.3,1.1-0.6,2-0.7
	c0.6,3.1-1.4,5.8-1.3,8.8c-1.9-0.3-2.8-0.2-3.2,0c-1,0.7,1,2.7,0.8,4.7c1.9-0.3,3.2,0.1,4.3,0c0.4-0.1,0.9-0.3,1.3-0.6l0,0l0,0
	c0.6-0.4,1.1-0.9,1.5-1.5c1.8-2.8,6-13.1,5.3-16.7c-0.4-2.5-1.1-4.5-0.5-7.3c1.9,1.5,1.8,4.5,2.6,6.8l1.2,3.4
	c0.6,1.7,0.2-0.2,0.6,1.8c0.2,0.9-0.1,0.5,0.5,1.7l0,0l0,0l1-1.8l1.4,0.3l0,0l0,0c-0.3-2.5-1.2-0.6-2.6-2.9c-0.6-1-0.6-2.7-0.4-4.1
	l2.5-0.1l0,0l0,0c-5.5-5.5-4-6.9-5.4-9.5c-0.2-0.4-0.6-0.9-1.1-1.6c-0.5-0.7,0-0.5-0.9-1.1l0,0l0,0c-0.6,1.5,0,0.4,0.4,2.5l-1.1,0.7
	l0,0l0,0c0.7,0.9,1.1,1.7,0.8,3.3c-2.2-1.8,0.4-2.1-2.5-3.4c-1.2-0.5-1.9-0.5-2.4-0.1c-0.5,0.4-0.9,1.1-1.5,2
	c-1.6-1.7-1.6,1.4-1.6-2c-1,0.1-1.4,0.3-2.5-0.1c0.2-1.9,2.3-3.4,3.3-5.7c2.6-5.9,2.1-7,3.6-8.1c0.8-0.5,2-1,4.4-2
	c0.1,0,0.2-0.1,0.2-0.1c0.1,0,0.2-0.1,0.2-0.1c0.1,0,0.2-0.1,0.2-0.1c1.9-0.8,2.2-0.8,2.3-0.9c0.1-0.1-0.1-0.2,0.6-1.3
	c1.4-0.2,1.9-0.4,3-0.5c0.1,1.2-0.7,0.8,0.3,1.6l0,0l0,0c0.4-0.4,1.1-1.4,1.5-1.8c0.2-0.2,0.4-0.3,0.5-0.4c0.3-0.2,0.5-0.1,1.1-0.5
	l0,0l0,0c0.1-0.1,0.2-0.1,0.3-0.2c-0.1-0.1-0.2-0.1-0.2-0.2c0,0-0.2-0.1-0.2-0.2c-0.1-0.1-0.3-0.2-0.3-0.2v0
	c-0.5-0.3-0.1,0.3-0.9-0.5c0.3-1.6,0.6-4.3,0.9-5.4c0-0.1,0-0.2,0.1-0.2v0.1c0.2-0.8,0.6-1.2,1.1-1.5c0.6-0.4,1.2-0.6,1.7-0.9
	c0.1-0.1,0.2-0.2,0.3-0.3c0.8,1.3,0.3,1.5,1.8,2.1l0,0l0,0c0.3-1,0.3-1.6,0.5-2.5c0.8-3-0.4-3.9,0.1-4.3c0.2-0.1,0.6-0.2,1.4-0.2
	l-0.1,0.4c0,0.1-0.1,0.4-0.1,0.5c-0.5,2.5,1.7,1.7,0.6,4.9c-0.8,2.4-0.9,4.8-1,7.3c-0.1,1.3-3.4,5.3,1.7,11.7
	c1.4,1.7,3.8,5.1,5.5,6.5l0,0l0,0c1.1-4.8-0.1-4.5,0.7-7.1c0.7-2.1-0.3-1.3-0.3-2.9c0-0.9,0.1-1.2,0.3-1.3c0.1-0.1,0.2-0.1,0.3-0.2
	c0.2-0.1,0.4-0.4,0.6-1c-1.6-1.9-1.6-0.9-1.9-4l0.4,0.1c0.6,0,0.7,0.1,0.7,0c0,0,0-0.1,0.2-0.4c-1.3-1.4-2.2-0.5-2.1-3
	c-1.3-0.2-1.6,0.8-1.9,0c0-0.1-0.2,0-0.3,0c0-5.2-1.4-3.6,0.3-6l0.6-1.9l1.1,0.3l0,0l0,0c0.6-1.7,0.8-2.4,1.1-2.6
	c0.4-0.3,1-0.1,2.4-0.3l0,0l0,0c0.1-2.4,0.1-3.1,0.7-5.9c0.6-2.9,0.8-3,0.5-5.5c0.8,0,1.3,0,1.7-0.3c0.3-0.2,0.5-0.5,0.7-1
	c-0.5-0.6-2.2-1.4-3.4-1.6c-1.4-0.3-2.4,0.4-3.7,0.4c0.3-0.8,0.6-1.1,0.9-1.3l0,0c0.2-0.1,0.4-0.2,0.6-0.3c0.3-0.2,0.7-0.7,1.1-2.5
	c-0.3-0.2-0.5-0.3-0.8-0.5c-0.1-0.1-0.2-0.1-0.3-0.2l-0.8-1.1c0-0.1-0.1-0.2-0.1-0.2c0,0.1,0,0.1,0,0.1c0,0,0-0.1,0-0.1
	c0,0,0,0,0.1,0.1c0-0.1,0-0.2,0.1-0.4c1.2-0.4,1.2,0.7,2,0.6c0.3,0,0.4-0.1,0.5-0.1c0.2-0.1,0-0.3,0.3-0.7c0.2-0.2,0.4-0.4,0.5-0.5
	c0.8-0.5,1.2,0.3,3.1-0.4l0,0l2.1-1.4l0,0l-1.4-1.1c-1.7-1.5,0.1-1.8-0.5-3.8c-1.2-0.3-1.8-0.2-2.4,0.2c-0.7,0.5-1.1,1.2-2,1.8l0,0
	l-0.1,0c-0.1,0-0.1,0.1-0.2,0.1l0,0l0,0l1.1,1.4c-3-0.2-1.9-2.1-5.1-1c-1.8,0.6-2.5,0.7-4.4,1.1c-1.9,0.4-2.9,0.6-3.9,1.3
	c-0.4,0.2-0.7,0.5-1.1,0.9c-0.1,0.1-0.3,0.3-0.4,0.4c-0.6,0.4-1.2,0.5-1.7,0.9c-0.2,0.1-0.4,0.3-0.6,0.5c1.1,2.3,1.8,0.2,2,2.7
	c-0.1,0.1-0.2,0.2-0.3,0.2c-1,0.7-2.1,0.1-3.2-0.9l0,0l0,0c-0.5,1.4-0.7,1.9-0.9,2c-0.3,0.2-0.5-0.2-1.5,0.5
	c-0.1,0.1-0.2,0.2-0.4,0.3l-3,1.6c-0.1-0.1-0.8-0.8-0.8-1c-0.4-1.1-0.6-0.2,0.1-1.5c-0.1,0.1-0.2,0.1-0.3,0.2
	c-0.1,0-0.2,0.1-0.3,0.2l-1.4,0.5c-1.1,0.3-1.8,0.5-2.3,0.9c-0.6,0.4-1.1,1-2.1,1.9c-1.5-0.3-0.7-0.4-2.3-0.7
	c-0.8-0.1-0.5,0.6-1.7-0.8c-0.7-0.8-1.2-0.9-1.5-0.7c-0.5,0.3-0.7,1.3-0.8,1.7l-0.4,0.7c0,0-0.1-0.1-0.1-0.1l-1.2-2.1
	c-1.4,0.2-2.4,0.1-3,0.6c-0.4,0.3-0.7,0.7-0.9,1.4l0.7,2c-0.3,0.4-0.6,0.6-0.9,0.8c-0.7,0.5-1.3,0.4-2.6,0.5
	c-1.4,0.1-1.4,0.4-2.9-0.1l0,0l0,0l-0.8,2.8c-1.4-0.6-1.9-1.1-2.4-2.1c-0.4-0.9-0.4-1.1-0.3-1.2c0,0,0.1,0,0.2-0.1
	c0.1-0.1,0.3-0.3,0.2-1.2c-0.2-2.6-2-2-3.9-3.2l0,0l0,0c-0.6,1.3-0.8,1.9-1.2,2.2c-0.4,0.3-1.1,0.1-2.8,0.2c-1.2-1.3-0.1-1.7-2.6-2
	l-2.7-0.1c-0.5,0-5.3,0.9-5.5,1.1c0.7-1.9,8.6-4.6,6.3-8.6c-1-1.9-1.8-1.5-3.6-0.9l-0.9-3.6c-0.6,0.1-1,0.3-1.4,0.5l0,0l0,0
	c-0.9,0.6-1.5,1.6-2.3,2.3c-0.6,0.5-0.1,0.1-0.5,0.6c-3-0.3-1.9-1.1-3.5-1.2c-0.5,0-0.6,0-0.6,0c-0.1,0,0.1,0.1,0,0.1
	c-0.1,0.1-0.3,0.1-0.7,0.2c-1.9,0.4-3.6,0-4.7,0.7c-0.6,0.4-1,1.2-1.1,2.7l-4.8-1.8l0,0l0,0c-2.2,2.7-0.7,2.8-0.6,4.9
	c-1.7-0.4-1.3-0.8-1.5-2.5l-1.4-0.4c-0.1,0-0.5,0.2-0.5,0.2l-0.4,0.1c-0.6,0-0.6,0-0.5-0.1c0.1-0.1,0.2-0.1,0.2-0.1
	c0.1,0,0,0-0.7,0.1l0,0l0,0c-0.2,2.1,0.6,0.3,0.3,2.5c-2.8-2.3-0.2-3.6,0.5-5.3l-1.3,0.8c-0.7,0.4-0.6,0.2-1,0.5
	c-0.4,0.2-0.6,0.3-0.7,0.4c-0.4,0.3-0.3,0.4-0.7,1.4c-1.2,2.7-2.1,1.9-2.8,4c1.9,3.6,3.7,0,0.6,5.6l-0.3,0.5
	c-1.5-1.6,0.4-1.7,0.9-3.1c0.6-1.6-0.9-1.7-1.9-1.9l0,0l0,0c-0.9,1.2-0.7,2-1.6,2.6c-0.6,0.4-1.7,0.7-3.8,1.1c-1-1-1.7-1.5-2.1-2.7
	c1.1-0.2,0.9,0.7,2.4,0.8c0.9,0.1,1.8-0.3,2.5-0.7c0.1,0,0.1-0.1,0.2-0.1c1.6-1.2,4.7-7.3,6.5-8.8c1.5-1.3,0.6-0.4,1.6-4l0-0.5
	c-0.4,0.1-0.5,0.1-0.6,0.1c-0.1,0-0.1,0.1-0.3,0.3l0,0l0,0c-0.2,0.1-0.4,0.2-0.8,0.4l-3.5,1.7c-1.2,0.4-1.8,0.5-2,0.7
	c-0.4,0.3,0.5,0.4-0.4,1.4c-0.3,0.3-0.5,0.5-0.6,0.6c-0.3,0.2-0.2-0.2-1.3,0.5l0,0l0,0l0,0c0.5,1.3,0.6,2.6-0.3,3.2
	c-0.2,0.1-0.5,0.3-0.8,0.3c-0.8-2.6-0.3-6.5-2.8-7.8l0,0l0,0c-0.1,0.1-0.2,0.2-0.2,0.2l-0.4,0.5c-0.3,0.4-0.6,0.6-0.7,0.7l0,0l0,0
	c-0.4,0.2-0.6,0.2-1.5,0.1c-0.1-0.6-0.1-0.7,0-0.8c0,0,0.1,0,0.3-0.1l0,0l0,0c0.1-0.1,0.2-0.2,0.4-0.4c-5.2-2.8-5.2-2.4-4.4-3.1
	c0,0,0.1-0.1,0.1-0.1c0.2-0.2,0.1,0.2,0.4,0c0.1-0.1,0.3-0.3,0.7-0.7c-0.9-0.6-1.2-0.4-2-0.7c-0.4-0.2-1.5-1-1.9-1.2
	c-0.3-0.2-0.6-0.3-0.9-0.5c11.7-19.8,24.9-37.5,38.1-51.7c7.5,0.4,15,1.4,22.5,3.2c-1.1-0.3-2.2-0.6-3.3-0.9
	c-2.3-0.6-4.6-1.2-6.9-1.6c25.6,2.8,49.4,11.9,69.8,25.5c2.7-39.8-8.3-63.2-30.2-61.1c0.1,0.7,0.1,1.3,0.1,2c0,10-8.1,18-18,18
	c-4.9,0-9.3-1.9-12.6-5.1c-6.9,5.4-14,12-21.2,19.7c-2.5-0.2-5.1-0.2-7.6-0.2c-0.7,0-1.4,0-2,0c0.4-0.4,0.7-0.9,1.1-1.3
	c-11.8-0.4-23.5,0.9-34.6,3.7c-31.1-13.5-59.3-19.1-75.6-14.2c-3.8,1.1-7,2.8-9.6,4.8c-15.3,11.5-12.8,37.8,6.8,71.3
	c-4.1,7.9-7.4,16.3-9.8,25.2c-12.6,47,3.9,95,38.4,124.8c0.1-1.1-0.3,7.1-0.3,6l8.4,4.9c1.2,27.4,9.3,46.3,27.6,45.6
	c19.9-0.7,25.7-10.3,40.2-25.8c3,0.2,5.9,0.3,9,0.4c-19.6,23.8-39,39.6-54.5,40.2c-23.3,0.9-31.8-27-30.6-65.3
	c-44.2-27.8-73.6-77-73.6-133c0-86.7,70.3-157,157-157c0.8,0,1.5,0,2.3,0v67c8-9.4,16.2-17.6,24-24.5c-0.5-1.7-0.8-3.5-0.8-5.4
	c0-10,8.1-18,18-18c4.5,0,8.6,1.6,11.7,4.3c3.3-1.3,6.5-2.3,9.5-2.7c27.7-4.2,40.4,27.3,33.7,80.3c38.2,28.6,63,74.3,63,125.8
	C348.5,343.2,278.2,413.5,191.4,413.5z M123.2,216.3c-2.6-2.7-5.1-5.4-7.4-8.1c-6.4-7.3-12.1-14.5-17.2-21.4
	c0.2,0.1,0.5,0.2,0.8,0.2c2,0.1,0.9-2.5,3.2-4.1c2.1-1.5,0.7-0.2,2.2-2.8c3.1-0.2,2.5,0.4,5.5,1.3c0.1-0.1,0.2-0.1,0.3-0.2
	c1-0.7,2.2-1.7,2.1-3.4c-0.1-1.7-0.8,0.2,0-1.5l0.7-1.6c3.4-0.4,1.5-1.5,5-0.8c-0.1,1.2-0.3,1.4,0,2.3c2.6-1.2,2.5-0.4,5.3-0.1
	l0.5,1c0.3,0.5,1.7,1.5,1.5,3.8c-0.1,1-0.1,0.9-0.5,1.6c0.8,1,0.3,0.1,0.6,0.5c1,1,0.1,0.9,1.7,1.9c2.5,1.5-0.9-0.3,2.6,2.2
	c0,1.5-0.7,1.1,0.2,2.3c0,0,0.9,0.8,0.9,0.8c0.4,0.4,0.8,0.6,1.1,0.7c-2,5-3.9,10.1-5.7,15.2C125.4,209.4,124.3,212.9,123.2,216.3z
	 M152.8,149l-0.2,0.1c-0.9,0.4-0.4,0.3-1.2,0.2c0-0.6,0.3-1,0.4-2l-3.8-1.4l-1.6,1.5c-0.4-0.8-0.5-0.6-0.5-2c0-3.5,0.7-1.1-0.3-2.1
	c-2.3,0.6-0.1,1.7-1.9,2.3c-1-1.3-0.1-1.7-0.5-2.8c1.4-1.9,1.4-1.5,3.1-2.2c1.8-0.7,1.2-1.6,2.5-3.3c0.2,1.4-0.5,3.4-0.3,5.2
	c0.4,3.4,5.2,7,6.7-4.2c0.2-1.4-0.3-1.5-0.2-3c0,0,0.9,0.2,1.3-0.5c-3.8-5.6-6.5-0.8-6.6-0.8c-1.9,0.6-1.2-0.5-3.1,0.7
	c-2.5,1.5-0.4,0.5-3.2,1.1c-1.2,0.2-0.1-0.2-1.3,0.6c-0.1,0.1-0.5,0.5-0.6,0.5l-0.7,0.4c-1.4,0.6,0-0.8-1.4,0.8l-0.9,1.3
	c0,0.1-0.1,0.2-0.2,0.2c-1.3-0.2-3-1.2-4.5-1.6c-3.1-0.9-2-0.1-3.5,1.2c-0.5-1.2-0.9-1.9-2.2-1.4c-2.4-0.5-1.6-0.3-3.3,0.3
	c-6.6,2.2-4.5,3.5-4.8,6.2c-1,0.5-2,0.7-2.8,1.8c-1.6,2-0.5,3.1-2.9,2.2l0.1-1.2c-1.2,0.3-1.4,0.7-2.5,1c0.2,1.6,1.1,2.2,1.8,3.2
	c-1.5,1.6-1.9,0.7-2.5,1.7c-0.5,0.8,0.2,0.1-0.5,1.7c-0.6,1.4-0.6-0.2-0.7,1.7c0,0.8,1.3,3.9,0.6,6.9l-3.8,1.5
	c-0.5-0.5-0.8-2.1-2.8-1.6c-0.2,0.7-0.2-0.1,0.3,1c0.2,0.4,0.1,0,0.4,0.7c-2.1-0.6-1.1-1.1-3.4-1.1c-3.2,0.1-1.4-0.2-2.9-1.4
	c-0.6,0.7-2.1,7.3-2.1,7.4c0.8,1.7,1.5,5,1.5,6.7l0.2,1.8c1.6,3.9,0.1,1.1,0.2,4.8c0,0.6-0.4,1.8-0.3,2.6c-5.8-8-10.7-15.7-14.7-23
	c21-37.9,60.6-61.9,103.7-63.2C174.9,114,163.2,130.7,152.8,149z M258.7,317.5c-28.5,22.1-66.3,31.5-103.9,22.5
	c1.1,0.3,2.2,0.6,3.3,0.9c0.4,0.1,0.9,0.2,1.3,0.3c-16.9-3-32.8-8.7-47.4-16.6c-0.1-1.5-0.1-3.1-0.1-4.6
	c11.8,8.6,25.4,15.2,40.4,19.3c1.1,0.3,2.2,0.6,3.3,0.8c-16.5-4.9-31.3-13-43.7-23.5c0-26.1,5.5-58.5,14.4-89.4
	c21.9,21.2,49.6,42.8,77.5,60.6c-1.2,2.4-1.9,5.2-1.9,8c0,10,8.1,18,18,18c6.2,0,11.7-3.1,14.9-7.9
	C242.9,310.4,251,314.3,258.7,317.5z M104.4,309.8c-30.4-30-44.2-75-32.4-119.2c1.9-7.1,4.4-13.9,7.4-20.3
	c7.5,11.9,17.1,24.7,28.7,37.9c4,4.6,8.5,9.4,13.2,14.1C112.4,251.8,106.2,282.9,104.4,309.8z M142.6,105.1
	c-25.6,9.2-47.8,26.8-62.6,50.3c-14.2-29.7-11.7-51.4,8.4-57.4C100.7,94.3,120.2,97.1,142.6,105.1z M192.4,223.6
	c2.7-1.2,4.5,0.1,9.3-7.6c1.1-1.7,0.2-1,1.5-1.2c0.3,2-1.5,6.5-5.4,7.8c-2,0.7-2.1,2.4-4.3,1.6C191.5,223.7,192.8,224.2,192.4,223.6
	z M168.9,156.9c1.3-1.7,0.5-1.2,0.1-1.8c-0.3,0.2-0.5-0.7-0.6,0.7C168.2,157.4,168.4,156.4,168.9,156.9z M161.2,149
	c-2.2,0.6-0.9,1.2-0.9,1.2c0.9,0.7,0,0.4,1.4,0.5C162,149.4,162,149.4,161.2,149z M113.5,129.1c0.1,1.7,0.1,4,1,4.9
	c1.6-0.4,1.9-1.7,1.8-3.2c-1.1-0.4,1.3-0.2-0.4,0c-0.4,0,0.3,0.1-0.9,0.1l0-1.6L113.5,129.1z M98.4,161.2c0.1-0.3-0.5-1.7-0.4-2.2
	c0.1-0.9,0.7-1.3,1.2-2.3c-0.5-0.6-2.2-1.9-2.9-2.6c-1.4,4.1-1,1-1.8,3.5c1,1.1,1.2,0.3,1.9,2.1C97.9,163.3,98.4,161.2,98.4,161.2z
	 M131.1,141.4c1.5-1.3,1.1-0.2,2.5-2.4l1.5,0.7c0.3,1.6-0.8,2.8-1.8,3.6c-0.9-0.3-1-0.2-1.9-1.3L131.1,141.4z M136.6,173.3
	L136.6,173.3L136.6,173.3L136.6,173.3z M136.7,172.8L136.7,172.8L136.7,172.8z M136.8,147c-0.6-0.2-0.9-0.2-1.5-0.6
	c1-1,3.1-4.8,4.1-2.8c0.6,1.3-0.8,0.6-1.8,2.4C137,146.1,137.2,145.9,136.8,147z"/>
<path class="st1" d="M194.2,445.6l1.4,0c0.7,0,1.1,0,1.4-0.1c0.2,0,0.4-0.1,0.6-0.3c0.2-0.2,0.2-0.4,0.2-0.7c0-0.3-0.1-0.5-0.2-0.7
	c-0.2-0.2-0.3-0.3-0.6-0.3c-0.2,0-0.7,0-1.4,0l-1.3,0L194.2,445.6z M194,438.4l0.1,3.6l0.4,0c0.6,0,0.9-0.1,1.2-0.3
	c0.2-0.2,0.6-0.7,1.1-1.5l1.2-1.9l2.1,0l-1,1.7c-0.4,0.7-0.7,1.2-1,1.4c-0.2,0.3-0.5,0.5-0.9,0.7c0.8,0.1,1.4,0.4,1.7,0.8
	c0.4,0.4,0.6,0.9,0.6,1.5c0,0.5-0.1,1-0.4,1.4c-0.3,0.4-0.6,0.7-1,0.8c-0.4,0.1-1.1,0.2-1.9,0.3l-3.7,0.1l-0.2-8.6L194,438.4z
	 M208.4,446.3l-1.6,0.1l-0.4-5.7l-3,6l-1.7,0.1l-0.7-8.6l1.6-0.1l0.4,5.6l3-5.9l1.7-0.1L208.4,446.3z M217.5,445.4l-1.7,0.2
	l-0.9-7.1l-3.3,0.4l0.9,7.1l-1.7,0.2l-0.9-7.1l-0.7,0.1l-0.4-3.3l1.4-0.2l0.2,1.9l6.1-0.7L217.5,445.4z M221.2,439.6l1.8,2.9
	l0.6-3.3L221.2,439.6z M217.5,436.8l1.8-0.3l1.1,1.8l3.4-0.6l0.3-2.1l1.8-0.3l-1.7,9.1l-1.8,0.3L217.5,436.8z M232.7,440.3l1.7,0
	c0,1.4-0.9,2.4-2.6,2.7c-1,0.2-1.8,0.2-2.4-0.1c-0.6-0.3-1-0.8-1.1-1.4c-0.1-0.4-0.1-0.8,0.1-1.2c0.2-0.4,0.4-0.7,0.8-1.1
	c-0.6-0.1-1.1-0.2-1.4-0.5c-0.4-0.3-0.6-0.7-0.7-1.2c-0.2-0.7,0-1.4,0.4-2c0.4-0.6,1.2-1,2.3-1.2c0.9-0.2,1.6-0.2,2.2,0
	c0.6,0.2,1.1,0.6,1.5,1.4l-1.4,0.9c-0.3-0.5-0.6-0.7-0.9-0.8c-0.3-0.1-0.6-0.1-1,0c-0.5,0.1-0.9,0.3-1.1,0.6
	c-0.2,0.3-0.3,0.6-0.2,0.9c0.1,0.3,0.3,0.6,0.6,0.7c0.3,0.1,0.8,0.2,1.3,0l0.4-0.1l0.3,1.3l-0.2,0c-0.5,0.1-0.9,0.3-1.1,0.6
	c-0.2,0.3-0.3,0.6-0.2,1c0.1,0.3,0.2,0.5,0.5,0.7c0.3,0.2,0.6,0.2,1,0.1C232.3,441.5,232.6,441,232.7,440.3z M242.8,440.3l-1.6,0.4
	l-1.3-5.6l-2.1,6.4l-1.7,0.4l-1.9-8.4l1.6-0.4l1.3,5.5l2.1-6.3l1.7-0.4L242.8,440.3z M249.2,429.5l2.3,8.3l-1.7,0.5l-0.9-3.3
	l-3.3,0.9l0.9,3.3l-1.7,0.5l-2.3-8.3l1.7-0.5l1,3.6l3.3-0.9l-1-3.6L249.2,429.5z M254.1,431.1l2.2,2.6l0-3.4L254.1,431.1z M250,429
	l1.8-0.6l1.4,1.6l3.3-1.1l0-2.1l1.7-0.6l-0.3,9.2l-1.7,0.6L250,429z M265.9,432.2l-5.4,2.1l-0.5-1.4l3.8-1.5l-2.5-6.7l1.6-0.6
	L265.9,432.2z M271.6,428.1l-1-2.2l-0.9,0.4c-0.6,0.3-1,0.5-1.2,0.7c-0.2,0.2-0.3,0.4-0.3,0.6c0,0.2,0,0.5,0.1,0.7
	c0.1,0.3,0.3,0.5,0.6,0.6c0.3,0.1,0.5,0.1,0.8,0.1c0.2-0.1,0.6-0.2,1.2-0.5L271.6,428.1z M270.3,420.8l3.5,7.8l-2.5,1.1
	c-1,0.4-1.6,0.7-1.9,0.7c-0.5,0.1-1,0-1.5-0.3c-0.5-0.3-0.9-0.7-1.1-1.3c-0.2-0.5-0.3-0.9-0.3-1.3c0-0.4,0.1-0.8,0.3-1.1
	c0.2-0.3,0.4-0.6,0.7-0.7c0.3-0.2,0.9-0.5,1.6-0.9l1-0.5l-1.3-3L270.3,420.8z M279.3,421.2c-0.4-0.9-1-1.4-1.6-1.7
	c-0.6-0.2-1.3-0.2-1.9,0.1c-0.6,0.3-1,0.8-1.2,1.4c-0.2,0.6,0,1.4,0.4,2.3c0.4,0.9,1,1.4,1.6,1.7c0.6,0.2,1.2,0.2,1.9-0.1
	c0.6-0.3,1.1-0.8,1.2-1.4C279.9,422.8,279.7,422.1,279.3,421.2z M280.9,420.3c0.4,0.8,0.6,1.5,0.6,2.2c0,0.5,0,1-0.2,1.4
	c-0.1,0.5-0.4,0.9-0.6,1.2c-0.4,0.4-0.9,0.8-1.5,1.1c-1.1,0.6-2.2,0.7-3.3,0.3c-1-0.4-1.9-1.2-2.5-2.4c-0.6-1.2-0.8-2.4-0.4-3.4
	c0.3-1,1.1-1.8,2.2-2.4c1.1-0.6,2.2-0.7,3.3-0.3C279.4,418.3,280.2,419.1,280.9,420.3z M288.2,419.4l1.2-0.7c0.6-0.3,1-0.6,1.1-0.7
	c0.2-0.1,0.3-0.3,0.3-0.6c0-0.2,0-0.5-0.2-0.7c-0.2-0.3-0.3-0.4-0.6-0.5c-0.2-0.1-0.4-0.1-0.7,0c-0.2,0.1-0.6,0.3-1.3,0.7l-1.1,0.6
	L288.2,419.4z M284.5,413.3l1.8,3.1l0.3-0.2c0.5-0.3,0.8-0.5,0.9-0.8c0.1-0.3,0.2-0.9,0.3-1.9l0.1-2.3l1.8-1l-0.1,2
	c0,0.8-0.1,1.4-0.1,1.7c-0.1,0.4-0.2,0.7-0.4,1.1c0.8-0.3,1.4-0.3,1.9-0.1c0.5,0.2,0.9,0.6,1.2,1.1c0.3,0.5,0.4,0.9,0.4,1.4
	c0,0.5-0.2,0.9-0.5,1.2c-0.3,0.3-0.8,0.7-1.6,1.2l-3.2,1.8l-4.3-7.4L284.5,413.3z M294.2,411.3l2.7,2l-0.7-3.3L294.2,411.3z
	 M289.7,410.1l1.6-1l1.7,1.3l2.9-1.9l-0.4-2l1.6-1l1.8,9.1l-1.6,1L289.7,410.1z M303.2,400.7l5,7l-1.4,1l-2-2.8l-2.8,2l2,2.8l-1.4,1
	l-5-7l1.4-1l2.2,3.1l2.8-2l-2.2-3.1L303.2,400.7z M310,395.3l5.3,6.8l-1.4,1.1l-2.1-2.7l-2.7,2.1l2.1,2.7l-1.4,1.1l-5.3-6.8l1.4-1.1
	l2.3,3l2.7-2.1l-2.3-3L310,395.3z M315.9,389.9l5.7,6.5l-4.8,4.2l-1-1.1l3.5-3L318,395l-3.2,2.8l-1-1.1l3.2-2.8l-1.5-1.8l-3.6,3.1
	l-1-1.1L315.9,389.9z M323.5,387.8l-1.6-1.7l-1.2,1.1c-0.5,0.4-0.7,0.7-0.8,0.9c-0.2,0.2-0.2,0.4-0.2,0.7c0,0.2,0.1,0.5,0.3,0.7
	c0.2,0.2,0.4,0.3,0.6,0.4c0.2,0,0.4,0,0.7-0.1c0.2-0.1,0.6-0.4,1.2-1L323.5,387.8z M325.8,390.3l-1.4-1.4l-0.8,0.8
	c-0.5,0.5-0.8,0.8-0.9,0.9c-0.2,0.2-0.3,0.5-0.3,0.7c0,0.2,0.1,0.5,0.3,0.7c0.2,0.2,0.4,0.3,0.6,0.3c0.2,0,0.4-0.1,0.7-0.2
	c0.1-0.1,0.5-0.4,1.1-1L325.8,390.3z M328.1,390.1l-2.5,2.4c-0.5,0.5-0.9,0.8-1.2,1c-0.3,0.2-0.6,0.3-0.9,0.4c-0.3,0.1-0.6,0-1-0.1
	c-0.3-0.1-0.6-0.3-0.9-0.5c-0.3-0.3-0.5-0.6-0.5-1c-0.1-0.4,0-0.8,0.1-1.2c-0.5,0.2-1,0.3-1.4,0.3c-0.5-0.1-0.9-0.3-1.2-0.7
	c-0.3-0.3-0.5-0.6-0.6-1c-0.1-0.4-0.1-0.8-0.1-1.2c0.1-0.4,0.3-0.7,0.6-1.1c0.2-0.2,0.7-0.7,1.5-1.5l2.1-2L328.1,390.1z
	 M325.9,379.9l5.2,5l1.8-1.8l1,1l-4.7,4.9l-1-1l1.8-1.8l-5.2-5L325.9,379.9z M331.5,378.4l-1.5,0.9c-0.6-0.8-0.8-1.6-0.8-2.4
	c0-0.8,0.4-1.5,1-2.2c0.7-0.9,1.7-1.3,2.7-1.4c1.1-0.1,2.1,0.4,3.2,1.2c1.1,0.9,1.7,1.9,1.8,3c0.1,1.1-0.2,2.1-1,3
	c-0.7,0.8-1.5,1.2-2.4,1.3c-0.5,0.1-1.1-0.1-1.8-0.4l0.8-1.6c0.4,0.2,0.8,0.3,1.2,0.2c0.4-0.1,0.8-0.3,1.1-0.6
	c0.4-0.5,0.6-1,0.5-1.6c-0.1-0.6-0.5-1.2-1.3-1.9c-0.8-0.7-1.5-1.1-2.1-1.1c-0.6,0-1.1,0.2-1.5,0.7c-0.3,0.4-0.4,0.7-0.4,1.2
	C330.9,377.4,331.1,377.9,331.5,378.4z M337.6,365.8l6.8,5.3l-3.9,5l-1.1-0.9l2.9-3.6l-1.5-1.2l-2.7,3.4l-1.1-0.9l2.7-3.4l-1.8-1.4
	l-3,3.8l-1.1-0.9L337.6,365.8z M351.7,360.9l-1,1.4l-5.8-4.2l-1.4,2l5.8,4.2l-1,1.4l-5.8-4.2l-1.5,2.1l5.8,4.2l-1,1.4l-5.8-4.2
	l-0.4,0.6l-2.7-1.9l0.8-1.2l1.5,1.1l5.6-7.8L351.7,360.9z M349.5,350.8l-0.9,1.4c-0.3,0.5-0.5,0.8-0.6,1c-0.1,0.2-0.1,0.4,0,0.7
	c0.1,0.2,0.2,0.4,0.4,0.6c0.3,0.2,0.6,0.3,1,0.1c0.3-0.1,0.6-0.5,1-1.1l1-1.5L349.5,350.8z M356.5,353.3l-3.5,5.4l-1.2-0.8l2.6-3.9
	l-1.7-1.1l-1.3,1.9c-0.3,0.5-0.7,0.9-1.1,1.2c-0.4,0.3-0.8,0.4-1.3,0.4c-0.5,0-1-0.1-1.5-0.4c-0.5-0.3-0.8-0.7-1-1.2
	c-0.2-0.5-0.2-0.9-0.2-1.3c0.1-0.4,0.3-0.9,0.7-1.5l2.2-3.4L356.5,353.3z M356.9,343.8c-0.8-0.5-1.6-0.7-2.3-0.5
	c-0.7,0.1-1.2,0.5-1.5,1.1c-0.3,0.6-0.4,1.2-0.2,1.9c0.2,0.6,0.7,1.2,1.6,1.7c0.9,0.5,1.6,0.7,2.2,0.5c0.6-0.1,1.1-0.5,1.5-1.1
	c0.4-0.6,0.4-1.2,0.2-1.9C358.3,344.8,357.7,344.3,356.9,343.8z M357.7,342.2c0.8,0.4,1.3,0.9,1.7,1.4c0.3,0.4,0.5,0.8,0.6,1.3
	c0.1,0.5,0.2,0.9,0.1,1.4c-0.1,0.6-0.3,1.2-0.6,1.8c-0.6,1.1-1.5,1.8-2.5,2c-1.1,0.3-2.2,0-3.4-0.7c-1.2-0.7-2-1.6-2.3-2.6
	c-0.3-1-0.1-2.1,0.5-3.2c0.6-1.1,1.5-1.8,2.5-2.1C355.4,341.3,356.5,341.5,357.7,342.2z M364.6,334l0.6-1.2c0.3-0.6,0.5-1,0.5-1.3
	c0.1-0.2,0-0.4-0.1-0.6c-0.1-0.2-0.3-0.4-0.5-0.5c-0.3-0.1-0.5-0.2-0.8-0.1c-0.2,0.1-0.4,0.2-0.5,0.4c-0.1,0.2-0.3,0.6-0.6,1.3
	l-0.5,1.2L364.6,334z M358.1,331.1l3.3,1.5l0.1-0.3c0.2-0.5,0.3-0.9,0.3-1.2c-0.1-0.3-0.3-0.8-0.9-1.7l-1.2-1.9l0.8-1.9l1.1,1.6
	c0.4,0.6,0.7,1.1,0.9,1.5c0.1,0.3,0.2,0.7,0.3,1.1c0.4-0.7,0.9-1.1,1.5-1.2c0.5-0.1,1.1-0.1,1.6,0.1c0.5,0.2,0.8,0.5,1.1,0.9
	c0.3,0.4,0.4,0.8,0.3,1.3c-0.1,0.5-0.3,1.1-0.6,1.9l-1.5,3.3l-7.9-3.5L358.1,331.1z M364.8,323.9l3.4,0.1l-2.5-2.3L364.8,323.9z
	 M360.5,325.5l0.7-1.7l2.1,0l1.3-3.2l-1.6-1.4l0.7-1.7l6.7,6.3l-0.7,1.7L360.5,325.5z M366,310.1l8.2,2.6l-0.5,1.7l-3.2-1l-1,3.2
	l3.2,1l-0.5,1.7l-8.2-2.6l0.5-1.7l3.6,1.2l1-3.2l-3.6-1.2L366,310.1z M369.3,303.9l-0.5,1.6c-0.2,0.5-0.2,0.9-0.2,1.1
	c0,0.2,0.1,0.4,0.2,0.6c0.1,0.2,0.3,0.4,0.6,0.4c0.4,0.1,0.7,0.1,0.9-0.2c0.3-0.2,0.5-0.7,0.7-1.3l0.5-1.7L369.3,303.9z
	 M376.6,304.2l-0.5,1.7l-3.3-1l-0.6,2.2c-0.3,1.1-0.8,1.7-1.4,2.1c-0.6,0.3-1.3,0.4-2,0.2c-0.6-0.2-1-0.4-1.3-0.8
	c-0.3-0.4-0.5-0.8-0.5-1.2c0-0.4,0-1,0.2-1.6l1.1-3.9L376.6,304.2z M378.5,296.1l-1.4,5.9l-8.4-2l0.4-1.7l7,1.6l0.6-2.5l-3.6-0.8
	c-1-0.2-1.7-0.4-2.1-0.6c-0.4-0.2-0.7-0.4-0.8-0.7c-0.2-0.3-0.2-0.8,0-1.3c0-0.2,0.1-0.6,0.3-1.1l1.3,0.3l-0.1,0.4
	c-0.1,0.4-0.1,0.6,0,0.7c0.1,0.1,0.3,0.3,0.7,0.3l1.4,0.3L378.5,296.1z M374.4,290l3.3-0.6l-2.9-1.7L374.4,290z M370.5,292.5
	l0.3-1.8l2.1-0.4l0.6-3.4l-1.8-1.1l0.3-1.8l7.8,4.9l-0.3,1.8L370.5,292.5z M373,276.3l8.5,1l-0.2,1.7l-3.4-0.4l-0.4,3.4l3.4,0.4
	l-0.2,1.7l-8.5-1l0.2-1.7l3.7,0.4l0.4-3.4l-3.7-0.4L373,276.3z M377.9,268.7c-1-0.1-1.7,0.1-2.3,0.5c-0.5,0.4-0.8,1-0.9,1.7
	c-0.1,0.7,0.2,1.3,0.6,1.8c0.5,0.5,1.2,0.8,2.2,0.8c1,0.1,1.7-0.1,2.3-0.5c0.5-0.4,0.8-0.9,0.9-1.7c0.1-0.7-0.1-1.3-0.6-1.8
	C379.6,269.1,378.9,268.8,377.9,268.7z M378,266.9c0.9,0.1,1.6,0.3,2.2,0.6c0.4,0.2,0.8,0.5,1.1,0.9c0.3,0.4,0.6,0.8,0.7,1.2
	c0.2,0.6,0.3,1.2,0.2,1.9c-0.1,1.3-0.6,2.2-1.4,2.9c-0.8,0.7-2,1-3.4,0.9c-1.4-0.1-2.4-0.6-3.2-1.4c-0.7-0.8-1-1.9-0.9-3.1
	c0.1-1.3,0.6-2.3,1.4-3C375.5,267.1,376.6,266.8,378,266.9z M382.7,258.6l-0.1,1.6l-5.7-0.2l5.6,3.7l-0.1,1.7l-8.6-0.3l0.1-1.6
	l5.6,0.2l-5.5-3.7l0.1-1.7L382.7,258.6z M382.6,251.3l0.2,5.8l-1.5,0l-0.1-4.1l-7.1,0.2l-0.1-1.7L382.6,251.3z M373.6,243.5l8.6-0.7
	l0.5,6.4l-1.4,0.1l-0.4-4.6l-1.9,0.1l0.3,4.3l-1.4,0.1l-0.3-4.3l-2.3,0.2l0.4,4.8l-1.4,0.1L373.6,243.5z M380.2,236.7l-2.4,0.2
	l0.1,0.9c0.1,0.7,0.1,1.1,0.2,1.4c0.1,0.2,0.3,0.4,0.5,0.5c0.2,0.1,0.4,0.2,0.7,0.1c0.3,0,0.6-0.1,0.8-0.3c0.2-0.2,0.3-0.4,0.3-0.7
	c0-0.2,0-0.6,0-1.2L380.2,236.7z M373,235.5l8.6-0.7l0.2,2.8c0.1,1.1,0.1,1.7,0,2.1c-0.1,0.5-0.3,0.9-0.7,1.3
	c-0.4,0.4-1,0.6-1.6,0.6c-0.5,0-1,0-1.3-0.2c-0.4-0.2-0.7-0.4-0.9-0.7c-0.2-0.3-0.4-0.6-0.5-0.9c-0.1-0.4-0.2-1-0.3-1.8l-0.1-1.1
	l-3.2,0.2L373,235.5z M380.7,229.1l-3.6,0.4c0.1,0.3,0.2,0.5,0.4,0.6c0.2,0.1,0.7,0.3,1.4,0.5c0.9,0.2,1.5,0.5,1.8,0.8
	c0.3,0.3,0.5,0.9,0.6,1.7c0,0,0,0.1,0,0.3l-1.3,0.2l0-0.3c0-0.4-0.1-0.6-0.2-0.8c-0.1-0.2-0.3-0.3-0.4-0.3c-0.2-0.1-0.6-0.2-1.2-0.3
	c-0.3-0.1-0.6-0.2-0.8-0.3c-0.2-0.1-0.4-0.3-0.6-0.6c-0.1,0.4-0.2,0.7-0.5,1c-0.3,0.3-0.7,0.6-1.3,1l-2.2,1.4l-0.2-2l2.1-1.3
	c0,0,0.1-0.1,0.2-0.1c0.1,0,0.2-0.1,0.4-0.3c0.4-0.3,0.6-0.5,0.7-0.6c0.1-0.2,0.1-0.3,0.1-0.5l-3.7,0.4l-0.2-1.7l3.7-0.4
	c0-0.2-0.1-0.4-0.2-0.5c-0.1-0.1-0.4-0.3-0.8-0.4c-0.2-0.1-0.4-0.1-0.4-0.2c-0.1,0-0.1-0.1-0.2-0.1l-2.3-0.8l-0.2-2l2.5,0.9
	c0.6,0.2,1.1,0.4,1.5,0.6c0.4,0.2,0.6,0.5,0.8,0.9c0.1-0.3,0.3-0.6,0.5-0.7c0.2-0.1,0.4-0.3,0.7-0.4c0.5-0.3,0.9-0.4,1-0.6
	c0.2-0.1,0.3-0.3,0.4-0.4c0.1-0.2,0.1-0.5,0-0.8c0,0,0-0.1,0-0.2l1.3-0.2c0,0.1,0,0.2,0,0.3c0.1,0.8,0,1.4-0.2,1.8
	c-0.2,0.4-0.7,0.8-1.6,1.2c-0.7,0.3-1.1,0.6-1.2,0.8c-0.2,0.2-0.3,0.4-0.2,0.7l3.6-0.4L380.7,229.1z M369.8,216.9l8.5-1.6l1.2,6.3
	l-1.4,0.3l-0.8-4.5l-1.9,0.3l0.8,4.2l-1.4,0.3l-0.8-4.2l-2.3,0.4l0.9,4.7l-1.4,0.3L369.8,216.9z M367.5,207.1l8.4-1.9l0.6,2.5
	l-5.4,2.8l6.1,0.2l0.6,2.5l-8.4,1.9l-0.4-1.6l6.6-1.5l-7-0.1l-0.4-1.6l6.2-3.2l-6.6,1.5L367.5,207.1z M372.1,198.3l-0.5-1.3
	c-0.2-0.6-0.4-1.1-0.5-1.3c-0.1-0.2-0.3-0.3-0.5-0.4c-0.2-0.1-0.5-0.1-0.7,0c-0.3,0.1-0.5,0.3-0.6,0.5c-0.1,0.2-0.2,0.4-0.1,0.7
	c0,0.2,0.2,0.7,0.4,1.4l0.4,1.2L372.1,198.3z M365.3,200.7l3.4-1.2l-0.1-0.3c-0.2-0.5-0.4-0.9-0.6-1c-0.2-0.2-0.8-0.4-1.8-0.6
	L364,197l-0.7-2l1.9,0.4c0.8,0.2,1.3,0.3,1.6,0.5c0.3,0.1,0.7,0.4,1,0.6c-0.1-0.8-0.1-1.4,0.2-1.9c0.3-0.5,0.7-0.8,1.3-1
	c0.5-0.2,1-0.2,1.4-0.1c0.5,0.1,0.8,0.4,1.1,0.7c0.3,0.4,0.6,0.9,0.8,1.8l1.2,3.5l-8.1,2.9L365.3,200.7z M365.4,190.7l2.5-2.3
	l-3.4,0.1L365.4,190.7z M363.3,194.9l-0.7-1.8l1.6-1.4l-1.2-3.2l-2.1,0l-0.7-1.7l9.2,0l0.7,1.7L363.3,194.9z M357.1,179.7l7.8-3.5
	l0.7,1.6l-3.1,1.4l1.4,3.1l3.1-1.4l0.7,1.6l-7.8,3.5l-0.7-1.6l3.4-1.6l-1.4-3.1l-3.4,1.6L357.1,179.7z M360.8,171
	c-2.3,1.2-4.1,1.8-5.4,1.9l1.5,2.9l5.1-2.5L360.8,171z M361.4,168.8l2.6,5.3l-6.4,3.2l0.3,0.7l-3,1.5l-0.6-1.3l1.7-0.8l-2.4-4.8
	l-1.7,0.8l-0.6-1.3l3-1.5l0.3,0.7c0.8,0,1.7-0.2,2.6-0.5c0.9-0.3,2-0.8,3.4-1.5L361.4,168.8z M354.2,166.3l2.1-2.6l-3.3,0.6
	L354.2,166.3z M352.8,170.8l-0.9-1.6l1.3-1.6l-1.7-3l-2.1,0.4l-0.9-1.6l9.1-1.5l0.9,1.6L352.8,170.8z M351.6,152.1l3.7,5.8l-7.3,4.6
	l-0.9-1.5l6-3.8l-1.8-2.8l-6,3.8l-0.9-1.5L351.6,152.1z M344.9,151.4l1.9-2.8l-3.3,0.9L344.9,151.4z M344,156l-1.1-1.5l1.2-1.7
	l-2-2.8l-2,0.6L339,149l8.9-2.3l1.1,1.5L344,156z M340.6,140.8l-0.7-1.6c1.3-0.6,2.5-0.2,3.6,1.1c0.6,0.8,0.9,1.5,0.9,2.2
	c0,0.7-0.3,1.2-0.8,1.6c-0.3,0.3-0.7,0.4-1.1,0.4c-0.4,0-0.9-0.1-1.3-0.3c0.2,0.6,0.2,1.1,0.1,1.5c-0.1,0.4-0.4,0.8-0.8,1.2
	c-0.6,0.5-1.2,0.6-2,0.5c-0.7-0.1-1.4-0.7-2.1-1.5c-0.6-0.7-0.9-1.4-1-2c-0.1-0.6,0.1-1.3,0.6-2l1.4,0.9c-0.3,0.5-0.4,0.8-0.4,1.1
	c0,0.3,0.2,0.6,0.4,0.9c0.3,0.4,0.7,0.7,1,0.7c0.3,0,0.6,0,0.9-0.2c0.3-0.2,0.4-0.5,0.4-0.9c0-0.4-0.2-0.8-0.5-1.2l-0.2-0.3l1-0.8
	l0.1,0.2c0.3,0.4,0.7,0.7,1,0.7c0.4,0.1,0.7,0,1-0.3c0.2-0.2,0.4-0.4,0.4-0.8c0-0.3-0.1-0.6-0.4-1
	C341.9,140.7,341.3,140.6,340.6,140.8z M334.1,139l1.3-1l2,2.5l-1.3,1L334.1,139z M330.5,131.8c-0.7,0.6-1.1,1.3-1.2,2
	c-0.1,0.7,0.1,1.3,0.6,1.8c0.5,0.5,1,0.8,1.7,0.8c0.7,0,1.4-0.3,2.1-1c0.7-0.6,1.2-1.3,1.2-1.9c0.1-0.6-0.1-1.2-0.6-1.8
	c-0.5-0.5-1-0.8-1.7-0.8C331.9,130.8,331.2,131.2,330.5,131.8z M329.3,130.5c0.7-0.6,1.3-1,1.9-1.2c0.5-0.1,0.9-0.2,1.4-0.2
	c0.5,0,0.9,0.1,1.3,0.3c0.5,0.3,1,0.6,1.5,1.2c0.8,1,1.2,2,1.1,3.1c-0.1,1.1-0.7,2.1-1.7,3c-1,0.9-2.1,1.3-3.2,1.3
	c-1.1-0.1-2-0.6-2.9-1.5c-0.8-1-1.2-2-1.1-3.1C327.7,132.4,328.2,131.4,329.3,130.5z M327.3,124.2l-1.8,1.7l0.7,0.7
	c0.5,0.5,0.8,0.8,1,0.9c0.2,0.1,0.4,0.1,0.7,0.1c0.2,0,0.4-0.1,0.6-0.3c0.2-0.2,0.4-0.5,0.4-0.7c0-0.3,0-0.5-0.2-0.8
	c-0.1-0.2-0.4-0.5-0.8-0.9L327.3,124.2z M320.9,127.9l6.3-5.9l1.9,2c0.7,0.8,1.2,1.3,1.3,1.6c0.2,0.4,0.3,0.9,0.2,1.5
	c-0.1,0.5-0.4,1-0.9,1.5c-0.4,0.4-0.8,0.6-1.2,0.7c-0.4,0.1-0.8,0.1-1.1,0.1c-0.4-0.1-0.7-0.2-0.9-0.4c-0.3-0.2-0.8-0.7-1.3-1.2
	l-0.8-0.8l-2.4,2.2L320.9,127.9z M315.1,122.3l6-6.2l4.6,4.4l-1,1l-3.3-3.2l-1.3,1.4l3.1,3l-1,1l-3.1-3l-1.6,1.7l3.5,3.3l-1,1
	L315.1,122.3z M312.3,114.9l-1.5,1.8l1.2,1c0.5,0.4,0.8,0.7,0.9,0.7c0.2,0.1,0.5,0.2,0.7,0.1c0.2,0,0.5-0.2,0.7-0.4
	c0.2-0.2,0.3-0.4,0.3-0.6c0-0.2,0-0.4-0.2-0.7c-0.1-0.2-0.5-0.6-1.1-1.1L312.3,114.9z M314.5,112.3l-1.3,1.5l0.9,0.7
	c0.5,0.4,0.8,0.7,1,0.8c0.2,0.2,0.5,0.2,0.7,0.2c0.2,0,0.4-0.1,0.6-0.3c0.2-0.2,0.3-0.4,0.3-0.6c0-0.2-0.1-0.4-0.3-0.7
	c-0.1-0.1-0.5-0.5-1.1-1L314.5,112.3z M314.1,110.1l2.6,2.2c0.5,0.4,0.9,0.8,1.1,1.1c0.2,0.3,0.4,0.5,0.5,0.9c0.1,0.3,0.1,0.6,0,1
	c-0.1,0.3-0.2,0.7-0.5,0.9c-0.3,0.3-0.6,0.5-1,0.6c-0.4,0.1-0.8,0.1-1.2,0c0.3,0.5,0.4,0.9,0.4,1.4c0,0.5-0.2,0.9-0.5,1.3
	c-0.3,0.3-0.6,0.5-0.9,0.7c-0.4,0.2-0.8,0.2-1.1,0.2c-0.4,0-0.8-0.2-1.2-0.4c-0.2-0.2-0.8-0.6-1.6-1.3l-2.2-1.9L314.1,110.1z
	 M302.3,111.7l5.3-6.8l5,3.9l-0.9,1.1l-3.6-2.9l-1.2,1.5l3.4,2.7l-0.9,1.1l-3.4-2.7l-1.4,1.8l3.8,3l-0.9,1.1L302.3,111.7z
	 M301.6,107.2l1.1,1.4c-0.8,0.6-1.5,0.9-2.3,1c-0.8,0-1.5-0.2-2.3-0.8c-0.9-0.7-1.5-1.5-1.6-2.6c-0.1-1.1,0.2-2.1,1-3.3
	c0.8-1.2,1.8-1.9,2.8-2.1c1.1-0.2,2.1,0,3.1,0.7c0.9,0.6,1.4,1.4,1.5,2.3c0.1,0.5,0,1.1-0.2,1.8l-1.6-0.7c0.2-0.4,0.2-0.8,0.1-1.2
	c-0.1-0.4-0.4-0.7-0.7-1c-0.5-0.4-1.1-0.5-1.7-0.3c-0.6,0.1-1.2,0.6-1.8,1.5c-0.6,0.9-0.9,1.6-0.9,2.2c0.1,0.6,0.3,1.1,0.8,1.5
	c0.4,0.3,0.8,0.4,1.2,0.3C300.6,107.8,301.1,107.6,301.6,107.2z"/>
<path class="st1" d="M175.5,0.3l3.1-0.1l0.3,10.9l6.4-11.1l3.3-0.1l0.4,16.4l-3.1,0.1l-0.3-10.8l-6.4,10.9l-3.3,0.1L175.5,0.3z
	 M157.5,2.3l3.1-0.4l1.3,10.9l5.3-11.7l3.3-0.4l2,16.3l-3.1,0.4l-1.3-10.7l-5.3,11.5l-3.3,0.4L157.5,2.3z M152.2,13.8l3.4,0.2
	c-0.1,1.9-0.6,3.4-1.5,4.5c-0.9,1.1-2.2,1.9-4,2.3c-2.1,0.5-4,0.2-5.7-1c-1.7-1.1-2.8-3-3.4-5.5c-0.6-2.7-0.4-4.9,0.6-6.7
	c1-1.8,2.7-2.9,4.9-3.5c2-0.5,3.7-0.2,5.2,0.6c0.9,0.5,1.7,1.4,2.3,2.6l-3,1.5c-0.4-0.8-0.9-1.3-1.6-1.7c-0.7-0.3-1.5-0.4-2.4-0.2
	c-1.2,0.3-2.1,0.9-2.6,1.9c-0.5,1-0.6,2.5-0.2,4.4c0.5,2,1.2,3.4,2.1,4.1c0.9,0.7,2,0.9,3.1,0.6c0.9-0.2,1.5-0.6,2-1.3
	C151.9,16,152.2,15,152.2,13.8z M135.4,17.9l3.4-0.1c0.1,1.9-0.2,3.4-1,4.6c-0.8,1.2-2,2.1-3.7,2.7c-2.1,0.7-4,0.6-5.8-0.3
	c-1.8-0.9-3.1-2.6-4-5.1c-0.9-2.6-0.9-4.8-0.1-6.7c0.8-1.9,2.3-3.2,4.5-4c1.9-0.7,3.6-0.6,5.2,0.1c0.9,0.4,1.8,1.2,2.6,2.3l-2.8,1.8
	c-0.5-0.7-1.1-1.2-1.8-1.5c-0.7-0.3-1.5-0.2-2.4,0c-1.2,0.4-1.9,1.1-2.4,2.2c-0.4,1.1-0.3,2.5,0.3,4.4c0.7,2,1.5,3.2,2.5,3.8
	c1,0.6,2.1,0.7,3.2,0.3c0.8-0.3,1.5-0.8,1.9-1.5C135.4,20.1,135.6,19.2,135.4,17.9z M110.2,25.5c0.8,1.7,1.7,2.8,2.9,3.3
	c1.2,0.5,2.4,0.5,3.6,0c1.2-0.5,2-1.4,2.4-2.6c0.4-1.2,0.2-2.7-0.6-4.4c-0.8-1.7-1.7-2.8-2.9-3.3c-1.1-0.5-2.3-0.5-3.6,0.1
	c-1.2,0.6-2.1,1.4-2.4,2.6C109.2,22.3,109.4,23.8,110.2,25.5z M107.1,27c-0.7-1.5-1-2.9-1.1-4.2c0-0.9,0.1-1.8,0.5-2.7
	c0.3-0.9,0.8-1.6,1.3-2.2c0.8-0.8,1.7-1.5,3-2.1c2.2-1,4.3-1.1,6.2-0.3c1.9,0.8,3.5,2.4,4.6,4.8c1.1,2.4,1.3,4.6,0.6,6.6
	c-0.7,2-2.1,3.4-4.3,4.4c-2.2,1-4.3,1.1-6.2,0.4C109.7,31,108.2,29.4,107.1,27z M94,27.9l2.3,4l1.6-0.9c1.1-0.7,1.8-1.2,2.1-1.5
	c0.3-0.4,0.5-0.8,0.5-1.2c0-0.4-0.1-0.9-0.3-1.3c-0.3-0.5-0.7-0.9-1.2-1c-0.5-0.2-1-0.2-1.5,0c-0.4,0.1-1.1,0.5-2.1,1.1L94,27.9z
	 M98,41.4l-8.2-14.2l4.6-2.7c1.7-1,2.9-1.6,3.5-1.8c0.9-0.3,1.9-0.2,2.9,0.2c1,0.4,1.8,1.2,2.4,2.3c0.5,0.9,0.8,1.7,0.8,2.5
	c0,0.8-0.1,1.5-0.4,2.1c-0.3,0.6-0.7,1.1-1.1,1.5c-0.6,0.5-1.6,1.2-2.9,1.9l-1.9,1.1l3.1,5.4L98,41.4z M69.2,41.7l2.4-1.9l6.8,8.6
	l-1.5-12.7l2.6-2l10.2,12.9l-2.4,1.9L80.6,40L82,52.6l-2.6,2L69.2,41.7z M58,51.4l2.5-2.2l4.6,5.3c0.5-0.5,0.8-1,0.8-1.4
	c0-0.4-0.3-1.3-0.8-2.7c-0.6-1.8-0.9-3.1-0.6-3.9c0.2-0.8,0.9-1.7,2.1-2.7c0.1-0.1,0.2-0.2,0.4-0.3l1.6,1.9l-0.4,0.3
	c-0.5,0.4-0.8,0.8-1,1.2c-0.1,0.3-0.1,0.7-0.1,1.1c0.1,0.4,0.3,1.1,0.7,2.2c0.2,0.6,0.4,1.1,0.4,1.5c0.1,0.4,0,1-0.2,1.6
	c0.7-0.3,1.4-0.4,2.2-0.2c0.8,0.2,1.8,0.5,3,1l4.6,1.9L75,58.4l-4.3-1.9c-0.1,0-0.2-0.1-0.4-0.1c-0.1,0-0.3-0.1-0.8-0.3
	c-0.8-0.3-1.4-0.5-1.8-0.5c-0.3,0-0.7,0.2-1.1,0.6l4.7,5.4l-2.5,2.2L58,51.4z M45.5,64.4l2.1-2.2l7.9,7.6l-3.3-12.4l2.3-2.4
	l11.9,11.4l-2.1,2.2l-7.8-7.4l3.2,12.2l-2.3,2.4L45.5,64.4z M51.1,84l-10.7-8.4l-3,3.8l-2.2-1.7l8.1-10.2l2.2,1.7l-3,3.8l10.7,8.4
	L51.1,84z M36,93.3l3.7,2.4l1.7-2.6c0.6-1,1-1.7,1.2-2c0.2-0.5,0.2-0.9,0.1-1.4c-0.1-0.5-0.4-0.8-0.9-1.2c-0.4-0.3-0.8-0.4-1.3-0.4
	c-0.4,0-0.8,0.2-1.2,0.5c-0.4,0.3-1,1.1-1.8,2.3L36,93.3z M30.5,89.7l3.2,2.1l1.2-1.8c0.7-1.1,1.1-1.8,1.3-2.1
	c0.3-0.5,0.3-1,0.2-1.4c-0.1-0.4-0.4-0.8-0.8-1.1c-0.4-0.3-0.8-0.4-1.3-0.3c-0.4,0.1-0.8,0.3-1.2,0.7c-0.2,0.3-0.7,1-1.6,2.3
	L30.5,89.7z M26.4,91.1l3.6-5.5c0.7-1.1,1.3-1.9,1.7-2.4c0.4-0.5,0.9-0.8,1.5-1.1c0.6-0.2,1.2-0.3,1.8-0.3c0.7,0,1.3,0.2,1.9,0.6
	c0.6,0.4,1.1,1,1.4,1.7c0.3,0.7,0.4,1.4,0.3,2.2c0.8-0.7,1.6-1.1,2.5-1.1c0.9-0.1,1.7,0.2,2.5,0.7c0.6,0.4,1.1,0.9,1.6,1.6
	c0.4,0.7,0.6,1.4,0.7,2.1c0,0.7-0.2,1.5-0.6,2.3c-0.3,0.5-0.9,1.6-2.1,3.4l-3,4.7L26.4,91.1z M30.6,103.9l-6.5-0.8l4.4,4.8
	L30.6,103.9z M39.2,101.5l-1.6,3.2l-4-0.5l-3,5.9l2.7,2.9l-1.6,3.1L20,102.9l1.6-3.1L39.2,101.5z M26.2,130l-15.3-6.1l1.2-3.1l6,2.4
	l2.4-6l-6-2.4l1.2-3.1l15.3,6.1l-1.2,3.1l-6.7-2.7l-2.4,6l6.7,2.7L26.2,130z M14,142.2c1.8,0.5,3.3,0.5,4.4-0.1
	c1.2-0.6,1.9-1.5,2.3-2.8c0.4-1.3,0.2-2.5-0.5-3.5c-0.7-1.1-1.9-1.9-3.8-2.4c-1.8-0.5-3.3-0.5-4.4,0c-1.1,0.5-1.9,1.5-2.2,2.8
	c-0.4,1.3-0.2,2.5,0.4,3.6C10.9,140.9,12.1,141.7,14,142.2z M13.1,145.5c-1.6-0.5-2.9-1.1-3.8-1.9c-0.7-0.6-1.3-1.3-1.7-2.1
	c-0.5-0.8-0.7-1.6-0.8-2.4c-0.1-1.1,0-2.3,0.4-3.6c0.7-2.3,1.9-4,3.8-5c1.8-1,4.1-1.1,6.6-0.4c2.6,0.7,4.4,2,5.4,3.8
	c1,1.8,1.2,3.9,0.6,6.2c-0.7,2.3-1.9,4-3.8,5C17.8,146.1,15.6,146.2,13.1,145.5z M17.6,165.9l-16.2-3l0.9-4.9l11.6-0.9l-10.5-4.9
	l0.9-4.9l16.2,3l-0.6,3l-12.7-2.3l12.1,5.5l-0.6,3.1l-13.3,0.8l12.7,2.3L17.6,165.9z M11.2,171.2l1.2-3.1c1.8,0.6,3,1.6,3.8,2.8
	c0.8,1.2,1.1,2.7,1,4.5c-0.2,2.2-1,3.9-2.6,5.2c-1.6,1.3-3.7,1.8-6.3,1.6c-2.7-0.2-4.8-1.1-6.2-2.6c-1.4-1.5-2-3.4-1.8-5.7
	c0.2-2,0.9-3.6,2.2-4.7c0.8-0.7,1.8-1.2,3.2-1.4l0.5,3.3c-0.9,0.1-1.6,0.5-2.1,1.1c-0.5,0.6-0.8,1.3-0.9,2.2
	c-0.1,1.2,0.3,2.2,1.1,3.1c0.8,0.8,2.2,1.3,4.1,1.5c2.1,0.2,3.6-0.1,4.5-0.8c0.9-0.7,1.4-1.6,1.5-2.8c0.1-0.9-0.2-1.7-0.7-2.3
	C13.3,172.1,12.4,171.5,11.2,171.2z M8.6,197.5c1.9-0.1,3.3-0.5,4.2-1.4c0.9-0.9,1.4-2,1.3-3.3c0-1.3-0.5-2.4-1.5-3.2
	c-1-0.8-2.4-1.2-4.3-1.1c-1.9,0.1-3.3,0.5-4.2,1.4c-0.9,0.9-1.3,2-1.3,3.3c0,1.4,0.5,2.5,1.5,3.3C5.3,197.2,6.7,197.5,8.6,197.5z
	 M8.8,200.9c-1.7,0-3.1-0.2-4.2-0.6c-0.8-0.3-1.6-0.8-2.3-1.5c-0.7-0.6-1.2-1.3-1.5-2.1c-0.5-1-0.7-2.2-0.8-3.5
	c-0.1-2.4,0.6-4.4,2.1-5.9c1.5-1.5,3.5-2.3,6.2-2.4c2.7-0.1,4.8,0.6,6.3,2c1.5,1.4,2.4,3.3,2.4,5.7c0.1,2.4-0.6,4.4-2.1,5.9
	C13.5,200,11.5,200.8,8.8,200.9z M2.4,215.8L2,212.5l6.9-0.9c-0.2-0.7-0.4-1.2-0.8-1.4c-0.3-0.2-1.2-0.5-2.7-0.9
	c-1.8-0.5-3-1-3.5-1.6c-0.5-0.6-0.9-1.7-1.1-3.2c0-0.1,0-0.2-0.1-0.5l2.4-0.3l0,0.5c0.1,0.7,0.2,1.2,0.4,1.4
	c0.2,0.3,0.5,0.5,0.9,0.7c0.4,0.2,1.1,0.3,2.2,0.6c0.6,0.1,1.1,0.3,1.5,0.5c0.4,0.2,0.8,0.6,1.2,1.1c0.1-0.8,0.5-1.4,1-2
	c0.6-0.6,1.4-1.2,2.5-1.9l4.2-2.8l0.5,3.9l-4,2.5c-0.1,0-0.2,0.1-0.3,0.2c-0.1,0-0.3,0.2-0.7,0.5c-0.8,0.5-1.2,0.9-1.4,1.2
	c-0.2,0.3-0.2,0.7-0.2,1.3l7.1-0.9l0.4,3.3L2.4,215.8z M8.1,230.4l0.7,2.5c0.4,1.3,0.6,2.1,0.8,2.5c0.2,0.4,0.5,0.7,0.9,0.9
	c0.4,0.2,0.9,0.2,1.4,0.1c0.6-0.2,1-0.4,1.2-0.8c0.2-0.4,0.4-0.8,0.3-1.2c0-0.4-0.2-1.3-0.6-2.6l-0.7-2.4L8.1,230.4z M21.2,226.7
	l-6.6,1.9l0.2,0.6c0.3,1,0.6,1.7,1.1,2c0.4,0.3,1.5,0.8,3.3,1.4l4.1,1.3l1.1,3.8l-3.6-1.1c-1.4-0.4-2.5-0.8-3.1-1.1
	c-0.6-0.3-1.2-0.8-1.8-1.3c0.2,1.5,0,2.7-0.6,3.6c-0.6,0.9-1.5,1.5-2.6,1.8c-1,0.3-1.9,0.3-2.8,0c-0.9-0.3-1.6-0.8-2-1.5
	c-0.5-0.7-0.9-1.9-1.4-3.5l-1.9-6.7l15.8-4.4L21.2,226.7z M14.1,257.6l-1.1-2.9l10.2-4l-12.6-2.2l-1.2-3.1l15.3-6l1.1,2.9l-10,3.9
	l12.4,2.3l1.2,3.1L14.1,257.6z M21.9,274.2l-1.5-3l12.2-6.1l-2.9-5.7l-12.2,6.1l-1.5-3l12.2-6.1l-0.6-1.2l5.7-2.9l1.2,2.5l-3.2,1.6
	l5.2,10.4L21.9,274.2z M34.9,277.2l-3.9,5.2l6.3-1.4L34.9,277.2z M37.1,268.5l1.9,3l-2.4,3.2l3.5,5.6l3.9-0.9l1.9,3l-17.3,3.5
	l-1.9-3L37.1,268.5z M39.7,297.1l3.8-2.7l-1-1.5c-0.8-1.1-1.3-1.7-1.7-2c-0.4-0.3-0.8-0.4-1.3-0.4c-0.4,0-0.9,0.2-1.3,0.4
	c-0.5,0.3-0.8,0.8-0.9,1.3c-0.1,0.5-0.1,1,0.2,1.5c0.2,0.4,0.6,1,1.3,2L39.7,297.1z M52.8,291.9l-13.4,9.5l-3.1-4.3
	c-1.2-1.6-1.9-2.8-2.1-3.4c-0.3-0.9-0.4-1.9-0.1-2.9c0.3-1,1-1.9,2.1-2.6c0.8-0.6,1.6-0.9,2.4-1c0.8-0.1,1.5,0,2.1,0.2
	c0.6,0.2,1.2,0.5,1.6,1c0.6,0.6,1.3,1.4,2.2,2.7l1.2,1.8l5.1-3.6L52.8,291.9z M62.8,303.4l-12.4,10.8l-8-9.2l2.1-1.8l5.8,6.7
	l2.8-2.4l-5.4-6.2l2.1-1.8l5.4,6.2l3.4-2.9l-6-6.9l2.1-1.8L62.8,303.4z M61.8,321.6c3.4-3.6,6.3-5.9,8.5-6.9l-4.5-4.3l-7.5,7.9
	L61.8,321.6z M62.2,325.8l-8.2-7.8l9.4-9.9l-1-1l4.4-4.6l2,1.9l-2.5,2.6l7.4,7.1l2.5-2.6l2,1.9l-4.4,4.6l-1-1
	c-1.5,0.5-2.9,1.4-4.4,2.6c-1.4,1.2-3.1,2.8-5.1,4.9L62.2,325.8z M86.5,324.3l-10.2,12.9l-9.6-7.5l1.7-2.2l6.9,5.5l2.3-2.9l-6.5-5.1
	l1.7-2.2l6.5,5.1l2.8-3.5l-7.2-5.7l1.7-2.2L86.5,324.3z M94.9,335.5l-4,6.1c1.2,0.8,2.2,1,3.1,0.9c0.9-0.2,1.6-0.8,2.3-1.9
	C97.6,338.7,97.1,337,94.9,335.5z M92.1,333.8c-0.7-0.5-1.4-0.8-2.1-0.9c-0.7-0.1-1.3,0-1.8,0.3c-0.5,0.3-1,0.8-1.5,1.6
	c-1.3,2-0.8,3.7,1.4,5.1L92.1,333.8z M93.6,331.4l1-1.6l2.7,1.8l-1,1.6c2.2,1.5,3.4,3.1,3.6,4.6c0.3,1.6-0.1,3.1-1.1,4.7
	c-1,1.6-2.3,2.6-3.9,2.9c-1.6,0.3-3.4-0.1-5.6-1.4l-0.9,1.4l-2.7-1.8l0.9-1.4c-2.1-1.5-3.3-3-3.6-4.6c-0.3-1.6,0.1-3.1,1.1-4.7
	c1-1.5,2.3-2.5,3.8-2.9C89.5,329.6,91.4,330.1,93.6,331.4z"/>
</svg>
